SplineFontDB: 3.2
FontName: Atari-1029-Regular
FullName: Atari 1029 Regular Regular
FamilyName: Atari 1029 Regular
Weight: Book
Copyright: Copyright jeffpiep 2020
Version: 1.0
ItalicAngle: 0
UnderlinePosition: 74
UnderlineWidth: 49
Ascent: 800
Descent: 200
InvalidEm: 0
sfntRevision: 0x00010000
LayerCount: 2
Layer: 0 1 "Back" 1
Layer: 1 1 "Fore" 0
XUID: [1021 376 -1330786101 17750]
StyleMap: 0x0040
FSType: 4
OS2Version: 2
OS2_WeightWidthSlopeOnly: 0
OS2_UseTypoMetrics: 0
CreationTime: 1590639643
ModificationTime: 1590640035
PfmFamily: 81
TTFWeight: 400
TTFWidth: 5
LineGap: 0
VLineGap: 0
Panose: 0 0 4 0 0 0 0 0 0 0
OS2TypoAscent: 1000
OS2TypoAOffset: 0
OS2TypoDescent: 0
OS2TypoDOffset: 0
OS2TypoLinegap: 0
OS2WinAscent: 1000
OS2WinAOffset: 0
OS2WinDescent: 0
OS2WinDOffset: 0
HheadAscent: 1000
HheadAOffset: 0
HheadDescent: 0
HheadDOffset: 0
OS2SubXSize: 500
OS2SubYSize: 500
OS2SubXOff: 0
OS2SubYOff: 0
OS2SupXSize: 500
OS2SupYSize: 500
OS2SupXOff: 0
OS2SupYOff: 500
OS2StrikeYSize: 50
OS2StrikeYPos: 200
OS2CapHeight: 1007
OS2XHeight: 721
OS2Vendor: 'FSTR'
OS2CodePages: 00000111.00000000
OS2UnicodeRanges: 80000003.00000000.00000000.00000000
MarkAttachClasses: 1
DEI: 91125
ShortTable: maxp 16
  1
  0
  141
  753
  41
  0
  0
  2
  0
  0
  0
  0
  0
  0
  0
  0
EndShort
LangName: 1033 "" "" "Regular" "Atari 1029 Regular" "" "Version 1.0" "" "FontStruct is a trademark of FontStruct.com" "https://fontstruct.com" "jeffpiep" "+IBwA-Atari 1029 Regular+IB0A was built with FontStruct+AAoA" "https://fontstruct.com/fontstructions/show/1765983/atari-1029-regular" "https://fontstruct.com/fontstructors/show/1011029/jeffpiep" "Open Font License" "" "" "" "" "" "Five big quacking zephyrs jolt my wax bed"
Encoding: win
UnicodeInterp: none
NameList: AGL For New Fonts
DisplaySize: -48
AntiAlias: 1
FitToEm: 0
WinInfo: 0 38 12
BeginPrivate: 0
EndPrivate
BeginChars: 256 137

StartChar: exclam
Encoding: 33 33 1
Width: 599
VWidth: 699
Flags: W
LayerCount: 2
Fore
SplineSet
252 0 m 1,0,1
 230 0 230 0 215 15 c 128,-1,2
 200 30 200 30 200 52 c 128,-1,3
 200 74 200 74 215 90 c 0,4,5
 230 105 230 105 252 105 c 128,-1,6
 274 105 274 105 290 90 c 256,7,8
 305 74 305 74 305 52 c 128,-1,9
 305 30 305 30 290 15 c 128,-1,10
 275 0 275 0 252 0 c 1,11,-1
 252 0 l 1,0,1
252 300 m 1,12,13
 230 300 230 300 215 315 c 128,-1,14
 200 330 200 330 200 352 c 128,-1,15
 200 374 200 374 215 390 c 0,16,17
 224 398 224 398 236 402 c 1,18,-1
 236 402 l 1,19,20
 224 406 224 406 215 415 c 0,21,22
 200 430 200 430 200 452 c 128,-1,23
 200 474 200 474 215 489 c 0,24,25
 224 498 224 498 236 503 c 1,26,-1
 236 503 l 1,27,28
 224 507 224 507 215 515 c 0,29,30
 200 530 200 530 200 552 c 256,31,32
 200 574 200 574 215 589 c 0,33,34
 224 598 224 598 236 602 c 1,35,-1
 236 602 l 1,36,37
 224 606 224 606 215 615 c 0,38,39
 200 630 200 630 200 652 c 128,-1,40
 200 674 200 674 215 690 c 0,41,42
 230 705 230 705 252 705 c 0,43,44
 253.294117647 705.058823529 253.294117647 705.058823529 254.567474048 705.058823529 c 0,45,46
 274.941176471 705.058823529 274.941176471 705.058823529 290 690 c 256,47,48
 305 675 305 675 305 652 c 0,49,50
 305 630 305 630 290 615 c 0,51,52
 281 606 281 606 269 602 c 1,53,-1
 269 602 l 1,54,55
 280 598 280 598 290 589 c 0,56,57
 305 574 305 574 305 552 c 256,58,59
 305 530 305 530 290 515 c 0,60,61
 281 506 281 506 269 503 c 1,62,-1
 269 503 l 1,63,64
 280 499 280 499 290 489 c 0,65,66
 305 474 305 474 305 452 c 128,-1,67
 305 430 305 430 290 415 c 0,68,69
 281 406 281 406 269 402 c 1,70,-1
 269 402 l 1,71,72
 280 398 280 398 290 390 c 0,73,74
 305 375 305 375 305 352 c 0,75,76
 305 330 305 330 290 315 c 256,77,78
 275 300 275 300 252 300 c 1,79,-1
 252 300 l 1,12,13
EndSplineSet
Validated: 524293
EndChar

StartChar: quotedbl
Encoding: 34 34 2
Width: 599
VWidth: 699
Flags: W
LayerCount: 2
Fore
SplineSet
153 400 m 1,0,1
 132 400 132 400 116 415 c 256,2,3
 101 430 101 430 100 452 c 0,4,5
 100 474 100 474 116 489 c 0,6,7
 125 498 125 498 136 503 c 1,8,-1
 136 503 l 1,9,10
 126 507 126 507 116 515 c 0,11,12
 101 530 101 530 100 552 c 256,13,14
 100 574 100 574 116 589 c 0,15,16
 125 598 125 598 136 602 c 1,17,-1
 136 602 l 1,18,19
 126 606 126 606 116 615 c 0,20,21
 101 630 101 630 100 652 c 0,22,23
 100 674 100 674 116 690 c 256,24,25
 131 705 131 705 153 705 c 0,26,27
 154.294117647 705.058823529 154.294117647 705.058823529 155.564013841 705.058823529 c 0,28,29
 175.882352941 705.058823529 175.882352941 705.058823529 190 690 c 256,30,31
 204.0625 675.9375 204.0625 675.9375 204.0625 654.84375 c 0,32,33
 204.0625 630.066964286 204.0625 630.066964286 190 615 c 0,34,35
 181 606 181 606 169 602 c 1,36,-1
 169 602 l 1,37,38
 180 598 180 598 190 589 c 0,39,40
 204.0625 574.9375 204.0625 574.9375 204.0625 554.72265625 c 0,41,42
 204.0625 530.066964286 204.0625 530.066964286 190 515 c 0,43,44
 181 506 181 506 169 503 c 1,45,-1
 169 503 l 1,46,47
 180 499 180 499 190 489 c 0,48,49
 204.0625 474.9375 204.0625 474.9375 204.0625 454.72265625 c 0,50,51
 204.0625 430.066964286 204.0625 430.066964286 190 415 c 256,52,53
 175 400 175 400 153 400 c 1,54,-1
 153 400 l 1,0,1
352 400 m 1,55,56
 330 400 330 400 315 415 c 256,57,58
 300 430 300 430 300 452 c 128,-1,59
 300 474 300 474 315 489 c 0,60,61
 324 498 324 498 335 503 c 1,62,-1
 335 503 l 1,63,64
 324 507 324 507 315 515 c 0,65,66
 300 530 300 530 300 552 c 256,67,68
 300 574 300 574 315 589 c 0,69,70
 324 598 324 598 335 602 c 1,71,-1
 335 602 l 1,72,73
 324 606 324 606 315 615 c 0,74,75
 300 630 300 630 300 652 c 128,-1,76
 300 674 300 674 315 690 c 256,77,78
 330 705 330 705 352 705 c 0,79,80
 353.294117647 705.058823529 353.294117647 705.058823529 354.567474048 705.058823529 c 0,81,82
 374.941176471 705.058823529 374.941176471 705.058823529 390 690 c 128,-1,83
 405 675 405 675 405 652 c 0,84,85
 405 630 405 630 390 615 c 0,86,87
 381 606 381 606 369 602 c 1,88,-1
 369 602 l 1,89,90
 381 598 381 598 390 589 c 0,91,92
 405 574 405 574 405 552 c 256,93,94
 405 530 405 530 390 515 c 0,95,96
 381 506 381 506 369 503 c 1,97,-1
 369 503 l 1,98,99
 381 499 381 499 390 489 c 0,100,101
 405 474 405 474 405 452 c 128,-1,102
 405 430 405 430 390 415 c 128,-1,103
 375 400 375 400 352 400 c 1,104,-1
 352 400 l 1,55,56
EndSplineSet
Validated: 524293
EndChar

StartChar: numbersign
Encoding: 35 35 3
Width: 599
VWidth: 699
Flags: W
LayerCount: 2
Fore
SplineSet
102 236 m 1,0,1
 102 236 l 1,2,-1
 102 236 l 1,3,4
 102 236 l 1,5,-1
 102 236 l 1,0,1
302 236 m 1,6,7
 302 236 l 1,8,-1
 302 236 l 1,9,10
 302 236 l 1,11,-1
 302 236 l 1,6,7
202 269 m 1,12,13
 206 280 206 280 215 290 c 0,14,15
 230 305 230 305 252 305 c 128,-1,16
 274 305 274 305 290 290 c 0,17,18
 299 281 299 281 302 269 c 1,19,-1
 302 269 l 1,20,21
 306 280 306 280 315 290 c 256,22,23
 324 299 324 299 335 302 c 1,24,-1
 335 302 l 1,25,26
 324 306 324 306 315 315 c 0,27,28
 300 330 300 330 300 352 c 128,-1,29
 300 374 300 374 315 390 c 0,30,31
 324 398 324 398 335 402 c 1,32,-1
 335 402 l 1,33,34
 324 406 324 406 315 415 c 256,35,36
 306 424 306 424 302 436 c 1,37,38
 298 425 298 425 290 415 c 0,39,40
 275 400 275 400 252 400 c 0,41,42
 230 400 230 400 215 415 c 0,43,44
 206 424 206 424 202 436 c 1,45,46
 198 425 198 425 190 415 c 256,47,48
 181 406 181 406 169 402 c 1,49,-1
 169 402 l 1,50,51
 180 398 180 398 190 390 c 0,52,53
 204.0625 375.9375 204.0625 375.9375 204.0625 354.84375 c 0,54,55
 204.0625 330.066964286 204.0625 330.066964286 190 315 c 0,56,57
 181 306 181 306 169 302 c 1,58,-1
 169 302 l 1,59,60
 180 298 180 298 190 290 c 256,61,62
 199 281 199 281 202 269 c 1,63,-1
 202 269 l 1,12,13
202 436 m 1,64,-1
 202 436 l 1,65,-1
 202 436 l 1,66,-1
 202 436 l 1,67,-1
 202 436 l 1,64,-1
402 436 m 1,68,-1
 402 436 l 1,69,-1
 402 436 l 1,70,-1
 402 436 l 1,71,-1
 402 436 l 1,68,-1
153 0 m 1,72,73
 132 0 132 0 116 15 c 0,74,75
 101 30 101 30 100 52 c 0,76,77
 100 74 100 74 116 90 c 0,78,79
 125 99 125 99 136 102 c 1,80,-1
 136 102 l 1,81,82
 126 106 126 106 116 116 c 0,83,84
 101 131 101 131 100 153 c 0,85,86
 100 175 100 175 116 190 c 0,87,88
 125 199 125 199 136 202 c 1,89,-1
 136 202 l 1,90,91
 126 206 126 206 116 215 c 0,92,93
 107 224 107 224 102 236 c 1,94,-1
 102 236 l 1,95,96
 98 224 98 224 90 215 c 0,97,98
 74 200 74 200 52 200 c 128,-1,99
 30 200 30 200 15 215 c 128,-1,100
 0 230 0 230 0 252 c 128,-1,101
 0 274 0 274 15 290 c 0,102,103
 30 305 30 305 52 305 c 128,-1,104
 74 305 74 305 90 290 c 0,105,106
 99 281 99 281 102 269 c 1,107,-1
 102 269 l 1,108,109
 106 280 106 280 116 290 c 256,110,111
 125 299 125 299 136 302 c 1,112,-1
 136 302 l 1,113,114
 126 306 126 306 116 315 c 0,115,116
 101 330 101 330 100 352 c 0,117,118
 100 374 100 374 116 390 c 0,119,120
 125 398 125 398 136 402 c 1,121,-1
 136 402 l 1,122,123
 126 406 126 406 116 415 c 256,124,125
 107 424 107 424 102 436 c 1,126,-1
 102 436 l 1,127,128
 98 425 98 425 90 415 c 0,129,130
 74 400 74 400 52 400 c 128,-1,131
 30 400 30 400 15 415 c 128,-1,132
 0 430 0 430 0 452 c 128,-1,133
 0 474 0 474 15 489 c 128,-1,134
 30 504 30 504 52 505 c 0,135,136
 74 505 74 505 90 489 c 0,137,138
 99 480 99 480 102 469 c 1,139,-1
 102 469 l 1,140,141
 106 480 106 480 116 489 c 256,142,143
 125 498 125 498 136 503 c 1,144,-1
 136 503 l 1,145,146
 126 507 126 507 116 515 c 0,147,148
 101 530 101 530 100 552 c 256,149,150
 100 574 100 574 116 589 c 0,151,152
 125 598 125 598 136 602 c 1,153,-1
 136 602 l 1,154,155
 126 606 126 606 116 615 c 0,156,157
 101 630 101 630 100 652 c 0,158,159
 100 674 100 674 116 690 c 256,160,161
 131 705 131 705 153 705 c 0,162,163
 154.294117647 705.058823529 154.294117647 705.058823529 155.564013841 705.058823529 c 0,164,165
 175.882352941 705.058823529 175.882352941 705.058823529 190 690 c 256,166,167
 204.0625 675.9375 204.0625 675.9375 204.0625 654.84375 c 0,168,169
 204.0625 630.066964286 204.0625 630.066964286 190 615 c 0,170,171
 181 606 181 606 169 602 c 1,172,-1
 169 602 l 1,173,174
 180 598 180 598 190 589 c 0,175,176
 204.0625 574.9375 204.0625 574.9375 204.0625 554.72265625 c 0,177,178
 204.0625 530.066964286 204.0625 530.066964286 190 515 c 0,179,180
 181 506 181 506 169 503 c 1,181,-1
 169 503 l 1,182,183
 180 499 180 499 190 489 c 256,184,185
 199 480 199 480 202 469 c 1,186,-1
 202 469 l 1,187,188
 206 480 206 480 215 489 c 0,189,190
 230 504 230 504 252 505 c 0,191,192
 274 505 274 505 290 489 c 0,193,194
 299 480 299 480 302 469 c 1,195,-1
 302 469 l 1,196,197
 306 480 306 480 315 489 c 0,198,199
 321 495 321 495 330 500 c 1,200,-1
 300 500 l 1,201,-1
 300 605 l 1,202,-1
 330 605 l 1,203,204
 322 609 322 609 315 615 c 0,205,206
 300 630 300 630 300 652 c 128,-1,207
 300 674 300 674 315 690 c 256,208,209
 330 705 330 705 352 705 c 0,210,211
 353.294117647 705.058823529 353.294117647 705.058823529 354.567474048 705.058823529 c 0,212,213
 374.941176471 705.058823529 374.941176471 705.058823529 390 690 c 128,-1,214
 405 675 405 675 405 652 c 0,215,216
 405 630 405 630 390 615 c 0,217,218
 383 609 383 609 375 605 c 1,219,-1
 405 605 l 1,220,-1
 405 500 l 1,221,-1
 375 500 l 1,222,223
 383 496 383 496 390 489 c 0,224,225
 398 480 398 480 402 469 c 1,226,-1
 402 469 l 1,227,228
 406 480 406 480 415 489 c 0,229,230
 430 504 430 504 452 505 c 0,231,232
 474 505 474 505 489 489 c 256,233,234
 504 474 504 474 505 452 c 0,235,236
 505 430 505 430 489 415 c 256,237,238
 474 400 474 400 452 400 c 128,-1,239
 430 400 430 400 415 415 c 0,240,241
 406 424 406 424 402 436 c 1,242,243
 398 425 398 425 390 415 c 0,244,245
 381 406 381 406 369 402 c 1,246,-1
 369 402 l 1,247,248
 381 398 381 398 390 390 c 0,249,250
 405 375 405 375 405 352 c 0,251,252
 405 330 405 330 390 315 c 0,253,254
 381 306 381 306 369 302 c 1,255,-1
 369 302 l 1,256,257
 381 298 381 298 390 290 c 0,258,259
 398 281 398 281 402 269 c 1,260,-1
 402 269 l 1,261,262
 406 280 406 280 415 290 c 0,263,264
 430 305 430 305 452 305 c 128,-1,265
 474 305 474 305 489 290 c 256,266,267
 504 275 504 275 505 252 c 0,268,269
 505 230 505 230 489 215 c 0,270,271
 474 200 474 200 452 200 c 128,-1,272
 430 200 430 200 415 215 c 0,273,274
 406 224 406 224 402 236 c 1,275,276
 398 224 398 224 390 215 c 0,277,278
 381 206 381 206 369 202 c 1,279,-1
 369 202 l 1,280,281
 381 198 381 198 390 190 c 0,282,283
 405 175 405 175 405 153 c 0,284,285
 405 132 405 132 390 116 c 0,286,287
 381 107 381 107 369 102 c 1,288,-1
 369 102 l 1,289,290
 381 98 381 98 390 90 c 0,291,292
 405 74 405 74 405 52 c 128,-1,293
 405 30 405 30 390 15 c 128,-1,294
 375 0 375 0 352 0 c 0,295,296
 330 0 330 0 315 15 c 128,-1,297
 300 30 300 30 300 52 c 128,-1,298
 300 74 300 74 315 90 c 0,299,300
 324 99 324 99 335 102 c 1,301,-1
 335 102 l 1,302,303
 324 106 324 106 315 116 c 0,304,305
 300 131 300 131 300 153 c 128,-1,306
 300 175 300 175 315 190 c 0,307,308
 324 199 324 199 335 202 c 1,309,-1
 335 202 l 1,310,311
 324 206 324 206 315 215 c 128,-1,312
 306 224 306 224 302 236 c 1,313,314
 298 224 298 224 290 215 c 0,315,316
 275 200 275 200 252 200 c 0,317,318
 230 200 230 200 215 215 c 0,319,320
 206 224 206 224 202 236 c 1,321,322
 198 224 198 224 190 215 c 0,323,324
 181 206 181 206 169 202 c 1,325,-1
 169 202 l 1,326,327
 180 198 180 198 190 190 c 0,328,329
 204.0625 175.9375 204.0625 175.9375 204.0625 155.72265625 c 0,330,331
 204.0625 132.071428571 204.0625 132.071428571 190 116 c 0,332,333
 181 107 181 107 169 102 c 1,334,-1
 169 102 l 1,335,336
 180 98 180 98 190 90 c 0,337,338
 204.0625 75 204.0625 75 204.0625 54.7265625 c 0,339,340
 204.0625 30.0669642857 204.0625 30.0669642857 190 15 c 0,341,342
 175 0 175 0 153 0 c 1,343,-1
 153 0 l 1,72,73
EndSplineSet
Validated: 524293
EndChar

StartChar: dollar
Encoding: 36 36 4
Width: 599
VWidth: 699
Flags: W
LayerCount: 2
Fore
SplineSet
102 136 m 1,0,1
 102 136 l 1,2,-1
 102 136 l 1,3,4
 102 136 l 1,5,-1
 102 136 l 1,0,1
202 136 m 1,6,7
 202 136 l 1,8,-1
 202 136 l 1,9,10
 202 136 l 1,11,-1
 202 136 l 1,6,7
452 200 m 1,12,13
 430 200 430 200 415 215 c 128,-1,14
 400 230 400 230 400 252 c 128,-1,15
 400 274 400 274 415 290 c 256,16,17
 430 305 430 305 452 305 c 128,-1,18
 474 305 474 305 489 290 c 256,19,20
 504 275 504 275 505 252 c 0,21,22
 505 230 505 230 489 215 c 0,23,24
 474 200 474 200 452 200 c 1,25,-1
 452 200 l 1,12,13
302 335 m 1,26,-1
 302 335 l 1,27,-1
 302 335 l 1,28,-1
 302 335 l 1,29,-1
 302 335 l 1,26,-1
52 400 m 1,30,31
 30 400 30 400 15 415 c 128,-1,32
 0 430 0 430 0 452 c 128,-1,33
 0 474 0 474 15 489 c 128,-1,34
 30 504 30 504 52 505 c 0,35,36
 74 505 74 505 90 489 c 256,37,38
 105 474 105 474 105 452 c 128,-1,39
 105 430 105 430 90 415 c 256,40,41
 74 400 74 400 52 400 c 1,42,-1
 52 400 l 1,30,31
202 536 m 1,43,-1
 202 536 l 1,44,-1
 202 536 l 1,45,-1
 202 536 l 1,46,-1
 202 536 l 1,43,-1
402 536 m 1,47,-1
 402 536 l 1,48,-1
 402 536 l 1,49,-1
 402 536 l 1,50,-1
 402 536 l 1,47,-1
252 0 m 1,51,52
 230 0 230 0 215 15 c 128,-1,53
 200 30 200 30 200 52 c 128,-1,54
 200 74 200 74 215 90 c 0,55,56
 224 99 224 99 236 102 c 1,57,-1
 236 102 l 1,58,59
 224 106 224 106 215 116 c 0,60,61
 206 125 206 125 202 136 c 1,62,63
 198 126 198 126 190 116 c 0,64,65
 175 101 175 101 153 100 c 0,66,67
 132 100 132 100 116 116 c 0,68,69
 107 125 107 125 102 136 c 1,70,-1
 102 136 l 1,71,72
 98 126 98 126 90 116 c 0,73,74
 74 101 74 101 52 100 c 0,75,76
 30 100 30 100 15 116 c 0,77,78
 0 131 0 131 0 153 c 128,-1,79
 0 175 0 175 15 190 c 0,80,81
 29.0625 204.0625 29.0625 204.0625 49.27734375 204.0625 c 0,82,83
 50.625 204.0625 50.625 204.0625 52 204 c 0,84,85
 74 204 74 204 90 190 c 0,86,87
 99 181 99 181 102 169 c 1,88,-1
 102 169 l 1,89,90
 106 180 106 180 116 190 c 0,91,92
 130.0625 204.0625 130.0625 204.0625 150.27734375 204.0625 c 0,93,94
 151.625 204.0625 151.625 204.0625 153 204 c 0,95,96
 175 204 175 204 190 190 c 0,97,98
 199 181 199 181 202 169 c 1,99,-1
 202 169 l 1,100,101
 206 180 206 180 215 190 c 0,102,103
 224 199 224 199 236 202 c 1,104,-1
 236 202 l 1,105,106
 224 206 224 206 215 215 c 0,107,108
 200 230 200 230 200 252 c 128,-1,109
 200 274 200 274 215 290 c 0,110,111
 224 299 224 299 236 302 c 1,112,-1
 236 302 l 1,113,114
 224 306 224 306 215 315 c 128,-1,115
 206 324 206 324 202 335 c 1,116,117
 198 324 198 324 190 315 c 0,118,119
 175 300 175 300 153 300 c 0,120,121
 132 300 132 300 116 315 c 256,122,123
 101 330 101 330 100 352 c 0,124,125
 100 374 100 374 116 390 c 0,126,127
 131 405 131 405 153 405 c 128,-1,128
 175 405 175 405 190 390 c 0,129,130
 199 381 199 381 202 369 c 1,131,-1
 202 369 l 1,132,133
 206 381 206 381 215 390 c 0,134,135
 224 398 224 398 236 402 c 1,136,-1
 236 402 l 1,137,138
 224 406 224 406 215 415 c 0,139,140
 200 430 200 430 200 452 c 128,-1,141
 200 474 200 474 215 489 c 0,142,143
 224 498 224 498 236 503 c 1,144,-1
 236 503 l 1,145,146
 224 507 224 507 215 515 c 0,147,148
 206 524 206 524 202 536 c 1,149,150
 198 524 198 524 190 515 c 0,151,152
 175 500 175 500 153 500 c 0,153,154
 132 500 132 500 116 515 c 256,155,156
 101 530 101 530 100 552 c 256,157,158
 100 574 100 574 116 589 c 256,159,160
 131 604 131 604 153 605 c 0,161,162
 175 605 175 605 190 589 c 0,163,164
 199 579 199 579 202 568 c 1,165,-1
 202 568 l 1,166,167
 206 580 206 580 215 589 c 128,-1,168
 224 598 224 598 236 602 c 1,169,-1
 236 602 l 1,170,171
 224 606 224 606 215 615 c 0,172,173
 200 630 200 630 200 652 c 128,-1,174
 200 674 200 674 215 690 c 0,175,176
 230 705 230 705 252 705 c 0,177,178
 253.294117647 705.058823529 253.294117647 705.058823529 254.567474048 705.058823529 c 0,179,180
 274.941176471 705.058823529 274.941176471 705.058823529 290 690 c 256,181,182
 305 675 305 675 305 652 c 0,183,184
 305 630 305 630 290 615 c 0,185,186
 281 606 281 606 269 602 c 1,187,-1
 269 602 l 1,188,189
 280 598 280 598 290 589 c 0,190,191
 299 579 299 579 302 568 c 1,192,-1
 302 568 l 1,193,194
 306 580 306 580 315 589 c 0,195,196
 330 604 330 604 352 605 c 0,197,198
 374 605 374 605 390 589 c 0,199,200
 398 579 398 579 402 568 c 1,201,-1
 402 568 l 1,202,203
 406 580 406 580 415 589 c 0,204,205
 430 604 430 604 452 605 c 0,206,207
 474 605 474 605 489 589 c 256,208,209
 504 574 504 574 505 552 c 256,210,211
 505 530 505 530 489 515 c 256,212,213
 474 500 474 500 452 500 c 128,-1,214
 430 500 430 500 415 515 c 0,215,216
 406 524 406 524 402 536 c 1,217,218
 398 524 398 524 390 515 c 0,219,220
 375 500 375 500 352 500 c 0,221,222
 330 500 330 500 315 515 c 0,223,224
 306 524 306 524 302 536 c 1,225,226
 298 524 298 524 290 515 c 256,227,228
 281 506 281 506 269 503 c 1,229,-1
 269 503 l 1,230,231
 280 499 280 499 290 489 c 0,232,233
 305 474 305 474 305 452 c 128,-1,234
 305 430 305 430 290 415 c 0,235,236
 281 406 281 406 269 402 c 1,237,-1
 269 402 l 1,238,239
 280 398 280 398 290 390 c 0,240,241
 299 381 299 381 302 369 c 1,242,-1
 302 369 l 1,243,244
 306 381 306 381 315 390 c 0,245,246
 330 405 330 405 352 405 c 128,-1,247
 374 405 374 405 390 390 c 0,248,249
 405 375 405 375 405 352 c 0,250,251
 405 330 405 330 390 315 c 128,-1,252
 375 300 375 300 352 300 c 0,253,254
 330 300 330 300 315 315 c 0,255,256
 306 324 306 324 302 335 c 1,257,258
 298 324 298 324 290 315 c 256,259,260
 281 306 281 306 269 302 c 1,261,-1
 269 302 l 1,262,263
 280 298 280 298 290 290 c 0,264,265
 305 275 305 275 305 252 c 0,266,267
 305 230 305 230 290 215 c 0,268,269
 281 206 281 206 269 202 c 1,270,-1
 269 202 l 1,271,272
 280 198 280 198 290 190 c 256,273,274
 299 181 299 181 302 169 c 1,275,-1
 302 169 l 1,276,277
 306 180 306 180 315 190 c 0,278,279
 329.0625 204.0625 329.0625 204.0625 349.27734375 204.0625 c 0,280,281
 350.625 204.0625 350.625 204.0625 352 204 c 0,282,283
 374 204 374 204 390 190 c 0,284,285
 405 175 405 175 405 153 c 0,286,287
 405 132 405 132 390 116 c 0,288,289
 375 101 375 101 352 100 c 0,290,291
 330 100 330 100 315 116 c 0,292,293
 306 125 306 125 302 136 c 1,294,295
 298 126 298 126 290 116 c 256,296,297
 281 107 281 107 269 102 c 1,298,-1
 269 102 l 1,299,300
 280 98 280 98 290 90 c 0,301,302
 305 74 305 74 305 52 c 128,-1,303
 305 30 305 30 290 15 c 128,-1,304
 275 0 275 0 252 0 c 1,305,-1
 252 0 l 1,51,52
EndSplineSet
Validated: 524293
EndChar

StartChar: percent
Encoding: 37 37 5
Width: 599
VWidth: 699
Flags: W
LayerCount: 2
Fore
SplineSet
402 136 m 1,0,1
 402 136 l 1,2,-1
 402 136 l 1,3,4
 402 136 l 1,5,-1
 402 136 l 1,0,1
52 100 m 1,6,7
 30 100 30 100 15 116 c 0,8,9
 0 131 0 131 0 153 c 128,-1,10
 0 175 0 175 15 190 c 0,11,12
 29.0625 204.0625 29.0625 204.0625 49.27734375 204.0625 c 0,13,14
 50.625 204.0625 50.625 204.0625 52 204 c 0,15,16
 74 204 74 204 90 190 c 256,17,18
 105 175 105 175 105 153 c 0,19,20
 105 132 105 132 90 116 c 256,21,22
 74 101 74 101 52 100 c 1,23,-1
 52 100 l 1,6,7
402 169 m 1,24,25
 406 180 406 180 415 190 c 256,26,27
 424 199 424 199 436 202 c 1,28,-1
 436 202 l 1,29,30
 425 206 425 206 415 215 c 0,31,32
 406 224 406 224 402 236 c 1,33,34
 398 224 398 224 390 215 c 0,35,36
 381 206 381 206 369 202 c 1,37,-1
 369 202 l 1,38,39
 381 198 381 198 390 190 c 0,40,41
 398 181 398 181 402 169 c 1,42,-1
 402 169 l 1,24,25
402 236 m 1,43,-1
 402 236 l 1,44,-1
 402 236 l 1,45,46
 402 236 l 1,47,-1
 402 236 l 1,43,-1
153 200 m 1,48,49
 132 200 132 200 116 215 c 0,50,51
 101 230 101 230 100 252 c 0,52,53
 100 274 100 274 116 290 c 256,54,55
 131 305 131 305 153 305 c 128,-1,56
 175 305 175 305 190 290 c 256,57,58
 204.0625 275.9375 204.0625 275.9375 204.0625 254.84375 c 0,59,60
 204.0625 230.066964286 204.0625 230.066964286 190 215 c 0,61,62
 175 200 175 200 153 200 c 1,63,-1
 153 200 l 1,48,49
352 100 m 1,64,65
 330 100 330 100 315 116 c 256,66,67
 300 131 300 131 300 153 c 128,-1,68
 300 175 300 175 315 190 c 0,69,70
 324 199 324 199 335 202 c 1,71,-1
 335 202 l 1,72,73
 324 206 324 206 315 215 c 0,74,75
 300 230 300 230 300 252 c 128,-1,76
 300 274 300 274 315 290 c 256,77,78
 330 305 330 305 352 305 c 128,-1,79
 374 305 374 305 390 290 c 0,80,81
 398 281 398 281 402 269 c 1,82,-1
 402 269 l 1,83,84
 406 280 406 280 415 290 c 0,85,86
 430 305 430 305 452 305 c 128,-1,87
 474 305 474 305 489 290 c 256,88,89
 504 275 504 275 505 252 c 0,90,91
 505 230 505 230 489 215 c 0,92,93
 480 206 480 206 469 202 c 1,94,-1
 469 202 l 1,95,96
 480 198 480 198 489 190 c 0,97,98
 504 175 504 175 505 153 c 0,99,100
 505 132 505 132 489 116 c 256,101,102
 474 101 474 101 452 100 c 0,103,104
 430 100 430 100 415 116 c 0,105,106
 406 125 406 125 402 136 c 1,107,108
 398 126 398 126 390 116 c 0,109,110
 375 101 375 101 352 100 c 1,111,-1
 352 100 l 1,64,65
252 300 m 1,112,113
 230 300 230 300 215 315 c 128,-1,114
 200 330 200 330 200 352 c 128,-1,115
 200 374 200 374 215 390 c 0,116,117
 230 405 230 405 252 405 c 128,-1,118
 274 405 274 405 290 390 c 0,119,120
 305 375 305 375 305 352 c 0,121,122
 305 330 305 330 290 315 c 256,123,124
 275 300 275 300 252 300 c 1,125,-1
 252 300 l 1,112,113
352 400 m 1,126,127
 330 400 330 400 315 415 c 256,128,129
 300 430 300 430 300 452 c 128,-1,130
 300 474 300 474 315 489 c 256,131,132
 330 504 330 504 352 505 c 0,133,134
 374 505 374 505 390 489 c 0,135,136
 405 474 405 474 405 452 c 128,-1,137
 405 430 405 430 390 415 c 128,-1,138
 375 400 375 400 352 400 c 1,139,-1
 352 400 l 1,126,127
102 469 m 1,140,141
 106 480 106 480 116 489 c 256,142,143
 125 498 125 498 136 503 c 1,144,-1
 136 503 l 1,145,146
 126 507 126 507 116 515 c 256,147,148
 107 524 107 524 102 536 c 1,149,-1
 102 536 l 1,150,151
 98 524 98 524 90 515 c 256,152,153
 81 506 81 506 69 503 c 1,154,-1
 69 503 l 1,155,156
 81 499 81 499 90 489 c 256,157,158
 99 480 99 480 102 469 c 1,159,-1
 102 469 l 1,140,141
102 536 m 1,160,-1
 102 536 l 1,161,-1
 102 536 l 1,162,-1
 102 536 l 1,163,-1
 102 536 l 1,160,-1
52 400 m 1,164,165
 30 400 30 400 15 415 c 128,-1,166
 0 430 0 430 0 452 c 128,-1,167
 0 474 0 474 15 489 c 0,168,169
 24 498 24 498 36 503 c 1,170,-1
 36 503 l 1,171,172
 24 507 24 507 15 515 c 0,173,174
 0 530 0 530 0 552 c 256,175,176
 0 574 0 574 15 589 c 128,-1,177
 30 604 30 604 52 605 c 0,178,179
 74 605 74 605 90 589 c 0,180,181
 99 579 99 579 102 568 c 1,182,-1
 102 568 l 1,183,184
 106 580 106 580 116 589 c 0,185,186
 131 604 131 604 153 605 c 0,187,188
 175 605 175 605 190 589 c 256,189,190
 204.0625 574.9375 204.0625 574.9375 204.0625 554.72265625 c 0,191,192
 204.0625 530.066964286 204.0625 530.066964286 190 515 c 0,193,194
 181 506 181 506 169 503 c 1,195,-1
 169 503 l 1,196,197
 180 499 180 499 190 489 c 0,198,199
 204.0625 474.9375 204.0625 474.9375 204.0625 454.72265625 c 0,200,201
 204.0625 430.066964286 204.0625 430.066964286 190 415 c 256,202,203
 175 400 175 400 153 400 c 0,204,205
 132 400 132 400 116 415 c 0,206,207
 107 424 107 424 102 436 c 1,208,-1
 102 436 l 1,209,210
 98 425 98 425 90 415 c 0,211,212
 74 400 74 400 52 400 c 1,213,-1
 52 400 l 1,164,165
452 500 m 1,214,215
 430 500 430 500 415 515 c 256,216,217
 400 530 400 530 400 552 c 256,218,219
 400 574 400 574 415 589 c 256,220,221
 430 604 430 604 452 605 c 0,222,223
 474 605 474 605 489 589 c 256,224,225
 504 574 504 574 505 552 c 256,226,227
 505 530 505 530 489 515 c 256,228,229
 474 500 474 500 452 500 c 1,230,-1
 452 500 l 1,214,215
EndSplineSet
Validated: 524293
EndChar

StartChar: ampersand
Encoding: 38 38 6
Width: 599
VWidth: 699
Flags: W
LayerCount: 2
Fore
SplineSet
202 36 m 1,0,1
 202 36 l 1,2,-1
 202 36 l 1,3,4
 202 36 l 1,5,-1
 202 36 l 1,0,1
153 0 m 1,6,7
 132 0 132 0 116 15 c 0,8,9
 101 30 101 30 100 52 c 0,10,11
 100 74 100 74 116 90 c 256,12,13
 131 105 131 105 153 105 c 128,-1,14
 175 105 175 105 190 90 c 0,15,16
 199 81 199 81 202 69 c 1,17,-1
 202 69 l 1,18,19
 206 81 206 81 215 90 c 0,20,21
 230 105 230 105 252 105 c 128,-1,22
 274 105 274 105 290 90 c 256,23,24
 305 74 305 74 305 52 c 128,-1,25
 305 30 305 30 290 15 c 128,-1,26
 275 0 275 0 252 0 c 0,27,28
 230 0 230 0 215 15 c 0,29,30
 206 24 206 24 202 36 c 1,31,32
 198 24 198 24 190 15 c 0,33,34
 175 0 175 0 153 0 c 1,35,-1
 153 0 l 1,6,7
452 0 m 1,36,37
 430 0 430 0 415 15 c 128,-1,38
 400 30 400 30 400 52 c 128,-1,39
 400 74 400 74 415 90 c 256,40,41
 430 105 430 105 452 105 c 128,-1,42
 474 105 474 105 489 90 c 256,43,44
 504 74 504 74 505 52 c 0,45,46
 505 30 505 30 489 15 c 0,47,48
 474 0 474 0 452 0 c 1,49,-1
 452 0 l 1,36,37
352 100 m 1,50,51
 330 100 330 100 315 116 c 256,52,53
 300 131 300 131 300 153 c 128,-1,54
 300 175 300 175 315 190 c 256,55,56
 329.0625 204.0625 329.0625 204.0625 349.27734375 204.0625 c 0,57,58
 350.625 204.0625 350.625 204.0625 352 204 c 0,59,60
 374 204 374 204 390 190 c 0,61,62
 405 175 405 175 405 153 c 0,63,64
 405 132 405 132 390 116 c 0,65,66
 375 101 375 101 352 100 c 1,67,-1
 352 100 l 1,50,51
52 100 m 1,68,69
 30 100 30 100 15 116 c 0,70,71
 0 131 0 131 0 153 c 128,-1,72
 0 175 0 175 15 190 c 0,73,74
 24 199 24 199 36 202 c 1,75,-1
 36 202 l 1,76,77
 24 206 24 206 15 215 c 0,78,79
 0 230 0 230 0 252 c 128,-1,80
 0 274 0 274 15 290 c 0,81,82
 30 305 30 305 52 305 c 128,-1,83
 74 305 74 305 90 290 c 256,84,85
 105 275 105 275 105 252 c 0,86,87
 105 230 105 230 90 215 c 0,88,89
 81 206 81 206 69 202 c 1,90,-1
 69 202 l 1,91,92
 81 198 81 198 90 190 c 0,93,94
 105 175 105 175 105 153 c 0,95,96
 105 132 105 132 90 116 c 256,97,98
 74 101 74 101 52 100 c 1,99,-1
 52 100 l 1,68,69
252 200 m 1,100,101
 230 200 230 200 215 215 c 128,-1,102
 200 230 200 230 200 252 c 128,-1,103
 200 274 200 274 215 290 c 0,104,105
 230 305 230 305 252 305 c 128,-1,106
 274 305 274 305 290 290 c 256,107,108
 305 275 305 275 305 252 c 0,109,110
 305 230 305 230 290 215 c 128,-1,111
 275 200 275 200 252 200 c 1,112,-1
 252 200 l 1,100,101
452 200 m 1,113,114
 430 200 430 200 415 215 c 128,-1,115
 400 230 400 230 400 252 c 128,-1,116
 400 274 400 274 415 290 c 256,117,118
 430 305 430 305 452 305 c 128,-1,119
 474 305 474 305 489 290 c 256,120,121
 504 275 504 275 505 252 c 0,122,123
 505 230 505 230 489 215 c 0,124,125
 474 200 474 200 452 200 c 1,126,-1
 452 200 l 1,113,114
153 300 m 1,127,128
 132 300 132 300 116 315 c 256,129,130
 101 330 101 330 100 352 c 0,131,132
 100 374 100 374 116 390 c 0,133,134
 131 405 131 405 153 405 c 128,-1,135
 175 405 175 405 190 390 c 0,136,137
 204.0625 375.9375 204.0625 375.9375 204.0625 354.84375 c 0,138,139
 204.0625 330.066964286 204.0625 330.066964286 190 315 c 256,140,141
 175 300 175 300 153 300 c 1,142,-1
 153 300 l 1,127,128
52 400 m 1,143,144
 30 400 30 400 15 415 c 128,-1,145
 0 430 0 430 0 452 c 128,-1,146
 0 474 0 474 15 489 c 0,147,148
 24 498 24 498 36 503 c 1,149,-1
 36 503 l 1,150,151
 24 507 24 507 15 515 c 0,152,153
 0 530 0 530 0 552 c 256,154,155
 0 574 0 574 15 589 c 128,-1,156
 30 604 30 604 52 605 c 0,157,158
 74 605 74 605 90 589 c 256,159,160
 105 574 105 574 105 552 c 256,161,162
 105 530 105 530 90 515 c 0,163,164
 81 506 81 506 69 503 c 1,165,-1
 69 503 l 1,166,167
 81 499 81 499 90 489 c 0,168,169
 105 474 105 474 105 452 c 128,-1,170
 105 430 105 430 90 415 c 256,171,172
 74 400 74 400 52 400 c 1,173,-1
 52 400 l 1,143,144
252 400 m 1,174,175
 230 400 230 400 215 415 c 128,-1,176
 200 430 200 430 200 452 c 128,-1,177
 200 474 200 474 215 489 c 0,178,179
 224 498 224 498 236 503 c 1,180,-1
 236 503 l 1,181,182
 224 507 224 507 215 515 c 0,183,184
 200 530 200 530 200 552 c 256,185,186
 200 574 200 574 215 589 c 128,-1,187
 230 604 230 604 252 605 c 0,188,189
 274 605 274 605 290 589 c 256,190,191
 305 574 305 574 305 552 c 256,192,193
 305 530 305 530 290 515 c 0,194,195
 281 506 281 506 269 503 c 1,196,-1
 269 503 l 1,197,198
 280 499 280 499 290 489 c 0,199,200
 305 474 305 474 305 452 c 128,-1,201
 305 430 305 430 290 415 c 256,202,203
 275 400 275 400 252 400 c 1,204,-1
 252 400 l 1,174,175
153 600 m 1,205,206
 132 600 132 600 116 615 c 256,207,208
 101 630 101 630 100 652 c 0,209,210
 100 674 100 674 116 690 c 256,211,212
 131 705 131 705 153 705 c 0,213,214
 154.294117647 705.058823529 154.294117647 705.058823529 155.564013841 705.058823529 c 0,215,216
 175.882352941 705.058823529 175.882352941 705.058823529 190 690 c 256,217,218
 204.0625 675.9375 204.0625 675.9375 204.0625 654.84375 c 0,219,220
 204.0625 630.066964286 204.0625 630.066964286 190 615 c 256,221,222
 175 600 175 600 153 600 c 1,223,-1
 153 600 l 1,205,206
EndSplineSet
Validated: 524293
EndChar

StartChar: quotesingle
Encoding: 39 39 7
Width: 599
VWidth: 699
Flags: W
LayerCount: 2
Fore
SplineSet
153 400 m 1,0,1
 132 400 132 400 116 415 c 256,2,3
 101 430 101 430 100 452 c 0,4,5
 100 474 100 474 116 489 c 256,6,7
 131 504 131 504 153 505 c 0,8,9
 175 505 175 505 190 489 c 256,10,11
 204.0625 474.9375 204.0625 474.9375 204.0625 454.72265625 c 0,12,13
 204.0625 430.066964286 204.0625 430.066964286 190 415 c 256,14,15
 175 400 175 400 153 400 c 1,16,-1
 153 400 l 1,0,1
252 500 m 1,17,18
 230 500 230 500 215 515 c 128,-1,19
 200 530 200 530 200 552 c 256,20,21
 200 574 200 574 215 589 c 0,22,23
 224 598 224 598 236 602 c 1,24,-1
 236 602 l 1,25,26
 224 606 224 606 215 615 c 0,27,28
 200 630 200 630 200 652 c 128,-1,29
 200 674 200 674 215 690 c 0,30,31
 230 705 230 705 252 705 c 0,32,33
 253.294117647 705.058823529 253.294117647 705.058823529 254.567474048 705.058823529 c 0,34,35
 274.941176471 705.058823529 274.941176471 705.058823529 290 690 c 256,36,37
 305 675 305 675 305 652 c 0,38,39
 305 630 305 630 290 615 c 0,40,41
 281 606 281 606 269 602 c 1,42,-1
 269 602 l 1,43,44
 280 598 280 598 290 589 c 0,45,46
 305 574 305 574 305 552 c 256,47,48
 305 530 305 530 290 515 c 256,49,50
 275 500 275 500 252 500 c 1,51,-1
 252 500 l 1,17,18
EndSplineSet
Validated: 524293
EndChar

StartChar: parenleft
Encoding: 40 40 8
Width: 599
VWidth: 699
Flags: W
LayerCount: 2
Fore
SplineSet
352 0 m 1,0,1
 330 0 330 0 315 15 c 128,-1,2
 300 30 300 30 300 52 c 128,-1,3
 300 74 300 74 315 90 c 256,4,5
 330 105 330 105 352 105 c 128,-1,6
 374 105 374 105 390 90 c 0,7,8
 405 74 405 74 405 52 c 128,-1,9
 405 30 405 30 390 15 c 128,-1,10
 375 0 375 0 352 0 c 1,11,-1
 352 0 l 1,0,1
252 100 m 1,12,13
 230 100 230 100 215 116 c 0,14,15
 200 131 200 131 200 153 c 128,-1,16
 200 175 200 175 215 190 c 0,17,18
 229.0625 204.0625 229.0625 204.0625 249.27734375 204.0625 c 0,19,20
 250.625 204.0625 250.625 204.0625 252 204 c 0,21,22
 274 204 274 204 290 190 c 256,23,24
 305 175 305 175 305 153 c 0,25,26
 305 132 305 132 290 116 c 256,27,28
 275 101 275 101 252 100 c 1,29,-1
 252 100 l 1,12,13
153 200 m 1,30,31
 132 200 132 200 116 215 c 0,32,33
 101 230 101 230 100 252 c 0,34,35
 100 274 100 274 116 290 c 0,36,37
 125 299 125 299 136 302 c 1,38,-1
 136 302 l 1,39,40
 126 306 126 306 116 315 c 0,41,42
 101 330 101 330 100 352 c 0,43,44
 100 374 100 374 116 390 c 0,45,46
 125 398 125 398 136 402 c 1,47,-1
 136 402 l 1,48,49
 126 406 126 406 116 415 c 0,50,51
 101 430 101 430 100 452 c 0,52,53
 100 474 100 474 116 489 c 256,54,55
 131 504 131 504 153 505 c 0,56,57
 175 505 175 505 190 489 c 256,58,59
 204.0625 474.9375 204.0625 474.9375 204.0625 454.72265625 c 0,60,61
 204.0625 430.066964286 204.0625 430.066964286 190 415 c 0,62,63
 181 406 181 406 169 402 c 1,64,-1
 169 402 l 1,65,66
 180 398 180 398 190 390 c 0,67,68
 204.0625 375.9375 204.0625 375.9375 204.0625 354.84375 c 0,69,70
 204.0625 330.066964286 204.0625 330.066964286 190 315 c 0,71,72
 181 306 181 306 169 302 c 1,73,-1
 169 302 l 1,74,75
 180 298 180 298 190 290 c 0,76,77
 204.0625 275.9375 204.0625 275.9375 204.0625 254.84375 c 0,78,79
 204.0625 230.066964286 204.0625 230.066964286 190 215 c 0,80,81
 175 200 175 200 153 200 c 1,82,-1
 153 200 l 1,30,31
252 500 m 1,83,84
 230 500 230 500 215 515 c 128,-1,85
 200 530 200 530 200 552 c 256,86,87
 200 574 200 574 215 589 c 128,-1,88
 230 604 230 604 252 605 c 0,89,90
 274 605 274 605 290 589 c 256,91,92
 305 574 305 574 305 552 c 256,93,94
 305 530 305 530 290 515 c 256,95,96
 275 500 275 500 252 500 c 1,97,-1
 252 500 l 1,83,84
352 600 m 1,98,99
 330 600 330 600 315 615 c 256,100,101
 300 630 300 630 300 652 c 128,-1,102
 300 674 300 674 315 690 c 256,103,104
 330 705 330 705 352 705 c 0,105,106
 353.294117647 705.058823529 353.294117647 705.058823529 354.567474048 705.058823529 c 0,107,108
 374.941176471 705.058823529 374.941176471 705.058823529 390 690 c 128,-1,109
 405 675 405 675 405 652 c 0,110,111
 405 630 405 630 390 615 c 128,-1,112
 375 600 375 600 352 600 c 1,113,-1
 352 600 l 1,98,99
EndSplineSet
Validated: 524293
EndChar

StartChar: parenright
Encoding: 41 41 9
Width: 599
VWidth: 699
Flags: W
LayerCount: 2
Fore
SplineSet
153 0 m 1,0,1
 132 0 132 0 116 15 c 0,2,3
 101 30 101 30 100 52 c 0,4,5
 100 74 100 74 116 90 c 256,6,7
 131 105 131 105 153 105 c 128,-1,8
 175 105 175 105 190 90 c 256,9,10
 204.0625 75 204.0625 75 204.0625 54.7265625 c 0,11,12
 204.0625 30.0669642857 204.0625 30.0669642857 190 15 c 0,13,14
 175 0 175 0 153 0 c 1,15,-1
 153 0 l 1,0,1
252 100 m 1,16,17
 230 100 230 100 215 116 c 0,18,19
 200 131 200 131 200 153 c 128,-1,20
 200 175 200 175 215 190 c 0,21,22
 229.0625 204.0625 229.0625 204.0625 249.27734375 204.0625 c 0,23,24
 250.625 204.0625 250.625 204.0625 252 204 c 0,25,26
 274 204 274 204 290 190 c 256,27,28
 305 175 305 175 305 153 c 0,29,30
 305 132 305 132 290 116 c 256,31,32
 275 101 275 101 252 100 c 1,33,-1
 252 100 l 1,16,17
352 200 m 1,34,35
 330 200 330 200 315 215 c 128,-1,36
 300 230 300 230 300 252 c 128,-1,37
 300 274 300 274 315 290 c 0,38,39
 324 299 324 299 335 302 c 1,40,-1
 335 302 l 1,41,42
 324 306 324 306 315 315 c 0,43,44
 300 330 300 330 300 352 c 128,-1,45
 300 374 300 374 315 390 c 0,46,47
 324 398 324 398 335 402 c 1,48,-1
 335 402 l 1,49,50
 324 406 324 406 315 415 c 0,51,52
 300 430 300 430 300 452 c 128,-1,53
 300 474 300 474 315 489 c 256,54,55
 330 504 330 504 352 505 c 0,56,57
 374 505 374 505 390 489 c 0,58,59
 405 474 405 474 405 452 c 128,-1,60
 405 430 405 430 390 415 c 0,61,62
 381 406 381 406 369 402 c 1,63,-1
 369 402 l 1,64,65
 381 398 381 398 390 390 c 0,66,67
 405 375 405 375 405 352 c 0,68,69
 405 330 405 330 390 315 c 0,70,71
 381 306 381 306 369 302 c 1,72,-1
 369 302 l 1,73,74
 381 298 381 298 390 290 c 0,75,76
 405 275 405 275 405 252 c 0,77,78
 405 230 405 230 390 215 c 128,-1,79
 375 200 375 200 352 200 c 1,80,-1
 352 200 l 1,34,35
252 500 m 1,81,82
 230 500 230 500 215 515 c 128,-1,83
 200 530 200 530 200 552 c 256,84,85
 200 574 200 574 215 589 c 128,-1,86
 230 604 230 604 252 605 c 0,87,88
 274 605 274 605 290 589 c 256,89,90
 305 574 305 574 305 552 c 256,91,92
 305 530 305 530 290 515 c 256,93,94
 275 500 275 500 252 500 c 1,95,-1
 252 500 l 1,81,82
153 600 m 1,96,97
 132 600 132 600 116 615 c 256,98,99
 101 630 101 630 100 652 c 0,100,101
 100 674 100 674 116 690 c 256,102,103
 131 705 131 705 153 705 c 0,104,105
 154.294117647 705.058823529 154.294117647 705.058823529 155.564013841 705.058823529 c 0,106,107
 175.882352941 705.058823529 175.882352941 705.058823529 190 690 c 256,108,109
 204.0625 675.9375 204.0625 675.9375 204.0625 654.84375 c 0,110,111
 204.0625 630.066964286 204.0625 630.066964286 190 615 c 256,112,113
 175 600 175 600 153 600 c 1,114,-1
 153 600 l 1,96,97
EndSplineSet
Validated: 524293
EndChar

StartChar: asterisk
Encoding: 42 42 10
Width: 599
VWidth: 699
Flags: W
LayerCount: 2
Fore
SplineSet
52 100 m 1,0,1
 30 100 30 100 15 116 c 0,2,3
 0 131 0 131 0 153 c 128,-1,4
 0 175 0 175 15 190 c 0,5,6
 29.0625 204.0625 29.0625 204.0625 49.27734375 204.0625 c 0,7,8
 50.625 204.0625 50.625 204.0625 52 204 c 0,9,10
 74 204 74 204 90 190 c 256,11,12
 105 175 105 175 105 153 c 0,13,14
 105 132 105 132 90 116 c 256,15,16
 74 101 74 101 52 100 c 1,17,-1
 52 100 l 1,0,1
452 100 m 1,18,19
 430 100 430 100 415 116 c 256,20,21
 400 131 400 131 400 153 c 128,-1,22
 400 175 400 175 415 190 c 256,23,24
 429.0625 204.0625 429.0625 204.0625 449.27734375 204.0625 c 0,25,26
 450.625 204.0625 450.625 204.0625 452 204 c 0,27,28
 474 204 474 204 489 190 c 256,29,30
 504 175 504 175 505 153 c 0,31,32
 505 132 505 132 489 116 c 256,33,34
 474 101 474 101 452 100 c 1,35,-1
 452 100 l 1,18,19
202 236 m 1,36,-1
 202 236 l 1,37,-1
 202 236 l 1,38,-1
 202 236 l 1,39,-1
 202 236 l 1,36,-1
202 436 m 1,40,41
 202 436 l 1,42,-1
 202 436 l 1,43,44
 202 436 l 1,45,-1
 202 436 l 1,40,41
52 500 m 1,46,47
 30 500 30 500 15 515 c 128,-1,48
 0 530 0 530 0 552 c 256,49,50
 0 574 0 574 15 589 c 128,-1,51
 30 604 30 604 52 605 c 0,52,53
 74 605 74 605 90 589 c 256,54,55
 105 574 105 574 105 552 c 256,56,57
 105 530 105 530 90 515 c 256,58,59
 74 500 74 500 52 500 c 1,60,-1
 52 500 l 1,46,47
452 500 m 1,61,62
 430 500 430 500 415 515 c 256,63,64
 400 530 400 530 400 552 c 256,65,66
 400 574 400 574 415 589 c 256,67,68
 430 604 430 604 452 605 c 0,69,70
 474 605 474 605 489 589 c 256,71,72
 504 574 504 574 505 552 c 256,73,74
 505 530 505 530 489 515 c 256,75,76
 474 500 474 500 452 500 c 1,77,-1
 452 500 l 1,61,62
252 0 m 1,78,79
 230 0 230 0 215 15 c 128,-1,80
 200 30 200 30 200 52 c 128,-1,81
 200 74 200 74 215 90 c 0,82,83
 224 99 224 99 236 102 c 1,84,-1
 236 102 l 1,85,86
 224 106 224 106 215 116 c 0,87,88
 200 131 200 131 200 153 c 128,-1,89
 200 175 200 175 215 190 c 0,90,91
 224 199 224 199 236 202 c 1,92,-1
 236 202 l 1,93,94
 224 206 224 206 215 215 c 128,-1,95
 206 224 206 224 202 236 c 1,96,97
 198 224 198 224 190 215 c 0,98,99
 175 200 175 200 153 200 c 0,100,101
 132 200 132 200 116 215 c 0,102,103
 101 230 101 230 100 252 c 0,104,105
 100 274 100 274 116 290 c 256,106,107
 131 305 131 305 153 305 c 128,-1,108
 175 305 175 305 190 290 c 0,109,110
 199 281 199 281 202 269 c 1,111,-1
 202 269 l 1,112,113
 206 280 206 280 215 290 c 0,114,115
 224 299 224 299 236 302 c 1,116,-1
 236 302 l 1,117,118
 224 306 224 306 215 315 c 0,119,120
 200 330 200 330 200 352 c 128,-1,121
 200 374 200 374 215 390 c 0,122,123
 224 398 224 398 236 402 c 1,124,-1
 236 402 l 1,125,126
 224 406 224 406 215 415 c 128,-1,127
 206 424 206 424 202 436 c 1,128,129
 198 425 198 425 190 415 c 0,130,131
 175 400 175 400 153 400 c 0,132,133
 132 400 132 400 116 415 c 256,134,135
 101 430 101 430 100 452 c 0,136,137
 100 474 100 474 116 489 c 256,138,139
 131 504 131 504 153 505 c 0,140,141
 175 505 175 505 190 489 c 0,142,143
 199 480 199 480 202 469 c 1,144,-1
 202 469 l 1,145,146
 206 480 206 480 215 489 c 128,-1,147
 224 498 224 498 236 503 c 1,148,-1
 236 503 l 1,149,150
 224 507 224 507 215 515 c 0,151,152
 200 530 200 530 200 552 c 256,153,154
 200 574 200 574 215 589 c 0,155,156
 224 598 224 598 236 602 c 1,157,-1
 236 602 l 1,158,159
 224 606 224 606 215 615 c 0,160,161
 200 630 200 630 200 652 c 128,-1,162
 200 674 200 674 215 690 c 0,163,164
 230 705 230 705 252 705 c 0,165,166
 253.294117647 705.058823529 253.294117647 705.058823529 254.567474048 705.058823529 c 0,167,168
 274.941176471 705.058823529 274.941176471 705.058823529 290 690 c 256,169,170
 305 675 305 675 305 652 c 0,171,172
 305 630 305 630 290 615 c 0,173,174
 281 606 281 606 269 602 c 1,175,-1
 269 602 l 1,176,177
 280 598 280 598 290 589 c 0,178,179
 305 574 305 574 305 552 c 256,180,181
 305 530 305 530 290 515 c 0,182,183
 281 506 281 506 269 503 c 1,184,-1
 269 503 l 1,185,186
 280 499 280 499 290 489 c 256,187,188
 299 480 299 480 302 469 c 1,189,-1
 302 469 l 1,190,191
 306 480 306 480 315 489 c 0,192,193
 330 504 330 504 352 505 c 0,194,195
 374 505 374 505 390 489 c 0,196,197
 405 474 405 474 405 452 c 128,-1,198
 405 430 405 430 390 415 c 128,-1,199
 375 400 375 400 352 400 c 0,200,201
 330 400 330 400 315 415 c 0,202,203
 306 424 306 424 302 436 c 1,204,205
 298 425 298 425 290 415 c 256,206,207
 281 406 281 406 269 402 c 1,208,-1
 269 402 l 1,209,210
 280 398 280 398 290 390 c 0,211,212
 305 375 305 375 305 352 c 0,213,214
 305 330 305 330 290 315 c 0,215,216
 281 306 281 306 269 302 c 1,217,-1
 269 302 l 1,218,219
 280 298 280 298 290 290 c 256,220,221
 299 281 299 281 302 269 c 1,222,-1
 302 269 l 1,223,224
 306 280 306 280 315 290 c 0,225,226
 330 305 330 305 352 305 c 128,-1,227
 374 305 374 305 390 290 c 0,228,229
 405 275 405 275 405 252 c 0,230,231
 405 230 405 230 390 215 c 128,-1,232
 375 200 375 200 352 200 c 0,233,234
 330 200 330 200 315 215 c 0,235,236
 306 224 306 224 302 236 c 1,237,238
 298 224 298 224 290 215 c 0,239,240
 281 206 281 206 269 202 c 1,241,-1
 269 202 l 1,242,243
 280 198 280 198 290 190 c 0,244,245
 305 175 305 175 305 153 c 0,246,247
 305 132 305 132 290 116 c 0,248,249
 281 107 281 107 269 102 c 1,250,-1
 269 102 l 1,251,252
 280 98 280 98 290 90 c 0,253,254
 305 74 305 74 305 52 c 128,-1,255
 305 30 305 30 290 15 c 128,-1,256
 275 0 275 0 252 0 c 1,257,-1
 252 0 l 1,78,79
EndSplineSet
Validated: 524293
EndChar

StartChar: plus
Encoding: 43 43 11
Width: 599
VWidth: 699
Flags: W
LayerCount: 2
Fore
SplineSet
102 335 m 1,0,1
 102 335 l 1,2,-1
 102 335 l 1,3,4
 102 335 l 1,5,-1
 102 335 l 1,0,1
302 335 m 1,6,7
 302 335 l 1,8,-1
 302 335 l 1,9,10
 302 335 l 1,11,-1
 302 335 l 1,6,7
252 100 m 1,12,13
 230 100 230 100 215 116 c 0,14,15
 200 131 200 131 200 153 c 0,16,17
 200 175 200 175 215 190 c 0,18,19
 224 199 224 199 236 202 c 1,20,-1
 236 202 l 1,21,22
 224 206 224 206 215 215 c 0,23,24
 200 230 200 230 200 252 c 0,25,26
 200 274 200 274 215 290 c 0,27,28
 224 299 224 299 236 302 c 1,29,-1
 236 302 l 1,30,31
 224 306 224 306 215 315 c 0,32,33
 206 324 206 324 202 335 c 1,34,35
 198 324 198 324 190 315 c 0,36,37
 175 300 175 300 153 300 c 0,38,39
 132 300 132 300 116 315 c 0,40,41
 107 324 107 324 102 335 c 1,42,-1
 102 335 l 1,43,44
 98 324 98 324 90 315 c 0,45,46
 74 300 74 300 52 300 c 0,47,48
 30 300 30 300 15 315 c 0,49,50
 0 330 0 330 0 352 c 0,51,52
 0 374 0 374 15 390 c 0,53,54
 30 405 30 405 52 405 c 0,55,56
 74 405 74 405 90 390 c 0,57,58
 99 381 99 381 102 369 c 1,59,-1
 102 369 l 1,60,61
 106 381 106 381 116 390 c 0,62,63
 131 405 131 405 153 405 c 0,64,65
 175 405 175 405 190 390 c 0,66,67
 199 381 199 381 202 369 c 1,68,-1
 202 369 l 1,69,70
 206 381 206 381 215 390 c 0,71,72
 224 398 224 398 236 402 c 1,73,-1
 236 402 l 1,74,75
 224 406 224 406 215 415 c 0,76,77
 200 430 200 430 200 452 c 0,78,79
 200 474 200 474 215 489 c 0,80,81
 224 498 224 498 236 503 c 1,82,-1
 236 503 l 1,83,84
 224 507 224 507 215 515 c 0,85,86
 200 530 200 530 200 552 c 256,87,88
 200 574 200 574 215 589 c 0,89,90
 230 604 230 604 252 605 c 0,91,92
 274 605 274 605 290 589 c 256,93,94
 305 574 305 574 305 552 c 256,95,96
 305 530 305 530 290 515 c 0,97,98
 281 506 281 506 269 503 c 1,99,-1
 269 503 l 1,100,101
 280 499 280 499 290 489 c 0,102,103
 305 474 305 474 305 452 c 0,104,105
 305 430 305 430 290 415 c 0,106,107
 281 406 281 406 269 402 c 1,108,-1
 269 402 l 1,109,110
 280 398 280 398 290 390 c 0,111,112
 299 381 299 381 302 369 c 1,113,-1
 302 369 l 1,114,115
 306 381 306 381 315 390 c 0,116,117
 330 405 330 405 352 405 c 0,118,119
 374 405 374 405 390 390 c 0,120,121
 398 381 398 381 402 369 c 1,122,-1
 402 369 l 1,123,124
 406 381 406 381 415 390 c 0,125,126
 430 405 430 405 452 405 c 0,127,128
 474 405 474 405 489 390 c 0,129,130
 504 375 504 375 505 352 c 0,131,132
 505 330 505 330 489 315 c 256,133,134
 474 300 474 300 452 300 c 0,135,136
 430 300 430 300 415 315 c 0,137,138
 406 324 406 324 402 335 c 1,139,140
 398 324 398 324 390 315 c 0,141,142
 375 300 375 300 352 300 c 0,143,144
 330 300 330 300 315 315 c 0,145,146
 306 324 306 324 302 335 c 1,147,148
 298 324 298 324 290 315 c 256,149,150
 281 306 281 306 269 302 c 1,151,-1
 269 302 l 1,152,153
 280 298 280 298 290 290 c 0,154,155
 305 275 305 275 305 252 c 0,156,157
 305 230 305 230 290 215 c 0,158,159
 281 206 281 206 269 202 c 1,160,-1
 269 202 l 1,161,162
 280 198 280 198 290 190 c 0,163,164
 305 175 305 175 305 153 c 0,165,166
 305 132 305 132 290 116 c 256,167,168
 275 101 275 101 252 100 c 1,169,-1
 252 100 l 1,12,13
EndSplineSet
Validated: 5
EndChar

StartChar: comma
Encoding: 44 44 12
Width: 599
VWidth: 699
Flags: W
LayerCount: 2
Fore
SplineSet
153 0 m 1,0,1
 132 0 132 0 116 15 c 0,2,3
 101 30 101 30 100 52 c 0,4,5
 100 74 100 74 116 90 c 256,6,7
 131 105 131 105 153 105 c 128,-1,8
 175 105 175 105 190 90 c 256,9,10
 204.0625 75 204.0625 75 204.0625 54.7265625 c 0,11,12
 204.0625 30.0669642857 204.0625 30.0669642857 190 15 c 0,13,14
 175 0 175 0 153 0 c 1,15,-1
 153 0 l 1,0,1
252 100 m 1,16,17
 230 100 230 100 215 116 c 0,18,19
 200 131 200 131 200 153 c 128,-1,20
 200 175 200 175 215 190 c 0,21,22
 224 199 224 199 236 202 c 1,23,-1
 236 202 l 1,24,25
 224 206 224 206 215 215 c 0,26,27
 200 230 200 230 200 252 c 128,-1,28
 200 274 200 274 215 290 c 0,29,30
 230 305 230 305 252 305 c 128,-1,31
 274 305 274 305 290 290 c 256,32,33
 305 275 305 275 305 252 c 0,34,35
 305 230 305 230 290 215 c 0,36,37
 281 206 281 206 269 202 c 1,38,-1
 269 202 l 1,39,40
 280 198 280 198 290 190 c 0,41,42
 305 175 305 175 305 153 c 0,43,44
 305 132 305 132 290 116 c 256,45,46
 275 101 275 101 252 100 c 1,47,-1
 252 100 l 1,16,17
EndSplineSet
Validated: 524293
EndChar

StartChar: hyphen
Encoding: 45 45 13
Width: 599
VWidth: 699
Flags: W
LayerCount: 2
Fore
SplineSet
102 335 m 1,0,1
 102 335 l 1,2,-1
 102 335 l 1,3,4
 102 335 l 1,5,-1
 102 335 l 1,0,1
302 335 m 1,6,7
 302 335 l 1,8,-1
 302 335 l 1,9,10
 302 335 l 1,11,-1
 302 335 l 1,6,7
52 300 m 1,12,13
 30 300 30 300 15 315 c 0,14,15
 0 330 0 330 0 352 c 0,16,17
 0 374 0 374 15 390 c 0,18,19
 30 405 30 405 52 405 c 0,20,21
 74 405 74 405 90 390 c 0,22,23
 99 381 99 381 102 369 c 1,24,-1
 102 369 l 1,25,26
 106 381 106 381 116 390 c 0,27,28
 131 405 131 405 153 405 c 0,29,30
 175 405 175 405 190 390 c 0,31,32
 199 381 199 381 202 369 c 1,33,-1
 202 369 l 1,34,35
 206 381 206 381 215 390 c 0,36,37
 230 405 230 405 252 405 c 0,38,39
 274 405 274 405 290 390 c 0,40,41
 299 381 299 381 302 369 c 1,42,-1
 302 369 l 1,43,44
 306 381 306 381 315 390 c 0,45,46
 330 405 330 405 352 405 c 0,47,48
 374 405 374 405 390 390 c 0,49,50
 398 381 398 381 402 369 c 1,51,-1
 402 369 l 1,52,53
 406 381 406 381 415 390 c 0,54,55
 430 405 430 405 452 405 c 0,56,57
 474 405 474 405 489 390 c 0,58,59
 504 375 504 375 505 352 c 0,60,61
 505 330 505 330 489 315 c 256,62,63
 474 300 474 300 452 300 c 0,64,65
 430 300 430 300 415 315 c 0,66,67
 406 324 406 324 402 335 c 1,68,69
 398 324 398 324 390 315 c 0,70,71
 375 300 375 300 352 300 c 0,72,73
 330 300 330 300 315 315 c 0,74,75
 306 324 306 324 302 335 c 1,76,77
 298 324 298 324 290 315 c 0,78,79
 275 300 275 300 252 300 c 0,80,81
 230 300 230 300 215 315 c 0,82,83
 206 324 206 324 202 335 c 1,84,85
 198 324 198 324 190 315 c 0,86,87
 175 300 175 300 153 300 c 0,88,89
 132 300 132 300 116 315 c 0,90,91
 107 324 107 324 102 335 c 1,92,-1
 102 335 l 1,93,94
 98 324 98 324 90 315 c 0,95,96
 74 300 74 300 52 300 c 1,97,-1
 52 300 l 1,12,13
EndSplineSet
Validated: 5
EndChar

StartChar: period
Encoding: 46 46 14
Width: 599
VWidth: 699
Flags: W
LayerCount: 2
Fore
SplineSet
202 36 m 1,0,1
 202 36 l 1,2,-1
 202 36 l 1,3,4
 202 36 l 1,5,-1
 202 36 l 1,0,1
202 69 m 1,6,7
 206 81 206 81 215 90 c 128,-1,8
 224 99 224 99 236 102 c 1,9,-1
 236 102 l 1,10,11
 224 106 224 106 215 116 c 0,12,13
 206 125 206 125 202 136 c 1,14,-1
 202 136 l 1,15,16
 198 126 198 126 190 116 c 256,17,18
 181 107 181 107 169 102 c 1,19,-1
 169 102 l 1,20,21
 180 98 180 98 190 90 c 256,22,23
 199 81 199 81 202 69 c 1,24,-1
 202 69 l 1,6,7
202 136 m 1,25,-1
 202 136 l 1,26,-1
 202 136 l 1,27,-1
 202 136 l 1,28,-1
 202 136 l 1,25,-1
153 0 m 1,29,30
 132 0 132 0 116 15 c 0,31,32
 101 30 101 30 100 52 c 0,33,34
 100 74 100 74 116 90 c 0,35,36
 125 99 125 99 136 102 c 1,37,-1
 136 102 l 1,38,39
 126 106 126 106 116 116 c 0,40,41
 101 131 101 131 100 153 c 0,42,43
 100 175 100 175 116 190 c 256,44,45
 130.0625 204.0625 130.0625 204.0625 150.27734375 204.0625 c 0,46,47
 151.625 204.0625 151.625 204.0625 153 204 c 0,48,49
 175 204 175 204 190 190 c 0,50,51
 199 181 199 181 202 169 c 1,52,-1
 202 169 l 1,53,54
 206 180 206 180 215 190 c 0,55,56
 229.0625 204.0625 229.0625 204.0625 249.27734375 204.0625 c 0,57,58
 250.625 204.0625 250.625 204.0625 252 204 c 0,59,60
 274 204 274 204 290 190 c 256,61,62
 305 175 305 175 305 153 c 0,63,64
 305 132 305 132 290 116 c 0,65,66
 281 107 281 107 269 102 c 1,67,-1
 269 102 l 1,68,69
 280 98 280 98 290 90 c 0,70,71
 305 74 305 74 305 52 c 128,-1,72
 305 30 305 30 290 15 c 128,-1,73
 275 0 275 0 252 0 c 0,74,75
 230 0 230 0 215 15 c 0,76,77
 206 24 206 24 202 36 c 1,78,-1
 202 36 l 1,79,80
 198 24 198 24 190 15 c 0,81,82
 175 0 175 0 153 0 c 1,83,-1
 153 0 l 1,29,30
EndSplineSet
Validated: 524293
EndChar

StartChar: slash
Encoding: 47 47 15
Width: 599
VWidth: 699
Flags: W
LayerCount: 2
Fore
SplineSet
52 100 m 1,0,1
 30 100 30 100 15 116 c 0,2,3
 0 131 0 131 0 153 c 128,-1,4
 0 175 0 175 15 190 c 0,5,6
 29.0625 204.0625 29.0625 204.0625 49.27734375 204.0625 c 0,7,8
 50.625 204.0625 50.625 204.0625 52 204 c 0,9,10
 74 204 74 204 90 190 c 256,11,12
 105 175 105 175 105 153 c 0,13,14
 105 132 105 132 90 116 c 256,15,16
 74 101 74 101 52 100 c 1,17,-1
 52 100 l 1,0,1
153 200 m 1,18,19
 132 200 132 200 116 215 c 0,20,21
 101 230 101 230 100 252 c 0,22,23
 100 274 100 274 116 290 c 256,24,25
 131 305 131 305 153 305 c 128,-1,26
 175 305 175 305 190 290 c 256,27,28
 204.0625 275.9375 204.0625 275.9375 204.0625 254.84375 c 0,29,30
 204.0625 230.066964286 204.0625 230.066964286 190 215 c 0,31,32
 175 200 175 200 153 200 c 1,33,-1
 153 200 l 1,18,19
252 300 m 1,34,35
 230 300 230 300 215 315 c 128,-1,36
 200 330 200 330 200 352 c 128,-1,37
 200 374 200 374 215 390 c 0,38,39
 230 405 230 405 252 405 c 128,-1,40
 274 405 274 405 290 390 c 0,41,42
 305 375 305 375 305 352 c 0,43,44
 305 330 305 330 290 315 c 256,45,46
 275 300 275 300 252 300 c 1,47,-1
 252 300 l 1,34,35
352 400 m 1,48,49
 330 400 330 400 315 415 c 256,50,51
 300 430 300 430 300 452 c 128,-1,52
 300 474 300 474 315 489 c 256,53,54
 330 504 330 504 352 505 c 0,55,56
 374 505 374 505 390 489 c 0,57,58
 405 474 405 474 405 452 c 128,-1,59
 405 430 405 430 390 415 c 128,-1,60
 375 400 375 400 352 400 c 1,61,-1
 352 400 l 1,48,49
452 500 m 1,62,63
 430 500 430 500 415 515 c 256,64,65
 400 530 400 530 400 552 c 256,66,67
 400 574 400 574 415 589 c 256,68,69
 430 604 430 604 452 605 c 0,70,71
 474 605 474 605 489 589 c 256,72,73
 504 574 504 574 505 552 c 256,74,75
 505 530 505 530 489 515 c 256,76,77
 474 500 474 500 452 500 c 1,78,-1
 452 500 l 1,62,63
EndSplineSet
Validated: 524293
EndChar

StartChar: zero
Encoding: 48 48 16
Width: 599
VWidth: 699
Flags: W
LayerCount: 2
Fore
SplineSet
202 36 m 1,0,1
 202 36 l 1,2,-1
 202 36 l 1,3,4
 202 36 l 1,5,-1
 202 36 l 1,0,1
153 0 m 1,6,7
 132 0 132 0 116 15 c 0,8,9
 101 30 101 30 100 52 c 0,10,11
 100 74 100 74 116 90 c 256,12,13
 131 105 131 105 153 105 c 128,-1,14
 175 105 175 105 190 90 c 0,15,16
 199 81 199 81 202 69 c 1,17,-1
 202 69 l 1,18,19
 206 81 206 81 215 90 c 0,20,21
 230 105 230 105 252 105 c 128,-1,22
 274 105 274 105 290 90 c 0,23,24
 299 81 299 81 302 69 c 1,25,-1
 302 69 l 1,26,27
 306 81 306 81 315 90 c 0,28,29
 330 105 330 105 352 105 c 128,-1,30
 374 105 374 105 390 90 c 0,31,32
 405 74 405 74 405 52 c 128,-1,33
 405 30 405 30 390 15 c 128,-1,34
 375 0 375 0 352 0 c 0,35,36
 330 0 330 0 315 15 c 0,37,38
 306 24 306 24 302 36 c 1,39,40
 298 24 298 24 290 15 c 0,41,42
 275 0 275 0 252 0 c 0,43,44
 230 0 230 0 215 15 c 0,45,46
 206 24 206 24 202 36 c 1,47,48
 198 24 198 24 190 15 c 0,49,50
 175 0 175 0 153 0 c 1,51,-1
 153 0 l 1,6,7
102 236 m 1,52,-1
 102 236 l 1,53,-1
 102 236 l 1,54,-1
 102 236 l 1,55,-1
 102 236 l 1,52,-1
252 300 m 1,56,57
 230 300 230 300 215 315 c 128,-1,58
 200 330 200 330 200 352 c 128,-1,59
 200 374 200 374 215 390 c 0,60,61
 230 405 230 405 252 405 c 128,-1,62
 274 405 274 405 290 390 c 0,63,64
 305 375 305 375 305 352 c 0,65,66
 305 330 305 330 290 315 c 256,67,68
 275 300 275 300 252 300 c 1,69,-1
 252 300 l 1,56,57
402 436 m 1,70,-1
 402 436 l 1,71,-1
 402 436 l 1,72,-1
 402 436 l 1,73,-1
 402 436 l 1,70,-1
52 100 m 1,74,75
 30 100 30 100 15 116 c 0,76,77
 0 131 0 131 0 153 c 128,-1,78
 0 175 0 175 15 190 c 0,79,80
 24 199 24 199 36 202 c 1,81,-1
 36 202 l 1,82,83
 24 206 24 206 15 215 c 0,84,85
 0 230 0 230 0 252 c 128,-1,86
 0 274 0 274 15 290 c 0,87,88
 24 299 24 299 36 302 c 1,89,-1
 36 302 l 1,90,91
 24 306 24 306 15 315 c 0,92,93
 0 330 0 330 0 352 c 128,-1,94
 0 374 0 374 15 390 c 0,95,96
 24 398 24 398 36 402 c 1,97,-1
 36 402 l 1,98,99
 24 406 24 406 15 415 c 0,100,101
 0 430 0 430 0 452 c 128,-1,102
 0 474 0 474 15 489 c 0,103,104
 24 498 24 498 36 503 c 1,105,-1
 36 503 l 1,106,107
 24 507 24 507 15 515 c 0,108,109
 0 530 0 530 0 552 c 256,110,111
 0 574 0 574 15 589 c 128,-1,112
 30 604 30 604 52 605 c 0,113,114
 74 605 74 605 90 589 c 256,115,116
 105 574 105 574 105 552 c 256,117,118
 105 530 105 530 90 515 c 0,119,120
 81 506 81 506 69 503 c 1,121,-1
 69 503 l 1,122,123
 81 499 81 499 90 489 c 0,124,125
 105 474 105 474 105 452 c 128,-1,126
 105 430 105 430 90 415 c 0,127,128
 81 406 81 406 69 402 c 1,129,-1
 69 402 l 1,130,131
 81 398 81 398 90 390 c 0,132,133
 105 375 105 375 105 352 c 0,134,135
 105 330 105 330 90 315 c 0,136,137
 81 306 81 306 69 302 c 1,138,-1
 69 302 l 1,139,140
 81 298 81 298 90 290 c 256,141,142
 99 281 99 281 102 269 c 1,143,-1
 102 269 l 1,144,145
 106 280 106 280 116 290 c 0,146,147
 131 305 131 305 153 305 c 128,-1,148
 175 305 175 305 190 290 c 256,149,150
 204.0625 275.9375 204.0625 275.9375 204.0625 254.84375 c 0,151,152
 204.0625 230.066964286 204.0625 230.066964286 190 215 c 0,153,154
 175 200 175 200 153 200 c 0,155,156
 132 200 132 200 116 215 c 0,157,158
 107 224 107 224 102 236 c 1,159,-1
 102 236 l 1,160,161
 98 224 98 224 90 215 c 0,162,163
 81 206 81 206 69 202 c 1,164,-1
 69 202 l 1,165,166
 81 198 81 198 90 190 c 0,167,168
 105 175 105 175 105 153 c 0,169,170
 105 132 105 132 90 116 c 256,171,172
 74 101 74 101 52 100 c 1,173,-1
 52 100 l 1,74,75
452 100 m 1,174,175
 430 100 430 100 415 116 c 256,176,177
 400 131 400 131 400 153 c 128,-1,178
 400 175 400 175 415 190 c 0,179,180
 424 199 424 199 436 202 c 1,181,-1
 436 202 l 1,182,183
 425 206 425 206 415 215 c 0,184,185
 400 230 400 230 400 252 c 128,-1,186
 400 274 400 274 415 290 c 0,187,188
 424 299 424 299 436 302 c 1,189,-1
 436 302 l 1,190,191
 425 306 425 306 415 315 c 0,192,193
 400 330 400 330 400 352 c 128,-1,194
 400 374 400 374 415 390 c 0,195,196
 424 398 424 398 436 402 c 1,197,-1
 436 402 l 1,198,199
 425 406 425 406 415 415 c 256,200,201
 406 424 406 424 402 436 c 1,202,203
 398 425 398 425 390 415 c 0,204,205
 375 400 375 400 352 400 c 0,206,207
 330 400 330 400 315 415 c 256,208,209
 300 430 300 430 300 452 c 128,-1,210
 300 474 300 474 315 489 c 256,211,212
 330 504 330 504 352 505 c 0,213,214
 374 505 374 505 390 489 c 0,215,216
 398 480 398 480 402 469 c 1,217,-1
 402 469 l 1,218,219
 406 480 406 480 415 489 c 256,220,221
 424 498 424 498 436 503 c 1,222,-1
 436 503 l 1,223,224
 425 507 425 507 415 515 c 0,225,226
 400 530 400 530 400 552 c 256,227,228
 400 574 400 574 415 589 c 256,229,230
 430 604 430 604 452 605 c 0,231,232
 474 605 474 605 489 589 c 256,233,234
 504 574 504 574 505 552 c 256,235,236
 505 530 505 530 489 515 c 0,237,238
 480 506 480 506 469 503 c 1,239,-1
 469 503 l 1,240,241
 480 499 480 499 489 489 c 0,242,243
 504 474 504 474 505 452 c 0,244,245
 505 430 505 430 489 415 c 0,246,247
 480 406 480 406 469 402 c 1,248,-1
 469 402 l 1,249,250
 480 398 480 398 489 390 c 0,251,252
 504 375 504 375 505 352 c 0,253,254
 505 330 505 330 489 315 c 0,255,256
 480 306 480 306 469 302 c 1,257,-1
 469 302 l 1,258,259
 480 298 480 298 489 290 c 0,260,261
 504 275 504 275 505 252 c 0,262,263
 505 230 505 230 489 215 c 0,264,265
 480 206 480 206 469 202 c 1,266,-1
 469 202 l 1,267,268
 480 198 480 198 489 190 c 0,269,270
 504 175 504 175 505 153 c 0,271,272
 505 132 505 132 489 116 c 256,273,274
 474 101 474 101 452 100 c 1,275,-1
 452 100 l 1,174,175
202 636 m 1,276,-1
 202 636 l 1,277,-1
 202 636 l 1,278,-1
 202 636 l 1,279,-1
 202 636 l 1,276,-1
153 600 m 1,280,281
 132 600 132 600 116 615 c 256,282,283
 101 630 101 630 100 652 c 0,284,285
 100 674 100 674 116 690 c 256,286,287
 131 705 131 705 153 705 c 0,288,289
 154.294117647 705.058823529 154.294117647 705.058823529 155.564013841 705.058823529 c 0,290,291
 175.882352941 705.058823529 175.882352941 705.058823529 190 690 c 0,292,293
 199 681 199 681 202 669 c 1,294,-1
 202 669 l 1,295,296
 206 680 206 680 215 690 c 0,297,298
 230 705 230 705 252 705 c 0,299,300
 253.294117647 705.058823529 253.294117647 705.058823529 254.567474048 705.058823529 c 0,301,302
 274.941176471 705.058823529 274.941176471 705.058823529 290 690 c 0,303,304
 299 681 299 681 302 669 c 1,305,-1
 302 669 l 1,306,307
 306 680 306 680 315 690 c 0,308,309
 330 705 330 705 352 705 c 0,310,311
 353.294117647 705.058823529 353.294117647 705.058823529 354.567474048 705.058823529 c 0,312,313
 374.941176471 705.058823529 374.941176471 705.058823529 390 690 c 128,-1,314
 405 675 405 675 405 652 c 0,315,316
 405 630 405 630 390 615 c 128,-1,317
 375 600 375 600 352 600 c 0,318,319
 330 600 330 600 315 615 c 0,320,321
 306 624 306 624 302 636 c 1,322,323
 298 625 298 625 290 615 c 0,324,325
 275 600 275 600 252 600 c 0,326,327
 230 600 230 600 215 615 c 0,328,329
 206 624 206 624 202 636 c 1,330,331
 198 625 198 625 190 615 c 0,332,333
 175 600 175 600 153 600 c 1,334,-1
 153 600 l 1,280,281
EndSplineSet
Validated: 524293
EndChar

StartChar: one
Encoding: 49 49 17
Width: 599
VWidth: 699
Flags: W
LayerCount: 2
Fore
SplineSet
202 36 m 1,0,1
 202 36 l 1,2,-1
 202 36 l 1,3,4
 202 36 l 1,5,-1
 202 36 l 1,0,1
153 0 m 1,6,7
 132 0 132 0 116 15 c 0,8,9
 101 30 101 30 100 52 c 0,10,11
 100 74 100 74 116 90 c 256,12,13
 131 105 131 105 153 105 c 128,-1,14
 175 105 175 105 190 90 c 0,15,16
 199 81 199 81 202 69 c 1,17,-1
 202 69 l 1,18,19
 206 81 206 81 215 90 c 128,-1,20
 224 99 224 99 236 102 c 1,21,-1
 236 102 l 1,22,23
 224 106 224 106 215 116 c 0,24,25
 200 131 200 131 200 153 c 128,-1,26
 200 175 200 175 215 190 c 0,27,28
 224 199 224 199 236 202 c 1,29,-1
 236 202 l 1,30,31
 224 206 224 206 215 215 c 0,32,33
 200 230 200 230 200 252 c 128,-1,34
 200 274 200 274 215 290 c 0,35,36
 224 299 224 299 236 302 c 1,37,-1
 236 302 l 1,38,39
 224 306 224 306 215 315 c 0,40,41
 200 330 200 330 200 352 c 128,-1,42
 200 374 200 374 215 390 c 0,43,44
 224 398 224 398 236 402 c 1,45,-1
 236 402 l 1,46,47
 224 406 224 406 215 415 c 0,48,49
 200 430 200 430 200 452 c 128,-1,50
 200 474 200 474 215 489 c 0,51,52
 224 498 224 498 236 503 c 1,53,-1
 236 503 l 1,54,55
 224 507 224 507 215 515 c 0,56,57
 206 524 206 524 202 536 c 1,58,-1
 202 536 l 1,59,60
 198 524 198 524 190 515 c 0,61,62
 175 500 175 500 153 500 c 0,63,64
 132 500 132 500 116 515 c 256,65,66
 101 530 101 530 100 552 c 256,67,68
 100 574 100 574 116 589 c 256,69,70
 131 604 131 604 153 605 c 0,71,72
 175 605 175 605 190 589 c 0,73,74
 199 579 199 579 202 568 c 1,75,-1
 202 568 l 1,76,77
 206 580 206 580 215 589 c 128,-1,78
 224 598 224 598 236 602 c 1,79,-1
 236 602 l 1,80,81
 224 606 224 606 215 615 c 0,82,83
 200 630 200 630 200 652 c 128,-1,84
 200 674 200 674 215 690 c 0,85,86
 230 705 230 705 252 705 c 0,87,88
 253.294117647 705.058823529 253.294117647 705.058823529 254.567474048 705.058823529 c 0,89,90
 274.941176471 705.058823529 274.941176471 705.058823529 290 690 c 256,91,92
 305 675 305 675 305 652 c 0,93,94
 305 630 305 630 290 615 c 0,95,96
 281 606 281 606 269 602 c 1,97,-1
 269 602 l 1,98,99
 280 598 280 598 290 589 c 0,100,101
 305 574 305 574 305 552 c 256,102,103
 305 530 305 530 290 515 c 0,104,105
 281 506 281 506 269 503 c 1,106,-1
 269 503 l 1,107,108
 280 499 280 499 290 489 c 0,109,110
 305 474 305 474 305 452 c 128,-1,111
 305 430 305 430 290 415 c 0,112,113
 281 406 281 406 269 402 c 1,114,-1
 269 402 l 1,115,116
 280 398 280 398 290 390 c 0,117,118
 305 375 305 375 305 352 c 0,119,120
 305 330 305 330 290 315 c 0,121,122
 281 306 281 306 269 302 c 1,123,-1
 269 302 l 1,124,125
 280 298 280 298 290 290 c 0,126,127
 305 275 305 275 305 252 c 0,128,129
 305 230 305 230 290 215 c 0,130,131
 281 206 281 206 269 202 c 1,132,-1
 269 202 l 1,133,134
 280 198 280 198 290 190 c 0,135,136
 305 175 305 175 305 153 c 0,137,138
 305 132 305 132 290 116 c 0,139,140
 281 107 281 107 269 102 c 1,141,-1
 269 102 l 1,142,143
 280 98 280 98 290 90 c 256,144,145
 299 81 299 81 302 69 c 1,146,-1
 302 69 l 1,147,148
 306 81 306 81 315 90 c 0,149,150
 330 105 330 105 352 105 c 128,-1,151
 374 105 374 105 390 90 c 0,152,153
 405 74 405 74 405 52 c 128,-1,154
 405 30 405 30 390 15 c 128,-1,155
 375 0 375 0 352 0 c 0,156,157
 330 0 330 0 315 15 c 0,158,159
 306 24 306 24 302 36 c 1,160,161
 298 24 298 24 290 15 c 0,162,163
 275 0 275 0 252 0 c 0,164,165
 230 0 230 0 215 15 c 0,166,167
 206 24 206 24 202 36 c 1,168,169
 198 24 198 24 190 15 c 0,170,171
 175 0 175 0 153 0 c 1,172,-1
 153 0 l 1,6,7
EndSplineSet
Validated: 524293
EndChar

StartChar: two
Encoding: 50 50 18
Width: 599
VWidth: 699
Flags: W
LayerCount: 2
Fore
SplineSet
102 36 m 1,0,1
 102 36 l 1,2,-1
 102 36 l 1,3,4
 102 36 l 1,5,-1
 102 36 l 1,0,1
302 36 m 1,6,7
 302 36 l 1,8,-1
 302 36 l 1,9,10
 302 36 l 1,11,-1
 302 36 l 1,6,7
52 0 m 1,12,13
 30 0 30 0 15 15 c 128,-1,14
 0 30 0 30 0 52 c 128,-1,15
 0 74 0 74 15 90 c 0,16,17
 30 105 30 105 52 105 c 128,-1,18
 74 105 74 105 90 90 c 0,19,20
 99 81 99 81 102 69 c 1,21,-1
 102 69 l 1,22,23
 106 81 106 81 116 90 c 256,24,25
 125 99 125 99 136 102 c 1,26,-1
 136 102 l 1,27,28
 126 106 126 106 116 116 c 0,29,30
 101 131 101 131 100 153 c 0,31,32
 100 175 100 175 116 190 c 256,33,34
 130.0625 204.0625 130.0625 204.0625 150.27734375 204.0625 c 0,35,36
 151.625 204.0625 151.625 204.0625 153 204 c 0,37,38
 175 204 175 204 190 190 c 256,39,40
 204.0625 175.9375 204.0625 175.9375 204.0625 155.72265625 c 0,41,42
 204.0625 132.071428571 204.0625 132.071428571 190 116 c 0,43,44
 181 107 181 107 169 102 c 1,45,-1
 169 102 l 1,46,47
 180 98 180 98 190 90 c 256,48,49
 199 81 199 81 202 69 c 1,50,-1
 202 69 l 1,51,52
 206 81 206 81 215 90 c 0,53,54
 230 105 230 105 252 105 c 128,-1,55
 274 105 274 105 290 90 c 0,56,57
 299 81 299 81 302 69 c 1,58,-1
 302 69 l 1,59,60
 306 81 306 81 315 90 c 0,61,62
 330 105 330 105 352 105 c 128,-1,63
 374 105 374 105 390 90 c 0,64,65
 398 81 398 81 402 69 c 1,66,-1
 402 69 l 1,67,68
 406 81 406 81 415 90 c 0,69,70
 430 105 430 105 452 105 c 128,-1,71
 474 105 474 105 489 90 c 256,72,73
 504 74 504 74 505 52 c 0,74,75
 505 30 505 30 489 15 c 0,76,77
 474 0 474 0 452 0 c 128,-1,78
 430 0 430 0 415 15 c 0,79,80
 406 24 406 24 402 36 c 1,81,82
 398 24 398 24 390 15 c 0,83,84
 375 0 375 0 352 0 c 0,85,86
 330 0 330 0 315 15 c 0,87,88
 306 24 306 24 302 36 c 1,89,90
 298 24 298 24 290 15 c 0,91,92
 275 0 275 0 252 0 c 0,93,94
 230 0 230 0 215 15 c 0,95,96
 206 24 206 24 202 36 c 1,97,-1
 202 36 l 1,98,99
 198 24 198 24 190 15 c 0,100,101
 175 0 175 0 153 0 c 0,102,103
 132 0 132 0 116 15 c 0,104,105
 107 24 107 24 102 36 c 1,106,-1
 102 36 l 1,107,108
 98 24 98 24 90 15 c 0,109,110
 74 0 74 0 52 0 c 1,111,-1
 52 0 l 1,12,13
252 200 m 1,112,113
 230 200 230 200 215 215 c 128,-1,114
 200 230 200 230 200 252 c 128,-1,115
 200 274 200 274 215 290 c 0,116,117
 230 305 230 305 252 305 c 128,-1,118
 274 305 274 305 290 290 c 256,119,120
 305 275 305 275 305 252 c 0,121,122
 305 230 305 230 290 215 c 128,-1,123
 275 200 275 200 252 200 c 1,124,-1
 252 200 l 1,112,113
352 300 m 1,125,126
 330 300 330 300 315 315 c 256,127,128
 300 330 300 330 300 352 c 128,-1,129
 300 374 300 374 315 390 c 0,130,131
 330 405 330 405 352 405 c 128,-1,132
 374 405 374 405 390 390 c 0,133,134
 405 375 405 375 405 352 c 0,135,136
 405 330 405 330 390 315 c 128,-1,137
 375 300 375 300 352 300 c 1,138,-1
 352 300 l 1,125,126
52 500 m 1,139,140
 30 500 30 500 15 515 c 128,-1,141
 0 530 0 530 0 552 c 256,142,143
 0 574 0 574 15 589 c 128,-1,144
 30 604 30 604 52 605 c 0,145,146
 74 605 74 605 90 589 c 256,147,148
 105 574 105 574 105 552 c 256,149,150
 105 530 105 530 90 515 c 256,151,152
 74 500 74 500 52 500 c 1,153,-1
 52 500 l 1,139,140
452 400 m 1,154,155
 430 400 430 400 415 415 c 256,156,157
 400 430 400 430 400 452 c 128,-1,158
 400 474 400 474 415 489 c 0,159,160
 424 498 424 498 436 503 c 1,161,-1
 436 503 l 1,162,163
 425 507 425 507 415 515 c 0,164,165
 400 530 400 530 400 552 c 256,166,167
 400 574 400 574 415 589 c 256,168,169
 430 604 430 604 452 605 c 0,170,171
 474 605 474 605 489 589 c 256,172,173
 504 574 504 574 505 552 c 256,174,175
 505 530 505 530 489 515 c 0,176,177
 480 506 480 506 469 503 c 1,178,-1
 469 503 l 1,179,180
 480 499 480 499 489 489 c 0,181,182
 504 474 504 474 505 452 c 0,183,184
 505 430 505 430 489 415 c 256,185,186
 474 400 474 400 452 400 c 1,187,-1
 452 400 l 1,154,155
202 636 m 1,188,-1
 202 636 l 1,189,-1
 202 636 l 1,190,-1
 202 636 l 1,191,-1
 202 636 l 1,188,-1
302 636 m 1,192,-1
 302 636 l 1,193,-1
 302 636 l 1,194,-1
 302 636 l 1,195,-1
 302 636 l 1,192,-1
153 600 m 1,196,197
 132 600 132 600 116 615 c 256,198,199
 101 630 101 630 100 652 c 0,200,201
 100 674 100 674 116 690 c 256,202,203
 131 705 131 705 153 705 c 0,204,205
 154.294117647 705.058823529 154.294117647 705.058823529 155.564013841 705.058823529 c 0,206,207
 175.882352941 705.058823529 175.882352941 705.058823529 190 690 c 0,208,209
 199 681 199 681 202 669 c 1,210,-1
 202 669 l 1,211,212
 206 680 206 680 215 690 c 0,213,214
 230 705 230 705 252 705 c 0,215,216
 253.294117647 705.058823529 253.294117647 705.058823529 254.567474048 705.058823529 c 0,217,218
 274.941176471 705.058823529 274.941176471 705.058823529 290 690 c 0,219,220
 299 681 299 681 302 669 c 1,221,-1
 302 669 l 1,222,223
 306 680 306 680 315 690 c 0,224,225
 330 705 330 705 352 705 c 0,226,227
 353.294117647 705.058823529 353.294117647 705.058823529 354.567474048 705.058823529 c 0,228,229
 374.941176471 705.058823529 374.941176471 705.058823529 390 690 c 128,-1,230
 405 675 405 675 405 652 c 0,231,232
 405 630 405 630 390 615 c 128,-1,233
 375 600 375 600 352 600 c 0,234,235
 330 600 330 600 315 615 c 0,236,237
 306 624 306 624 302 636 c 1,238,239
 298 625 298 625 290 615 c 0,240,241
 275 600 275 600 252 600 c 0,242,243
 230 600 230 600 215 615 c 0,244,245
 206 624 206 624 202 636 c 1,246,-1
 202 636 l 1,247,248
 198 625 198 625 190 615 c 0,249,250
 175 600 175 600 153 600 c 1,251,-1
 153 600 l 1,196,197
EndSplineSet
Validated: 524293
EndChar

StartChar: three
Encoding: 51 51 19
Width: 599
VWidth: 699
Flags: W
LayerCount: 2
Fore
SplineSet
202 36 m 1,0,1
 202 36 l 1,2,-1
 202 36 l 1,3,4
 202 36 l 1,5,-1
 202 36 l 1,0,1
153 0 m 1,6,7
 132 0 132 0 116 15 c 0,8,9
 101 30 101 30 100 52 c 0,10,11
 100 74 100 74 116 90 c 256,12,13
 131 105 131 105 153 105 c 128,-1,14
 175 105 175 105 190 90 c 0,15,16
 199 81 199 81 202 69 c 1,17,-1
 202 69 l 1,18,19
 206 81 206 81 215 90 c 0,20,21
 230 105 230 105 252 105 c 128,-1,22
 274 105 274 105 290 90 c 0,23,24
 299 81 299 81 302 69 c 1,25,-1
 302 69 l 1,26,27
 306 81 306 81 315 90 c 0,28,29
 330 105 330 105 352 105 c 128,-1,30
 374 105 374 105 390 90 c 0,31,32
 405 74 405 74 405 52 c 128,-1,33
 405 30 405 30 390 15 c 128,-1,34
 375 0 375 0 352 0 c 0,35,36
 330 0 330 0 315 15 c 0,37,38
 306 24 306 24 302 36 c 1,39,40
 298 24 298 24 290 15 c 0,41,42
 275 0 275 0 252 0 c 0,43,44
 230 0 230 0 215 15 c 0,45,46
 206 24 206 24 202 36 c 1,47,48
 198 24 198 24 190 15 c 0,49,50
 175 0 175 0 153 0 c 1,51,-1
 153 0 l 1,6,7
52 100 m 1,52,53
 30 100 30 100 15 116 c 0,54,55
 0 131 0 131 0 153 c 128,-1,56
 0 175 0 175 15 190 c 0,57,58
 29.0625 204.0625 29.0625 204.0625 49.27734375 204.0625 c 0,59,60
 50.625 204.0625 50.625 204.0625 52 204 c 0,61,62
 74 204 74 204 90 190 c 256,63,64
 105 175 105 175 105 153 c 0,65,66
 105 132 105 132 90 116 c 256,67,68
 74 101 74 101 52 100 c 1,69,-1
 52 100 l 1,52,53
452 100 m 1,70,71
 430 100 430 100 415 116 c 256,72,73
 400 131 400 131 400 153 c 128,-1,74
 400 175 400 175 415 190 c 0,75,76
 424 199 424 199 436 202 c 1,77,-1
 436 202 l 1,78,79
 425 206 425 206 415 215 c 0,80,81
 400 230 400 230 400 252 c 128,-1,82
 400 274 400 274 415 290 c 256,83,84
 430 305 430 305 452 305 c 128,-1,85
 474 305 474 305 489 290 c 256,86,87
 504 275 504 275 505 252 c 0,88,89
 505 230 505 230 489 215 c 0,90,91
 480 206 480 206 469 202 c 1,92,-1
 469 202 l 1,93,94
 480 198 480 198 489 190 c 0,95,96
 504 175 504 175 505 153 c 0,97,98
 505 132 505 132 489 116 c 256,99,100
 474 101 474 101 452 100 c 1,101,-1
 452 100 l 1,70,71
352 300 m 1,102,103
 330 300 330 300 315 315 c 256,104,105
 300 330 300 330 300 352 c 128,-1,106
 300 374 300 374 315 390 c 0,107,108
 330 405 330 405 352 405 c 128,-1,109
 374 405 374 405 390 390 c 0,110,111
 405 375 405 375 405 352 c 0,112,113
 405 330 405 330 390 315 c 128,-1,114
 375 300 375 300 352 300 c 1,115,-1
 352 300 l 1,102,103
252 400 m 1,116,117
 230 400 230 400 215 415 c 128,-1,118
 200 430 200 430 200 452 c 128,-1,119
 200 474 200 474 215 489 c 128,-1,120
 230 504 230 504 252 505 c 0,121,122
 274 505 274 505 290 489 c 256,123,124
 305 474 305 474 305 452 c 128,-1,125
 305 430 305 430 290 415 c 256,126,127
 275 400 275 400 252 400 c 1,128,-1
 252 400 l 1,116,117
102 636 m 1,129,-1
 102 636 l 1,130,-1
 102 636 l 1,131,-1
 102 636 l 1,132,-1
 102 636 l 1,129,-1
202 636 m 1,133,-1
 202 636 l 1,134,-1
 202 636 l 1,135,-1
 202 636 l 1,136,-1
 202 636 l 1,133,-1
402 636 m 1,137,-1
 402 636 l 1,138,-1
 402 636 l 1,139,-1
 402 636 l 1,140,-1
 402 636 l 1,137,-1
352 500 m 1,141,142
 330 500 330 500 315 515 c 256,143,144
 300 530 300 530 300 552 c 256,145,146
 300 574 300 574 315 589 c 0,147,148
 324 598 324 598 335 602 c 1,149,-1
 335 602 l 1,150,151
 324 606 324 606 315 615 c 256,152,153
 306 624 306 624 302 636 c 1,154,-1
 302 636 l 1,155,156
 298 625 298 625 290 615 c 0,157,158
 275 600 275 600 252 600 c 0,159,160
 230 600 230 600 215 615 c 0,161,162
 206 624 206 624 202 636 c 1,163,164
 198 625 198 625 190 615 c 0,165,166
 175 600 175 600 153 600 c 0,167,168
 132 600 132 600 116 615 c 0,169,170
 107 624 107 624 102 636 c 1,171,-1
 102 636 l 1,172,173
 98 625 98 625 90 615 c 0,174,175
 74 600 74 600 52 600 c 128,-1,176
 30 600 30 600 15 615 c 128,-1,177
 0 630 0 630 0 652 c 128,-1,178
 0 674 0 674 15 690 c 0,179,180
 30 705 30 705 52 705 c 0,181,182
 53.2941176471 705.058823529 53.2941176471 705.058823529 54.5674740484 705.058823529 c 0,183,184
 74.9411764706 705.058823529 74.9411764706 705.058823529 90 690 c 0,185,186
 99 681 99 681 102 669 c 1,187,-1
 102 669 l 1,188,189
 106 680 106 680 116 690 c 0,190,191
 131 705 131 705 153 705 c 0,192,193
 154.294117647 705.058823529 154.294117647 705.058823529 155.564013841 705.058823529 c 0,194,195
 175.882352941 705.058823529 175.882352941 705.058823529 190 690 c 0,196,197
 199 681 199 681 202 669 c 1,198,-1
 202 669 l 1,199,200
 206 680 206 680 215 690 c 0,201,202
 230 705 230 705 252 705 c 0,203,204
 253.294117647 705.058823529 253.294117647 705.058823529 254.567474048 705.058823529 c 0,205,206
 274.941176471 705.058823529 274.941176471 705.058823529 290 690 c 0,207,208
 299 681 299 681 302 669 c 1,209,-1
 302 669 l 1,210,211
 306 680 306 680 315 690 c 0,212,213
 330 705 330 705 352 705 c 0,214,215
 353.294117647 705.058823529 353.294117647 705.058823529 354.567474048 705.058823529 c 0,216,217
 374.941176471 705.058823529 374.941176471 705.058823529 390 690 c 0,218,219
 398 681 398 681 402 669 c 1,220,-1
 402 669 l 1,221,222
 406 680 406 680 415 690 c 0,223,224
 430 705 430 705 452 705 c 0,225,226
 453.294117647 705.058823529 453.294117647 705.058823529 454.564013841 705.058823529 c 0,227,228
 474.882352941 705.058823529 474.882352941 705.058823529 489 690 c 256,229,230
 504 675 504 675 505 652 c 0,231,232
 505 630 505 630 489 615 c 256,233,234
 474 600 474 600 452 600 c 128,-1,235
 430 600 430 600 415 615 c 0,236,237
 406 624 406 624 402 636 c 1,238,239
 398 625 398 625 390 615 c 0,240,241
 381 606 381 606 369 602 c 1,242,-1
 369 602 l 1,243,244
 381 598 381 598 390 589 c 0,245,246
 405 574 405 574 405 552 c 256,247,248
 405 530 405 530 390 515 c 128,-1,249
 375 500 375 500 352 500 c 1,250,-1
 352 500 l 1,141,142
EndSplineSet
Validated: 524293
EndChar

StartChar: four
Encoding: 52 52 20
Width: 599
VWidth: 699
Flags: W
LayerCount: 2
Fore
SplineSet
102 236 m 1,0,1
 102 236 l 1,2,-1
 102 236 l 1,3,4
 102 236 l 1,5,-1
 102 236 l 1,0,1
302 236 m 1,6,7
 302 236 l 1,8,-1
 302 236 l 1,9,10
 302 236 l 1,11,-1
 302 236 l 1,6,7
153 400 m 1,12,13
 132 400 132 400 116 415 c 256,14,15
 101 430 101 430 100 452 c 0,16,17
 100 474 100 474 116 489 c 256,18,19
 131 504 131 504 153 505 c 0,20,21
 175 505 175 505 190 489 c 256,22,23
 204.0625 474.9375 204.0625 474.9375 204.0625 454.72265625 c 0,24,25
 204.0625 430.066964286 204.0625 430.066964286 190 415 c 256,26,27
 175 400 175 400 153 400 c 1,28,-1
 153 400 l 1,12,13
302 536 m 1,29,30
 302 536 l 1,31,-1
 302 536 l 1,32,33
 302 536 l 1,34,-1
 302 536 l 1,29,30
352 0 m 1,35,36
 330 0 330 0 315 15 c 128,-1,37
 300 30 300 30 300 52 c 128,-1,38
 300 74 300 74 315 90 c 0,39,40
 324 99 324 99 335 102 c 1,41,-1
 335 102 l 1,42,43
 324 106 324 106 315 116 c 0,44,45
 300 131 300 131 300 153 c 128,-1,46
 300 175 300 175 315 190 c 0,47,48
 324 199 324 199 335 202 c 1,49,-1
 335 202 l 1,50,51
 324 206 324 206 315 215 c 128,-1,52
 306 224 306 224 302 236 c 1,53,54
 298 224 298 224 290 215 c 0,55,56
 275 200 275 200 252 200 c 0,57,58
 230 200 230 200 215 215 c 0,59,60
 206 224 206 224 202 236 c 1,61,62
 198 224 198 224 190 215 c 0,63,64
 175 200 175 200 153 200 c 0,65,66
 132 200 132 200 116 215 c 0,67,68
 107 224 107 224 102 236 c 1,69,-1
 102 236 l 1,70,71
 98 224 98 224 90 215 c 0,72,73
 74 200 74 200 52 200 c 128,-1,74
 30 200 30 200 15 215 c 128,-1,75
 0 230 0 230 0 252 c 128,-1,76
 0 274 0 274 15 290 c 0,77,78
 24 299 24 299 36 302 c 1,79,-1
 36 302 l 1,80,81
 24 306 24 306 15 315 c 0,82,83
 0 330 0 330 0 352 c 128,-1,84
 0 374 0 374 15 390 c 0,85,86
 30 405 30 405 52 405 c 128,-1,87
 74 405 74 405 90 390 c 0,88,89
 105 375 105 375 105 352 c 0,90,91
 105 330 105 330 90 315 c 0,92,93
 81 306 81 306 69 302 c 1,94,-1
 69 302 l 1,95,96
 81 298 81 298 90 290 c 256,97,98
 99 281 99 281 102 269 c 1,99,-1
 102 269 l 1,100,101
 106 280 106 280 116 290 c 0,102,103
 131 305 131 305 153 305 c 128,-1,104
 175 305 175 305 190 290 c 0,105,106
 199 281 199 281 202 269 c 1,107,-1
 202 269 l 1,108,109
 206 280 206 280 215 290 c 0,110,111
 230 305 230 305 252 305 c 128,-1,112
 274 305 274 305 290 290 c 0,113,114
 299 281 299 281 302 269 c 1,115,-1
 302 269 l 1,116,117
 306 280 306 280 315 290 c 256,118,119
 324 299 324 299 335 302 c 1,120,-1
 335 302 l 1,121,122
 324 306 324 306 315 315 c 0,123,124
 300 330 300 330 300 352 c 128,-1,125
 300 374 300 374 315 390 c 0,126,127
 324 398 324 398 335 402 c 1,128,-1
 335 402 l 1,129,130
 324 406 324 406 315 415 c 0,131,132
 300 430 300 430 300 452 c 128,-1,133
 300 474 300 474 315 489 c 0,134,135
 324 498 324 498 335 503 c 1,136,-1
 335 503 l 1,137,138
 324 507 324 507 315 515 c 256,139,140
 306 524 306 524 302 536 c 1,141,-1
 302 536 l 1,142,143
 298 524 298 524 290 515 c 0,144,145
 275 500 275 500 252 500 c 0,146,147
 230 500 230 500 215 515 c 128,-1,148
 200 530 200 530 200 552 c 256,149,150
 200 574 200 574 215 589 c 128,-1,151
 230 604 230 604 252 605 c 0,152,153
 274 605 274 605 290 589 c 0,154,155
 299 579 299 579 302 568 c 1,156,-1
 302 568 l 1,157,158
 306 580 306 580 315 589 c 128,-1,159
 324 598 324 598 335 602 c 1,160,-1
 335 602 l 1,161,162
 324 606 324 606 315 615 c 0,163,164
 300 630 300 630 300 652 c 128,-1,165
 300 674 300 674 315 690 c 256,166,167
 330 705 330 705 352 705 c 0,168,169
 353.294117647 705.058823529 353.294117647 705.058823529 354.567474048 705.058823529 c 0,170,171
 374.941176471 705.058823529 374.941176471 705.058823529 390 690 c 128,-1,172
 405 675 405 675 405 652 c 0,173,174
 405 630 405 630 390 615 c 0,175,176
 381 606 381 606 369 602 c 1,177,-1
 369 602 l 1,178,179
 381 598 381 598 390 589 c 0,180,181
 405 574 405 574 405 552 c 256,182,183
 405 530 405 530 390 515 c 0,184,185
 381 506 381 506 369 503 c 1,186,-1
 369 503 l 1,187,188
 381 499 381 499 390 489 c 0,189,190
 405 474 405 474 405 452 c 128,-1,191
 405 430 405 430 390 415 c 0,192,193
 381 406 381 406 369 402 c 1,194,-1
 369 402 l 1,195,196
 381 398 381 398 390 390 c 0,197,198
 405 375 405 375 405 352 c 0,199,200
 405 330 405 330 390 315 c 0,201,202
 381 306 381 306 369 302 c 1,203,-1
 369 302 l 1,204,205
 381 298 381 298 390 290 c 0,206,207
 398 281 398 281 402 269 c 1,208,-1
 402 269 l 1,209,210
 406 280 406 280 415 290 c 0,211,212
 430 305 430 305 452 305 c 128,-1,213
 474 305 474 305 489 290 c 256,214,215
 504 275 504 275 505 252 c 0,216,217
 505 230 505 230 489 215 c 0,218,219
 474 200 474 200 452 200 c 128,-1,220
 430 200 430 200 415 215 c 0,221,222
 406 224 406 224 402 236 c 1,223,224
 398 224 398 224 390 215 c 0,225,226
 381 206 381 206 369 202 c 1,227,-1
 369 202 l 1,228,229
 381 198 381 198 390 190 c 0,230,231
 405 175 405 175 405 153 c 0,232,233
 405 132 405 132 390 116 c 0,234,235
 381 107 381 107 369 102 c 1,236,-1
 369 102 l 1,237,238
 381 98 381 98 390 90 c 0,239,240
 405 74 405 74 405 52 c 128,-1,241
 405 30 405 30 390 15 c 128,-1,242
 375 0 375 0 352 0 c 1,243,-1
 352 0 l 1,35,36
EndSplineSet
Validated: 524293
EndChar

StartChar: five
Encoding: 53 53 21
Width: 599
VWidth: 699
Flags: W
LayerCount: 2
Fore
SplineSet
202 36 m 1,0,1
 202 36 l 1,2,-1
 202 36 l 1,3,4
 202 36 l 1,5,-1
 202 36 l 1,0,1
153 0 m 1,6,7
 132 0 132 0 116 15 c 0,8,9
 101 30 101 30 100 52 c 0,10,11
 100 74 100 74 116 90 c 256,12,13
 131 105 131 105 153 105 c 128,-1,14
 175 105 175 105 190 90 c 0,15,16
 199 81 199 81 202 69 c 1,17,-1
 202 69 l 1,18,19
 206 81 206 81 215 90 c 0,20,21
 230 105 230 105 252 105 c 128,-1,22
 274 105 274 105 290 90 c 0,23,24
 299 81 299 81 302 69 c 1,25,-1
 302 69 l 1,26,27
 306 81 306 81 315 90 c 0,28,29
 330 105 330 105 352 105 c 128,-1,30
 374 105 374 105 390 90 c 0,31,32
 405 74 405 74 405 52 c 128,-1,33
 405 30 405 30 390 15 c 128,-1,34
 375 0 375 0 352 0 c 0,35,36
 330 0 330 0 315 15 c 0,37,38
 306 24 306 24 302 36 c 1,39,40
 298 24 298 24 290 15 c 0,41,42
 275 0 275 0 252 0 c 0,43,44
 230 0 230 0 215 15 c 0,45,46
 206 24 206 24 202 36 c 1,47,48
 198 24 198 24 190 15 c 0,49,50
 175 0 175 0 153 0 c 1,51,-1
 153 0 l 1,6,7
52 100 m 1,52,53
 30 100 30 100 15 116 c 0,54,55
 0 131 0 131 0 153 c 128,-1,56
 0 175 0 175 15 190 c 0,57,58
 29.0625 204.0625 29.0625 204.0625 49.27734375 204.0625 c 0,59,60
 50.625 204.0625 50.625 204.0625 52 204 c 0,61,62
 74 204 74 204 90 190 c 256,63,64
 105 175 105 175 105 153 c 0,65,66
 105 132 105 132 90 116 c 256,67,68
 74 101 74 101 52 100 c 1,69,-1
 52 100 l 1,52,53
452 100 m 1,70,71
 430 100 430 100 415 116 c 256,72,73
 400 131 400 131 400 153 c 128,-1,74
 400 175 400 175 415 190 c 0,75,76
 424 199 424 199 436 202 c 1,77,-1
 436 202 l 1,78,79
 425 206 425 206 415 215 c 0,80,81
 400 230 400 230 400 252 c 128,-1,82
 400 274 400 274 415 290 c 0,83,84
 424 299 424 299 436 302 c 1,85,-1
 436 302 l 1,86,87
 425 306 425 306 415 315 c 0,88,89
 400 330 400 330 400 352 c 128,-1,90
 400 374 400 374 415 390 c 0,91,92
 430 405 430 405 452 405 c 128,-1,93
 474 405 474 405 489 390 c 128,-1,94
 504 375 504 375 505 352 c 0,95,96
 505 330 505 330 489 315 c 0,97,98
 480 306 480 306 469 302 c 1,99,-1
 469 302 l 1,100,101
 480 298 480 298 489 290 c 0,102,103
 504 275 504 275 505 252 c 0,104,105
 505 230 505 230 489 215 c 0,106,107
 480 206 480 206 469 202 c 1,108,-1
 469 202 l 1,109,110
 480 198 480 198 489 190 c 0,111,112
 504 175 504 175 505 153 c 0,113,114
 505 132 505 132 489 116 c 256,115,116
 474 101 474 101 452 100 c 1,117,-1
 452 100 l 1,70,71
202 436 m 1,118,-1
 202 436 l 1,119,-1
 202 436 l 1,120,-1
 202 436 l 1,121,-1
 202 436 l 1,118,-1
102 636 m 1,122,-1
 102 636 l 1,123,-1
 102 636 l 1,124,-1
 102 636 l 1,125,-1
 102 636 l 1,122,-1
302 636 m 1,126,-1
 302 636 l 1,127,-1
 302 636 l 1,128,-1
 302 636 l 1,129,-1
 302 636 l 1,126,-1
52 400 m 1,130,131
 30 400 30 400 15 415 c 128,-1,132
 0 430 0 430 0 452 c 128,-1,133
 0 474 0 474 15 489 c 0,134,135
 24 498 24 498 36 503 c 1,136,-1
 36 503 l 1,137,138
 24 507 24 507 15 515 c 0,139,140
 0 530 0 530 0 552 c 256,141,142
 0 574 0 574 15 589 c 0,143,144
 24 598 24 598 36 602 c 1,145,-1
 36 602 l 1,146,147
 24 606 24 606 15 615 c 0,148,149
 0 630 0 630 0 652 c 128,-1,150
 0 674 0 674 15 690 c 0,151,152
 30 705 30 705 52 705 c 0,153,154
 53.2941176471 705.058823529 53.2941176471 705.058823529 54.5674740484 705.058823529 c 0,155,156
 74.9411764706 705.058823529 74.9411764706 705.058823529 90 690 c 0,157,158
 99 681 99 681 102 669 c 1,159,-1
 102 669 l 1,160,161
 106 680 106 680 116 690 c 0,162,163
 131 705 131 705 153 705 c 0,164,165
 154.294117647 705.058823529 154.294117647 705.058823529 155.564013841 705.058823529 c 0,166,167
 175.882352941 705.058823529 175.882352941 705.058823529 190 690 c 0,168,169
 199 681 199 681 202 669 c 1,170,-1
 202 669 l 1,171,172
 206 680 206 680 215 690 c 0,173,174
 230 705 230 705 252 705 c 0,175,176
 253.294117647 705.058823529 253.294117647 705.058823529 254.567474048 705.058823529 c 0,177,178
 274.941176471 705.058823529 274.941176471 705.058823529 290 690 c 0,179,180
 299 681 299 681 302 669 c 1,181,-1
 302 669 l 1,182,183
 306 680 306 680 315 690 c 0,184,185
 330 705 330 705 352 705 c 0,186,187
 353.294117647 705.058823529 353.294117647 705.058823529 354.567474048 705.058823529 c 0,188,189
 374.941176471 705.058823529 374.941176471 705.058823529 390 690 c 0,190,191
 398 681 398 681 402 669 c 1,192,-1
 402 669 l 1,193,194
 406 680 406 680 415 690 c 0,195,196
 430 705 430 705 452 705 c 0,197,198
 453.294117647 705.058823529 453.294117647 705.058823529 454.564013841 705.058823529 c 0,199,200
 474.882352941 705.058823529 474.882352941 705.058823529 489 690 c 256,201,202
 504 675 504 675 505 652 c 0,203,204
 505 630 505 630 489 615 c 256,205,206
 474 600 474 600 452 600 c 128,-1,207
 430 600 430 600 415 615 c 0,208,209
 406 624 406 624 402 636 c 1,210,211
 398 625 398 625 390 615 c 0,212,213
 375 600 375 600 352 600 c 0,214,215
 330 600 330 600 315 615 c 0,216,217
 306 624 306 624 302 636 c 1,218,219
 298 625 298 625 290 615 c 0,220,221
 275 600 275 600 252 600 c 0,222,223
 230 600 230 600 215 615 c 0,224,225
 206 624 206 624 202 636 c 1,226,227
 198 625 198 625 190 615 c 0,228,229
 175 600 175 600 153 600 c 0,230,231
 132 600 132 600 116 615 c 0,232,233
 107 624 107 624 102 636 c 1,234,-1
 102 636 l 1,235,236
 98 625 98 625 90 615 c 256,237,238
 81 606 81 606 69 602 c 1,239,-1
 69 602 l 1,240,241
 81 598 81 598 90 589 c 0,242,243
 105 574 105 574 105 552 c 256,244,245
 105 530 105 530 90 515 c 0,246,247
 81 506 81 506 69 503 c 1,248,-1
 69 503 l 1,249,250
 81 499 81 499 90 489 c 256,251,252
 99 480 99 480 102 469 c 1,253,-1
 102 469 l 1,254,255
 106 480 106 480 116 489 c 0,256,257
 131 504 131 504 153 505 c 0,258,259
 175 505 175 505 190 489 c 0,260,261
 199 480 199 480 202 469 c 1,262,-1
 202 469 l 1,263,264
 206 480 206 480 215 489 c 0,265,266
 230 504 230 504 252 505 c 0,267,268
 274 505 274 505 290 489 c 0,269,270
 299 480 299 480 302 469 c 1,271,-1
 302 469 l 1,272,273
 306 480 306 480 315 489 c 0,274,275
 330 504 330 504 352 505 c 0,276,277
 374 505 374 505 390 489 c 0,278,279
 405 474 405 474 405 452 c 128,-1,280
 405 430 405 430 390 415 c 128,-1,281
 375 400 375 400 352 400 c 0,282,283
 330 400 330 400 315 415 c 0,284,285
 306 424 306 424 302 436 c 1,286,287
 298 425 298 425 290 415 c 0,288,289
 275 400 275 400 252 400 c 0,290,291
 230 400 230 400 215 415 c 0,292,293
 206 424 206 424 202 436 c 1,294,295
 198 425 198 425 190 415 c 0,296,297
 175 400 175 400 153 400 c 0,298,299
 132 400 132 400 116 415 c 0,300,301
 107 424 107 424 102 436 c 1,302,-1
 102 436 l 1,303,304
 98 425 98 425 90 415 c 0,305,306
 74 400 74 400 52 400 c 1,307,-1
 52 400 l 1,130,131
EndSplineSet
Validated: 524293
EndChar

StartChar: six
Encoding: 54 54 22
Width: 599
VWidth: 699
Flags: W
LayerCount: 2
Fore
SplineSet
202 36 m 1,0,1
 202 36 l 1,2,-1
 202 36 l 1,3,4
 202 36 l 1,5,-1
 202 36 l 1,0,1
153 0 m 1,6,7
 132 0 132 0 116 15 c 0,8,9
 101 30 101 30 100 52 c 0,10,11
 100 74 100 74 116 90 c 256,12,13
 131 105 131 105 153 105 c 128,-1,14
 175 105 175 105 190 90 c 0,15,16
 199 81 199 81 202 69 c 1,17,-1
 202 69 l 1,18,19
 206 81 206 81 215 90 c 0,20,21
 230 105 230 105 252 105 c 128,-1,22
 274 105 274 105 290 90 c 0,23,24
 299 81 299 81 302 69 c 1,25,-1
 302 69 l 1,26,27
 306 81 306 81 315 90 c 0,28,29
 330 105 330 105 352 105 c 128,-1,30
 374 105 374 105 390 90 c 0,31,32
 405 74 405 74 405 52 c 128,-1,33
 405 30 405 30 390 15 c 128,-1,34
 375 0 375 0 352 0 c 0,35,36
 330 0 330 0 315 15 c 0,37,38
 306 24 306 24 302 36 c 1,39,40
 298 24 298 24 290 15 c 0,41,42
 275 0 275 0 252 0 c 0,43,44
 230 0 230 0 215 15 c 0,45,46
 206 24 206 24 202 36 c 1,47,48
 198 24 198 24 190 15 c 0,49,50
 175 0 175 0 153 0 c 1,51,-1
 153 0 l 1,6,7
452 100 m 1,52,53
 430 100 430 100 415 116 c 256,54,55
 400 131 400 131 400 153 c 128,-1,56
 400 175 400 175 415 190 c 0,57,58
 424 199 424 199 436 202 c 1,59,-1
 436 202 l 1,60,61
 425 206 425 206 415 215 c 0,62,63
 400 230 400 230 400 252 c 128,-1,64
 400 274 400 274 415 290 c 256,65,66
 430 305 430 305 452 305 c 128,-1,67
 474 305 474 305 489 290 c 256,68,69
 504 275 504 275 505 252 c 0,70,71
 505 230 505 230 489 215 c 0,72,73
 480 206 480 206 469 202 c 1,74,-1
 469 202 l 1,75,76
 480 198 480 198 489 190 c 0,77,78
 504 175 504 175 505 153 c 0,79,80
 505 132 505 132 489 116 c 256,81,82
 474 101 474 101 452 100 c 1,83,-1
 452 100 l 1,52,53
202 335 m 1,84,-1
 202 335 l 1,85,-1
 202 335 l 1,86,-1
 202 335 l 1,87,-1
 202 335 l 1,84,-1
52 100 m 1,88,89
 30 100 30 100 15 116 c 0,90,91
 0 131 0 131 0 153 c 128,-1,92
 0 175 0 175 15 190 c 0,93,94
 24 199 24 199 36 202 c 1,95,-1
 36 202 l 1,96,97
 24 206 24 206 15 215 c 0,98,99
 0 230 0 230 0 252 c 128,-1,100
 0 274 0 274 15 290 c 0,101,102
 24 299 24 299 36 302 c 1,103,-1
 36 302 l 1,104,105
 24 306 24 306 15 315 c 0,106,107
 0 330 0 330 0 352 c 128,-1,108
 0 374 0 374 15 390 c 0,109,110
 24 398 24 398 36 402 c 1,111,-1
 36 402 l 1,112,113
 24 406 24 406 15 415 c 0,114,115
 0 430 0 430 0 452 c 128,-1,116
 0 474 0 474 15 489 c 0,117,118
 24 498 24 498 36 503 c 1,119,-1
 36 503 l 1,120,121
 24 507 24 507 15 515 c 0,122,123
 0 530 0 530 0 552 c 256,124,125
 0 574 0 574 15 589 c 128,-1,126
 30 604 30 604 52 605 c 0,127,128
 74 605 74 605 90 589 c 256,129,130
 105 574 105 574 105 552 c 256,131,132
 105 530 105 530 90 515 c 0,133,134
 81 506 81 506 69 503 c 1,135,-1
 69 503 l 1,136,137
 81 499 81 499 90 489 c 0,138,139
 105 474 105 474 105 452 c 128,-1,140
 105 430 105 430 90 415 c 0,141,142
 81 406 81 406 69 402 c 1,143,-1
 69 402 l 1,144,145
 81 398 81 398 90 390 c 0,146,147
 99 381 99 381 102 369 c 1,148,-1
 102 369 l 1,149,150
 106 381 106 381 116 390 c 0,151,152
 131 405 131 405 153 405 c 128,-1,153
 175 405 175 405 190 390 c 0,154,155
 199 381 199 381 202 369 c 1,156,-1
 202 369 l 1,157,158
 206 381 206 381 215 390 c 0,159,160
 230 405 230 405 252 405 c 128,-1,161
 274 405 274 405 290 390 c 0,162,163
 299 381 299 381 302 369 c 1,164,-1
 302 369 l 1,165,166
 306 381 306 381 315 390 c 0,167,168
 330 405 330 405 352 405 c 128,-1,169
 374 405 374 405 390 390 c 0,170,171
 405 375 405 375 405 352 c 0,172,173
 405 330 405 330 390 315 c 128,-1,174
 375 300 375 300 352 300 c 0,175,176
 330 300 330 300 315 315 c 0,177,178
 306 324 306 324 302 335 c 1,179,180
 298 324 298 324 290 315 c 0,181,182
 275 300 275 300 252 300 c 0,183,184
 230 300 230 300 215 315 c 0,185,186
 206 324 206 324 202 335 c 1,187,188
 198 324 198 324 190 315 c 0,189,190
 175 300 175 300 153 300 c 0,191,192
 132 300 132 300 116 315 c 0,193,194
 107 324 107 324 102 335 c 1,195,196
 98 324 98 324 90 315 c 256,197,198
 81 306 81 306 69 302 c 1,199,-1
 69 302 l 1,200,201
 81 298 81 298 90 290 c 0,202,203
 105 275 105 275 105 252 c 0,204,205
 105 230 105 230 90 215 c 0,206,207
 81 206 81 206 69 202 c 1,208,-1
 69 202 l 1,209,210
 81 198 81 198 90 190 c 0,211,212
 105 175 105 175 105 153 c 0,213,214
 105 132 105 132 90 116 c 256,215,216
 74 101 74 101 52 100 c 1,217,-1
 52 100 l 1,88,89
202 636 m 1,218,-1
 202 636 l 1,219,-1
 202 636 l 1,220,-1
 202 636 l 1,221,-1
 202 636 l 1,218,-1
302 636 m 1,222,-1
 302 636 l 1,223,-1
 302 636 l 1,224,-1
 302 636 l 1,225,-1
 302 636 l 1,222,-1
153 600 m 1,226,227
 132 600 132 600 116 615 c 256,228,229
 101 630 101 630 100 652 c 0,230,231
 100 674 100 674 116 690 c 256,232,233
 131 705 131 705 153 705 c 0,234,235
 154.294117647 705.058823529 154.294117647 705.058823529 155.564013841 705.058823529 c 0,236,237
 175.882352941 705.058823529 175.882352941 705.058823529 190 690 c 0,238,239
 199 681 199 681 202 669 c 1,240,-1
 202 669 l 1,241,242
 206 680 206 680 215 690 c 0,243,244
 230 705 230 705 252 705 c 0,245,246
 253.294117647 705.058823529 253.294117647 705.058823529 254.567474048 705.058823529 c 0,247,248
 274.941176471 705.058823529 274.941176471 705.058823529 290 690 c 0,249,250
 299 681 299 681 302 669 c 1,251,-1
 302 669 l 1,252,253
 306 680 306 680 315 690 c 0,254,255
 330 705 330 705 352 705 c 0,256,257
 353.294117647 705.058823529 353.294117647 705.058823529 354.567474048 705.058823529 c 0,258,259
 374.941176471 705.058823529 374.941176471 705.058823529 390 690 c 0,260,261
 398 681 398 681 402 669 c 1,262,-1
 402 669 l 1,263,264
 406 680 406 680 415 690 c 0,265,266
 430 705 430 705 452 705 c 0,267,268
 453.294117647 705.058823529 453.294117647 705.058823529 454.564013841 705.058823529 c 0,269,270
 474.882352941 705.058823529 474.882352941 705.058823529 489 690 c 256,271,272
 504 675 504 675 505 652 c 0,273,274
 505 630 505 630 489 615 c 256,275,276
 474 600 474 600 452 600 c 128,-1,277
 430 600 430 600 415 615 c 0,278,279
 406 624 406 624 402 636 c 1,280,281
 398 625 398 625 390 615 c 0,282,283
 375 600 375 600 352 600 c 0,284,285
 330 600 330 600 315 615 c 0,286,287
 306 624 306 624 302 636 c 1,288,289
 298 625 298 625 290 615 c 0,290,291
 275 600 275 600 252 600 c 0,292,293
 230 600 230 600 215 615 c 0,294,295
 206 624 206 624 202 636 c 1,296,-1
 202 636 l 1,297,298
 198 625 198 625 190 615 c 0,299,300
 175 600 175 600 153 600 c 1,301,-1
 153 600 l 1,226,227
EndSplineSet
Validated: 524293
EndChar

StartChar: seven
Encoding: 55 55 23
Width: 599
VWidth: 699
Flags: W
LayerCount: 2
Fore
SplineSet
153 0 m 1,0,1
 132 0 132 0 116 15 c 0,2,3
 101 30 101 30 100 52 c 0,4,5
 100 74 100 74 116 90 c 0,6,7
 125 99 125 99 136 102 c 1,8,-1
 136 102 l 1,9,10
 126 106 126 106 116 116 c 0,11,12
 101 131 101 131 100 153 c 0,13,14
 100 175 100 175 116 190 c 0,15,16
 125 199 125 199 136 202 c 1,17,-1
 136 202 l 1,18,19
 126 206 126 206 116 215 c 0,20,21
 101 230 101 230 100 252 c 0,22,23
 100 274 100 274 116 290 c 256,24,25
 131 305 131 305 153 305 c 128,-1,26
 175 305 175 305 190 290 c 256,27,28
 204.0625 275.9375 204.0625 275.9375 204.0625 254.84375 c 0,29,30
 204.0625 230.066964286 204.0625 230.066964286 190 215 c 0,31,32
 181 206 181 206 169 202 c 1,33,-1
 169 202 l 1,34,35
 180 198 180 198 190 190 c 0,36,37
 204.0625 175.9375 204.0625 175.9375 204.0625 155.72265625 c 0,38,39
 204.0625 132.071428571 204.0625 132.071428571 190 116 c 0,40,41
 181 107 181 107 169 102 c 1,42,-1
 169 102 l 1,43,44
 180 98 180 98 190 90 c 0,45,46
 204.0625 75 204.0625 75 204.0625 54.7265625 c 0,47,48
 204.0625 30.0669642857 204.0625 30.0669642857 190 15 c 0,49,50
 175 0 175 0 153 0 c 1,51,-1
 153 0 l 1,0,1
252 300 m 1,52,53
 230 300 230 300 215 315 c 128,-1,54
 200 330 200 330 200 352 c 128,-1,55
 200 374 200 374 215 390 c 0,56,57
 230 405 230 405 252 405 c 128,-1,58
 274 405 274 405 290 390 c 0,59,60
 305 375 305 375 305 352 c 0,61,62
 305 330 305 330 290 315 c 256,63,64
 275 300 275 300 252 300 c 1,65,-1
 252 300 l 1,52,53
352 400 m 1,66,67
 330 400 330 400 315 415 c 256,68,69
 300 430 300 430 300 452 c 128,-1,70
 300 474 300 474 315 489 c 256,71,72
 330 504 330 504 352 505 c 0,73,74
 374 505 374 505 390 489 c 0,75,76
 405 474 405 474 405 452 c 128,-1,77
 405 430 405 430 390 415 c 128,-1,78
 375 400 375 400 352 400 c 1,79,-1
 352 400 l 1,66,67
102 636 m 1,80,-1
 102 636 l 1,81,-1
 102 636 l 1,82,-1
 102 636 l 1,83,-1
 102 636 l 1,80,-1
302 636 m 1,84,-1
 302 636 l 1,85,-1
 302 636 l 1,86,-1
 302 636 l 1,87,-1
 302 636 l 1,84,-1
452 500 m 1,88,89
 430 500 430 500 415 515 c 256,90,91
 400 530 400 530 400 552 c 256,92,93
 400 574 400 574 415 589 c 0,94,95
 424 598 424 598 436 602 c 1,96,-1
 436 602 l 1,97,98
 425 606 425 606 415 615 c 256,99,100
 406 624 406 624 402 636 c 1,101,102
 398 625 398 625 390 615 c 0,103,104
 375 600 375 600 352 600 c 0,105,106
 330 600 330 600 315 615 c 0,107,108
 306 624 306 624 302 636 c 1,109,110
 298 625 298 625 290 615 c 0,111,112
 275 600 275 600 252 600 c 0,113,114
 230 600 230 600 215 615 c 0,115,116
 206 624 206 624 202 636 c 1,117,118
 198 625 198 625 190 615 c 0,119,120
 175 600 175 600 153 600 c 0,121,122
 132 600 132 600 116 615 c 0,123,124
 107 624 107 624 102 636 c 1,125,-1
 102 636 l 1,126,127
 98 625 98 625 90 615 c 0,128,129
 74 600 74 600 52 600 c 128,-1,130
 30 600 30 600 15 615 c 128,-1,131
 0 630 0 630 0 652 c 128,-1,132
 0 674 0 674 15 690 c 0,133,134
 30 705 30 705 52 705 c 0,135,136
 53.2941176471 705.058823529 53.2941176471 705.058823529 54.5674740484 705.058823529 c 0,137,138
 74.9411764706 705.058823529 74.9411764706 705.058823529 90 690 c 0,139,140
 99 681 99 681 102 669 c 1,141,-1
 102 669 l 1,142,143
 106 680 106 680 116 690 c 0,144,145
 131 705 131 705 153 705 c 0,146,147
 154.294117647 705.058823529 154.294117647 705.058823529 155.564013841 705.058823529 c 0,148,149
 175.882352941 705.058823529 175.882352941 705.058823529 190 690 c 0,150,151
 199 681 199 681 202 669 c 1,152,-1
 202 669 l 1,153,154
 206 680 206 680 215 690 c 0,155,156
 230 705 230 705 252 705 c 0,157,158
 253.294117647 705.058823529 253.294117647 705.058823529 254.567474048 705.058823529 c 0,159,160
 274.941176471 705.058823529 274.941176471 705.058823529 290 690 c 0,161,162
 299 681 299 681 302 669 c 1,163,-1
 302 669 l 1,164,165
 306 680 306 680 315 690 c 0,166,167
 330 705 330 705 352 705 c 0,168,169
 353.294117647 705.058823529 353.294117647 705.058823529 354.567474048 705.058823529 c 0,170,171
 374.941176471 705.058823529 374.941176471 705.058823529 390 690 c 0,172,173
 398 681 398 681 402 669 c 1,174,-1
 402 669 l 1,175,176
 406 680 406 680 415 690 c 0,177,178
 430 705 430 705 452 705 c 0,179,180
 453.294117647 705.058823529 453.294117647 705.058823529 454.564013841 705.058823529 c 0,181,182
 474.882352941 705.058823529 474.882352941 705.058823529 489 690 c 256,183,184
 504 675 504 675 505 652 c 0,185,186
 505 630 505 630 489 615 c 0,187,188
 480 606 480 606 469 602 c 1,189,-1
 469 602 l 1,190,191
 480 598 480 598 489 589 c 0,192,193
 504 574 504 574 505 552 c 256,194,195
 505 530 505 530 489 515 c 256,196,197
 474 500 474 500 452 500 c 1,198,-1
 452 500 l 1,88,89
EndSplineSet
Validated: 524293
EndChar

StartChar: eight
Encoding: 56 56 24
Width: 599
VWidth: 699
Flags: W
LayerCount: 2
Fore
SplineSet
202 36 m 1,0,1
 202 36 l 1,2,-1
 202 36 l 1,3,4
 202 36 l 1,5,-1
 202 36 l 1,0,1
153 0 m 1,6,7
 132 0 132 0 116 15 c 0,8,9
 101 30 101 30 100 52 c 0,10,11
 100 74 100 74 116 90 c 256,12,13
 131 105 131 105 153 105 c 128,-1,14
 175 105 175 105 190 90 c 0,15,16
 199 81 199 81 202 69 c 1,17,-1
 202 69 l 1,18,19
 206 81 206 81 215 90 c 0,20,21
 230 105 230 105 252 105 c 128,-1,22
 274 105 274 105 290 90 c 0,23,24
 299 81 299 81 302 69 c 1,25,-1
 302 69 l 1,26,27
 306 81 306 81 315 90 c 0,28,29
 330 105 330 105 352 105 c 128,-1,30
 374 105 374 105 390 90 c 0,31,32
 405 74 405 74 405 52 c 128,-1,33
 405 30 405 30 390 15 c 128,-1,34
 375 0 375 0 352 0 c 0,35,36
 330 0 330 0 315 15 c 0,37,38
 306 24 306 24 302 36 c 1,39,40
 298 24 298 24 290 15 c 0,41,42
 275 0 275 0 252 0 c 0,43,44
 230 0 230 0 215 15 c 0,45,46
 206 24 206 24 202 36 c 1,47,48
 198 24 198 24 190 15 c 0,49,50
 175 0 175 0 153 0 c 1,51,-1
 153 0 l 1,6,7
52 100 m 1,52,53
 30 100 30 100 15 116 c 0,54,55
 0 131 0 131 0 153 c 128,-1,56
 0 175 0 175 15 190 c 0,57,58
 24 199 24 199 36 202 c 1,59,-1
 36 202 l 1,60,61
 24 206 24 206 15 215 c 0,62,63
 0 230 0 230 0 252 c 128,-1,64
 0 274 0 274 15 290 c 0,65,66
 30 305 30 305 52 305 c 128,-1,67
 74 305 74 305 90 290 c 256,68,69
 105 275 105 275 105 252 c 0,70,71
 105 230 105 230 90 215 c 0,72,73
 81 206 81 206 69 202 c 1,74,-1
 69 202 l 1,75,76
 81 198 81 198 90 190 c 0,77,78
 105 175 105 175 105 153 c 0,79,80
 105 132 105 132 90 116 c 256,81,82
 74 101 74 101 52 100 c 1,83,-1
 52 100 l 1,52,53
452 100 m 1,84,85
 430 100 430 100 415 116 c 256,86,87
 400 131 400 131 400 153 c 128,-1,88
 400 175 400 175 415 190 c 0,89,90
 424 199 424 199 436 202 c 1,91,-1
 436 202 l 1,92,93
 425 206 425 206 415 215 c 0,94,95
 400 230 400 230 400 252 c 128,-1,96
 400 274 400 274 415 290 c 256,97,98
 430 305 430 305 452 305 c 128,-1,99
 474 305 474 305 489 290 c 256,100,101
 504 275 504 275 505 252 c 0,102,103
 505 230 505 230 489 215 c 0,104,105
 480 206 480 206 469 202 c 1,106,-1
 469 202 l 1,107,108
 480 198 480 198 489 190 c 0,109,110
 504 175 504 175 505 153 c 0,111,112
 505 132 505 132 489 116 c 256,113,114
 474 101 474 101 452 100 c 1,115,-1
 452 100 l 1,84,85
302 335 m 1,116,-1
 302 335 l 1,117,-1
 302 335 l 1,118,-1
 302 335 l 1,119,-1
 302 335 l 1,116,-1
153 300 m 1,120,121
 132 300 132 300 116 315 c 256,122,123
 101 330 101 330 100 352 c 0,124,125
 100 374 100 374 116 390 c 0,126,127
 131 405 131 405 153 405 c 128,-1,128
 175 405 175 405 190 390 c 0,129,130
 199 381 199 381 202 369 c 1,131,-1
 202 369 l 1,132,133
 206 381 206 381 215 390 c 0,134,135
 230 405 230 405 252 405 c 128,-1,136
 274 405 274 405 290 390 c 0,137,138
 299 381 299 381 302 369 c 1,139,-1
 302 369 l 1,140,141
 306 381 306 381 315 390 c 0,142,143
 330 405 330 405 352 405 c 128,-1,144
 374 405 374 405 390 390 c 0,145,146
 405 375 405 375 405 352 c 0,147,148
 405 330 405 330 390 315 c 128,-1,149
 375 300 375 300 352 300 c 0,150,151
 330 300 330 300 315 315 c 0,152,153
 306 324 306 324 302 335 c 1,154,155
 298 324 298 324 290 315 c 0,156,157
 275 300 275 300 252 300 c 0,158,159
 230 300 230 300 215 315 c 0,160,161
 206 324 206 324 202 335 c 1,162,163
 198 324 198 324 190 315 c 0,164,165
 175 300 175 300 153 300 c 1,166,-1
 153 300 l 1,120,121
52 400 m 1,167,168
 30 400 30 400 15 415 c 128,-1,169
 0 430 0 430 0 452 c 128,-1,170
 0 474 0 474 15 489 c 0,171,172
 24 498 24 498 36 503 c 1,173,-1
 36 503 l 1,174,175
 24 507 24 507 15 515 c 0,176,177
 0 530 0 530 0 552 c 256,178,179
 0 574 0 574 15 589 c 128,-1,180
 30 604 30 604 52 605 c 0,181,182
 74 605 74 605 90 589 c 256,183,184
 105 574 105 574 105 552 c 256,185,186
 105 530 105 530 90 515 c 0,187,188
 81 506 81 506 69 503 c 1,189,-1
 69 503 l 1,190,191
 81 499 81 499 90 489 c 0,192,193
 105 474 105 474 105 452 c 128,-1,194
 105 430 105 430 90 415 c 256,195,196
 74 400 74 400 52 400 c 1,197,-1
 52 400 l 1,167,168
452 400 m 1,198,199
 430 400 430 400 415 415 c 256,200,201
 400 430 400 430 400 452 c 128,-1,202
 400 474 400 474 415 489 c 0,203,204
 424 498 424 498 436 503 c 1,205,-1
 436 503 l 1,206,207
 425 507 425 507 415 515 c 0,208,209
 400 530 400 530 400 552 c 256,210,211
 400 574 400 574 415 589 c 256,212,213
 430 604 430 604 452 605 c 0,214,215
 474 605 474 605 489 589 c 256,216,217
 504 574 504 574 505 552 c 256,218,219
 505 530 505 530 489 515 c 0,220,221
 480 506 480 506 469 503 c 1,222,-1
 469 503 l 1,223,224
 480 499 480 499 489 489 c 0,225,226
 504 474 504 474 505 452 c 0,227,228
 505 430 505 430 489 415 c 256,229,230
 474 400 474 400 452 400 c 1,231,-1
 452 400 l 1,198,199
202 636 m 1,232,-1
 202 636 l 1,233,-1
 202 636 l 1,234,-1
 202 636 l 1,235,-1
 202 636 l 1,232,-1
153 600 m 1,236,237
 132 600 132 600 116 615 c 256,238,239
 101 630 101 630 100 652 c 0,240,241
 100 674 100 674 116 690 c 256,242,243
 131 705 131 705 153 705 c 0,244,245
 154.294117647 705.058823529 154.294117647 705.058823529 155.564013841 705.058823529 c 0,246,247
 175.882352941 705.058823529 175.882352941 705.058823529 190 690 c 0,248,249
 199 681 199 681 202 669 c 1,250,-1
 202 669 l 1,251,252
 206 680 206 680 215 690 c 0,253,254
 230 705 230 705 252 705 c 0,255,256
 253.294117647 705.058823529 253.294117647 705.058823529 254.567474048 705.058823529 c 0,257,258
 274.941176471 705.058823529 274.941176471 705.058823529 290 690 c 0,259,260
 299 681 299 681 302 669 c 1,261,-1
 302 669 l 1,262,263
 306 680 306 680 315 690 c 0,264,265
 330 705 330 705 352 705 c 0,266,267
 353.294117647 705.058823529 353.294117647 705.058823529 354.567474048 705.058823529 c 0,268,269
 374.941176471 705.058823529 374.941176471 705.058823529 390 690 c 128,-1,270
 405 675 405 675 405 652 c 0,271,272
 405 630 405 630 390 615 c 128,-1,273
 375 600 375 600 352 600 c 0,274,275
 330 600 330 600 315 615 c 0,276,277
 306 624 306 624 302 636 c 1,278,279
 298 625 298 625 290 615 c 0,280,281
 275 600 275 600 252 600 c 0,282,283
 230 600 230 600 215 615 c 0,284,285
 206 624 206 624 202 636 c 1,286,287
 198 625 198 625 190 615 c 0,288,289
 175 600 175 600 153 600 c 1,290,-1
 153 600 l 1,236,237
EndSplineSet
Validated: 524293
EndChar

StartChar: nine
Encoding: 57 57 25
Width: 599
VWidth: 699
Flags: W
LayerCount: 2
Fore
SplineSet
102 36 m 1,0,1
 102 36 l 1,2,-1
 102 36 l 1,3,4
 102 36 l 1,5,-1
 102 36 l 1,0,1
302 36 m 1,6,7
 302 36 l 1,8,-1
 302 36 l 1,9,10
 302 36 l 1,11,-1
 302 36 l 1,6,7
52 0 m 1,12,13
 30 0 30 0 15 15 c 128,-1,14
 0 30 0 30 0 52 c 128,-1,15
 0 74 0 74 15 90 c 0,16,17
 30 105 30 105 52 105 c 128,-1,18
 74 105 74 105 90 90 c 0,19,20
 99 81 99 81 102 69 c 1,21,-1
 102 69 l 1,22,23
 106 81 106 81 116 90 c 0,24,25
 131 105 131 105 153 105 c 128,-1,26
 175 105 175 105 190 90 c 0,27,28
 199 81 199 81 202 69 c 1,29,-1
 202 69 l 1,30,31
 206 81 206 81 215 90 c 0,32,33
 230 105 230 105 252 105 c 128,-1,34
 274 105 274 105 290 90 c 0,35,36
 299 81 299 81 302 69 c 1,37,-1
 302 69 l 1,38,39
 306 81 306 81 315 90 c 0,40,41
 330 105 330 105 352 105 c 128,-1,42
 374 105 374 105 390 90 c 0,43,44
 405 74 405 74 405 52 c 128,-1,45
 405 30 405 30 390 15 c 128,-1,46
 375 0 375 0 352 0 c 0,47,48
 330 0 330 0 315 15 c 0,49,50
 306 24 306 24 302 36 c 1,51,52
 298 24 298 24 290 15 c 0,53,54
 275 0 275 0 252 0 c 0,55,56
 230 0 230 0 215 15 c 0,57,58
 206 24 206 24 202 36 c 1,59,-1
 202 36 l 1,60,61
 198 24 198 24 190 15 c 0,62,63
 175 0 175 0 153 0 c 0,64,65
 132 0 132 0 116 15 c 0,66,67
 107 24 107 24 102 36 c 1,68,-1
 102 36 l 1,69,70
 98 24 98 24 90 15 c 0,71,72
 74 0 74 0 52 0 c 1,73,-1
 52 0 l 1,12,13
202 335 m 1,74,-1
 202 335 l 1,75,-1
 202 335 l 1,76,-1
 202 335 l 1,77,-1
 202 335 l 1,74,-1
402 335 m 1,78,-1
 402 335 l 1,79,-1
 402 335 l 1,80,-1
 402 335 l 1,81,-1
 402 335 l 1,78,-1
52 400 m 1,82,83
 30 400 30 400 15 415 c 128,-1,84
 0 430 0 430 0 452 c 128,-1,85
 0 474 0 474 15 489 c 0,86,87
 24 498 24 498 36 503 c 1,88,-1
 36 503 l 1,89,90
 24 507 24 507 15 515 c 0,91,92
 0 530 0 530 0 552 c 256,93,94
 0 574 0 574 15 589 c 128,-1,95
 30 604 30 604 52 605 c 0,96,97
 74 605 74 605 90 589 c 256,98,99
 105 574 105 574 105 552 c 256,100,101
 105 530 105 530 90 515 c 0,102,103
 81 506 81 506 69 503 c 1,104,-1
 69 503 l 1,105,106
 81 499 81 499 90 489 c 0,107,108
 105 474 105 474 105 452 c 128,-1,109
 105 430 105 430 90 415 c 256,110,111
 74 400 74 400 52 400 c 1,112,-1
 52 400 l 1,82,83
452 100 m 1,113,114
 430 100 430 100 415 116 c 256,115,116
 400 131 400 131 400 153 c 128,-1,117
 400 175 400 175 415 190 c 0,118,119
 424 199 424 199 436 202 c 1,120,-1
 436 202 l 1,121,122
 425 206 425 206 415 215 c 0,123,124
 400 230 400 230 400 252 c 128,-1,125
 400 274 400 274 415 290 c 0,126,127
 424 299 424 299 436 302 c 1,128,-1
 436 302 l 1,129,130
 425 306 425 306 415 315 c 256,131,132
 406 324 406 324 402 335 c 1,133,134
 398 324 398 324 390 315 c 0,135,136
 375 300 375 300 352 300 c 0,137,138
 330 300 330 300 315 315 c 0,139,140
 306 324 306 324 302 335 c 1,141,142
 298 324 298 324 290 315 c 0,143,144
 275 300 275 300 252 300 c 0,145,146
 230 300 230 300 215 315 c 0,147,148
 206 324 206 324 202 335 c 1,149,150
 198 324 198 324 190 315 c 0,151,152
 175 300 175 300 153 300 c 0,153,154
 132 300 132 300 116 315 c 256,155,156
 101 330 101 330 100 352 c 0,157,158
 100 374 100 374 116 390 c 0,159,160
 131 405 131 405 153 405 c 128,-1,161
 175 405 175 405 190 390 c 0,162,163
 199 381 199 381 202 369 c 1,164,-1
 202 369 l 1,165,166
 206 381 206 381 215 390 c 0,167,168
 230 405 230 405 252 405 c 128,-1,169
 274 405 274 405 290 390 c 0,170,171
 299 381 299 381 302 369 c 1,172,-1
 302 369 l 1,173,174
 306 381 306 381 315 390 c 0,175,176
 330 405 330 405 352 405 c 128,-1,177
 374 405 374 405 390 390 c 0,178,179
 398 381 398 381 402 369 c 1,180,-1
 402 369 l 1,181,182
 406 381 406 381 415 390 c 0,183,184
 424 398 424 398 436 402 c 1,185,-1
 436 402 l 1,186,187
 425 406 425 406 415 415 c 0,188,189
 400 430 400 430 400 452 c 128,-1,190
 400 474 400 474 415 489 c 0,191,192
 424 498 424 498 436 503 c 1,193,-1
 436 503 l 1,194,195
 425 507 425 507 415 515 c 0,196,197
 400 530 400 530 400 552 c 256,198,199
 400 574 400 574 415 589 c 256,200,201
 430 604 430 604 452 605 c 0,202,203
 474 605 474 605 489 589 c 256,204,205
 504 574 504 574 505 552 c 256,206,207
 505 530 505 530 489 515 c 0,208,209
 480 506 480 506 469 503 c 1,210,-1
 469 503 l 1,211,212
 480 499 480 499 489 489 c 0,213,214
 504 474 504 474 505 452 c 0,215,216
 505 430 505 430 489 415 c 0,217,218
 480 406 480 406 469 402 c 1,219,-1
 469 402 l 1,220,221
 480 398 480 398 489 390 c 0,222,223
 504 375 504 375 505 352 c 0,224,225
 505 330 505 330 489 315 c 0,226,227
 480 306 480 306 469 302 c 1,228,-1
 469 302 l 1,229,230
 480 298 480 298 489 290 c 0,231,232
 504 275 504 275 505 252 c 0,233,234
 505 230 505 230 489 215 c 0,235,236
 480 206 480 206 469 202 c 1,237,-1
 469 202 l 1,238,239
 480 198 480 198 489 190 c 0,240,241
 504 175 504 175 505 153 c 0,242,243
 505 132 505 132 489 116 c 256,244,245
 474 101 474 101 452 100 c 1,246,-1
 452 100 l 1,113,114
202 636 m 1,247,-1
 202 636 l 1,248,-1
 202 636 l 1,249,-1
 202 636 l 1,250,-1
 202 636 l 1,247,-1
153 600 m 1,251,252
 132 600 132 600 116 615 c 256,253,254
 101 630 101 630 100 652 c 0,255,256
 100 674 100 674 116 690 c 256,257,258
 131 705 131 705 153 705 c 0,259,260
 154.294117647 705.058823529 154.294117647 705.058823529 155.564013841 705.058823529 c 0,261,262
 175.882352941 705.058823529 175.882352941 705.058823529 190 690 c 0,263,264
 199 681 199 681 202 669 c 1,265,-1
 202 669 l 1,266,267
 206 680 206 680 215 690 c 0,268,269
 230 705 230 705 252 705 c 0,270,271
 253.294117647 705.058823529 253.294117647 705.058823529 254.567474048 705.058823529 c 0,272,273
 274.941176471 705.058823529 274.941176471 705.058823529 290 690 c 0,274,275
 299 681 299 681 302 669 c 1,276,-1
 302 669 l 1,277,278
 306 680 306 680 315 690 c 0,279,280
 330 705 330 705 352 705 c 0,281,282
 353.294117647 705.058823529 353.294117647 705.058823529 354.567474048 705.058823529 c 0,283,284
 374.941176471 705.058823529 374.941176471 705.058823529 390 690 c 128,-1,285
 405 675 405 675 405 652 c 0,286,287
 405 630 405 630 390 615 c 128,-1,288
 375 600 375 600 352 600 c 0,289,290
 330 600 330 600 315 615 c 0,291,292
 306 624 306 624 302 636 c 1,293,294
 298 625 298 625 290 615 c 0,295,296
 275 600 275 600 252 600 c 0,297,298
 230 600 230 600 215 615 c 0,299,300
 206 624 206 624 202 636 c 1,301,302
 198 625 198 625 190 615 c 0,303,304
 175 600 175 600 153 600 c 1,305,-1
 153 600 l 1,251,252
EndSplineSet
Validated: 524293
EndChar

StartChar: colon
Encoding: 58 58 26
Width: 599
VWidth: 699
Flags: W
LayerCount: 2
Fore
SplineSet
252 200 m 1,0,1
 230 200 230 200 215 215 c 0,2,3
 200 230 200 230 200 252 c 0,4,5
 200 274 200 274 215 290 c 0,6,7
 230 305 230 305 252 305 c 0,8,9
 274 305 274 305 290 290 c 256,10,11
 305 275 305 275 305 252 c 0,12,13
 305 230 305 230 290 215 c 0,14,15
 275 200 275 200 252 200 c 1,16,-1
 252 200 l 1,0,1
252 400 m 1,17,18
 230 400 230 400 215 415 c 0,19,20
 200 430 200 430 200 452 c 0,21,22
 200 474 200 474 215 489 c 0,23,24
 230 504 230 504 252 505 c 0,25,26
 274 505 274 505 290 489 c 256,27,28
 305 474 305 474 305 452 c 0,29,30
 305 430 305 430 290 415 c 256,31,32
 275 400 275 400 252 400 c 1,33,-1
 252 400 l 1,17,18
EndSplineSet
Validated: 5
EndChar

StartChar: semicolon
Encoding: 59 59 27
Width: 599
VWidth: 699
Flags: W
LayerCount: 2
Fore
SplineSet
153 0 m 1,0,1
 132 0 132 0 116 15 c 0,2,3
 101 30 101 30 100 52 c 0,4,5
 100 74 100 74 116 90 c 256,6,7
 131 105 131 105 153 105 c 128,-1,8
 175 105 175 105 190 90 c 256,9,10
 204.0625 75 204.0625 75 204.0625 54.7265625 c 0,11,12
 204.0625 30.0669642857 204.0625 30.0669642857 190 15 c 0,13,14
 175 0 175 0 153 0 c 1,15,-1
 153 0 l 1,0,1
252 100 m 1,16,17
 230 100 230 100 215 116 c 0,18,19
 200 131 200 131 200 153 c 128,-1,20
 200 175 200 175 215 190 c 0,21,22
 224 199 224 199 236 202 c 1,23,-1
 236 202 l 1,24,25
 224 206 224 206 215 215 c 0,26,27
 200 230 200 230 200 252 c 128,-1,28
 200 274 200 274 215 290 c 0,29,30
 230 305 230 305 252 305 c 128,-1,31
 274 305 274 305 290 290 c 256,32,33
 305 275 305 275 305 252 c 0,34,35
 305 230 305 230 290 215 c 0,36,37
 281 206 281 206 269 202 c 1,38,-1
 269 202 l 1,39,40
 280 198 280 198 290 190 c 0,41,42
 305 175 305 175 305 153 c 0,43,44
 305 132 305 132 290 116 c 256,45,46
 275 101 275 101 252 100 c 1,47,-1
 252 100 l 1,16,17
252 400 m 1,48,49
 230 400 230 400 215 415 c 128,-1,50
 200 430 200 430 200 452 c 128,-1,51
 200 474 200 474 215 489 c 128,-1,52
 230 504 230 504 252 505 c 0,53,54
 274 505 274 505 290 489 c 256,55,56
 305 474 305 474 305 452 c 128,-1,57
 305 430 305 430 290 415 c 256,58,59
 275 400 275 400 252 400 c 1,60,-1
 252 400 l 1,48,49
EndSplineSet
Validated: 524293
EndChar

StartChar: less
Encoding: 60 60 28
Width: 599
VWidth: 699
Flags: W
LayerCount: 2
Fore
SplineSet
452 0 m 1,0,1
 430 0 430 0 415 15 c 128,-1,2
 400 30 400 30 400 52 c 128,-1,3
 400 74 400 74 415 90 c 256,4,5
 430 105 430 105 452 105 c 128,-1,6
 474 105 474 105 489 90 c 256,7,8
 504 74 504 74 505 52 c 0,9,10
 505 30 505 30 489 15 c 0,11,12
 474 0 474 0 452 0 c 1,13,-1
 452 0 l 1,0,1
352 100 m 1,14,15
 330 100 330 100 315 116 c 256,16,17
 300 131 300 131 300 153 c 128,-1,18
 300 175 300 175 315 190 c 256,19,20
 329.0625 204.0625 329.0625 204.0625 349.27734375 204.0625 c 0,21,22
 350.625 204.0625 350.625 204.0625 352 204 c 0,23,24
 374 204 374 204 390 190 c 0,25,26
 405 175 405 175 405 153 c 0,27,28
 405 132 405 132 390 116 c 0,29,30
 375 101 375 101 352 100 c 1,31,-1
 352 100 l 1,14,15
252 200 m 1,32,33
 230 200 230 200 215 215 c 128,-1,34
 200 230 200 230 200 252 c 128,-1,35
 200 274 200 274 215 290 c 0,36,37
 230 305 230 305 252 305 c 128,-1,38
 274 305 274 305 290 290 c 256,39,40
 305 275 305 275 305 252 c 0,41,42
 305 230 305 230 290 215 c 128,-1,43
 275 200 275 200 252 200 c 1,44,-1
 252 200 l 1,32,33
153 300 m 1,45,46
 132 300 132 300 116 315 c 256,47,48
 101 330 101 330 100 352 c 0,49,50
 100 374 100 374 116 390 c 0,51,52
 131 405 131 405 153 405 c 128,-1,53
 175 405 175 405 190 390 c 0,54,55
 204.0625 375.9375 204.0625 375.9375 204.0625 354.84375 c 0,56,57
 204.0625 330.066964286 204.0625 330.066964286 190 315 c 256,58,59
 175 300 175 300 153 300 c 1,60,-1
 153 300 l 1,45,46
252 400 m 1,61,62
 230 400 230 400 215 415 c 128,-1,63
 200 430 200 430 200 452 c 128,-1,64
 200 474 200 474 215 489 c 128,-1,65
 230 504 230 504 252 505 c 0,66,67
 274 505 274 505 290 489 c 256,68,69
 305 474 305 474 305 452 c 128,-1,70
 305 430 305 430 290 415 c 256,71,72
 275 400 275 400 252 400 c 1,73,-1
 252 400 l 1,61,62
352 500 m 1,74,75
 330 500 330 500 315 515 c 256,76,77
 300 530 300 530 300 552 c 256,78,79
 300 574 300 574 315 589 c 256,80,81
 330 604 330 604 352 605 c 0,82,83
 374 605 374 605 390 589 c 0,84,85
 405 574 405 574 405 552 c 256,86,87
 405 530 405 530 390 515 c 128,-1,88
 375 500 375 500 352 500 c 1,89,-1
 352 500 l 1,74,75
452 600 m 1,90,91
 430 600 430 600 415 615 c 256,92,93
 400 630 400 630 400 652 c 128,-1,94
 400 674 400 674 415 690 c 256,95,96
 430 705 430 705 452 705 c 0,97,98
 453.294117647 705.058823529 453.294117647 705.058823529 454.564013841 705.058823529 c 0,99,100
 474.882352941 705.058823529 474.882352941 705.058823529 489 690 c 256,101,102
 504 675 504 675 505 652 c 0,103,104
 505 630 505 630 489 615 c 256,105,106
 474 600 474 600 452 600 c 1,107,-1
 452 600 l 1,90,91
EndSplineSet
Validated: 524293
EndChar

StartChar: equal
Encoding: 61 61 29
Width: 599
VWidth: 699
Flags: W
LayerCount: 2
Fore
SplineSet
102 236 m 1,0,1
 102 236 l 1,2,-1
 102 236 l 1,3,4
 102 236 l 1,5,-1
 102 236 l 1,0,1
302 236 m 1,6,7
 302 236 l 1,8,-1
 302 236 l 1,9,10
 302 236 l 1,11,-1
 302 236 l 1,6,7
52 200 m 1,12,13
 30 200 30 200 15 215 c 0,14,15
 0 230 0 230 0 252 c 0,16,17
 0 274 0 274 15 290 c 0,18,19
 30 305 30 305 52 305 c 0,20,21
 74 305 74 305 90 290 c 0,22,23
 99 281 99 281 102 269 c 1,24,-1
 102 269 l 1,25,26
 106 280 106 280 116 290 c 0,27,28
 131 305 131 305 153 305 c 0,29,30
 175 305 175 305 190 290 c 0,31,32
 199 281 199 281 202 269 c 1,33,-1
 202 269 l 1,34,35
 206 280 206 280 215 290 c 0,36,37
 230 305 230 305 252 305 c 0,38,39
 274 305 274 305 290 290 c 0,40,41
 299 281 299 281 302 269 c 1,42,-1
 302 269 l 1,43,44
 306 280 306 280 315 290 c 0,45,46
 330 305 330 305 352 305 c 0,47,48
 374 305 374 305 390 290 c 0,49,50
 398 281 398 281 402 269 c 1,51,-1
 402 269 l 1,52,53
 406 280 406 280 415 290 c 0,54,55
 430 305 430 305 452 305 c 0,56,57
 474 305 474 305 489 290 c 256,58,59
 504 275 504 275 505 252 c 0,60,61
 505 230 505 230 489 215 c 0,62,63
 474 200 474 200 452 200 c 0,64,65
 430 200 430 200 415 215 c 0,66,67
 406 224 406 224 402 236 c 1,68,69
 398 224 398 224 390 215 c 0,70,71
 375 200 375 200 352 200 c 0,72,73
 330 200 330 200 315 215 c 0,74,75
 306 224 306 224 302 236 c 1,76,77
 298 224 298 224 290 215 c 0,78,79
 275 200 275 200 252 200 c 0,80,81
 230 200 230 200 215 215 c 0,82,83
 206 224 206 224 202 236 c 1,84,85
 198 224 198 224 190 215 c 0,86,87
 175 200 175 200 153 200 c 0,88,89
 132 200 132 200 116 215 c 0,90,91
 107 224 107 224 102 236 c 1,92,-1
 102 236 l 1,93,94
 98 224 98 224 90 215 c 0,95,96
 74 200 74 200 52 200 c 1,97,-1
 52 200 l 1,12,13
102 436 m 1,98,99
 102 436 l 1,100,-1
 102 436 l 1,101,102
 102 436 l 1,103,-1
 102 436 l 1,98,99
202 436 m 1,104,105
 202 436 l 1,106,-1
 202 436 l 1,107,108
 202 436 l 1,109,-1
 202 436 l 1,104,105
402 436 m 1,110,111
 402 436 l 1,112,-1
 402 436 l 1,113,114
 402 436 l 1,115,-1
 402 436 l 1,110,111
52 400 m 1,116,117
 30 400 30 400 15 415 c 0,118,119
 0 430 0 430 0 452 c 0,120,121
 0 474 0 474 15 489 c 0,122,123
 30 504 30 504 52 505 c 0,124,125
 74 505 74 505 90 489 c 0,126,127
 99 480 99 480 102 469 c 1,128,-1
 102 469 l 1,129,130
 106 480 106 480 116 489 c 0,131,132
 131 504 131 504 153 505 c 0,133,134
 175 505 175 505 190 489 c 0,135,136
 199 480 199 480 202 469 c 1,137,-1
 202 469 l 1,138,139
 206 480 206 480 215 489 c 0,140,141
 230 504 230 504 252 505 c 0,142,143
 274 505 274 505 290 489 c 0,144,145
 299 480 299 480 302 469 c 1,146,-1
 302 469 l 1,147,148
 306 480 306 480 315 489 c 0,149,150
 330 504 330 504 352 505 c 0,151,152
 374 505 374 505 390 489 c 0,153,154
 398 480 398 480 402 469 c 1,155,-1
 402 469 l 1,156,157
 406 480 406 480 415 489 c 0,158,159
 430 504 430 504 452 505 c 0,160,161
 474 505 474 505 489 489 c 256,162,163
 504 474 504 474 505 452 c 0,164,165
 505 430 505 430 489 415 c 256,166,167
 474 400 474 400 452 400 c 0,168,169
 430 400 430 400 415 415 c 0,170,171
 406 424 406 424 402 436 c 1,172,173
 398 425 398 425 390 415 c 0,174,175
 375 400 375 400 352 400 c 0,176,177
 330 400 330 400 315 415 c 0,178,179
 306 424 306 424 302 436 c 1,180,-1
 302 436 l 1,181,182
 298 425 298 425 290 415 c 0,183,184
 275 400 275 400 252 400 c 0,185,186
 230 400 230 400 215 415 c 0,187,188
 206 424 206 424 202 436 c 1,189,190
 198 425 198 425 190 415 c 0,191,192
 175 400 175 400 153 400 c 0,193,194
 132 400 132 400 116 415 c 0,195,196
 107 424 107 424 102 436 c 1,197,-1
 102 436 l 1,198,199
 98 425 98 425 90 415 c 0,200,201
 74 400 74 400 52 400 c 1,202,-1
 52 400 l 1,116,117
EndSplineSet
Validated: 5
EndChar

StartChar: greater
Encoding: 62 62 30
Width: 599
VWidth: 699
Flags: W
LayerCount: 2
Fore
SplineSet
52 0 m 1,0,1
 30 0 30 0 15 15 c 128,-1,2
 0 30 0 30 0 52 c 128,-1,3
 0 74 0 74 15 90 c 0,4,5
 30 105 30 105 52 105 c 128,-1,6
 74 105 74 105 90 90 c 256,7,8
 105 74 105 74 105 52 c 128,-1,9
 105 30 105 30 90 15 c 0,10,11
 74 0 74 0 52 0 c 1,12,-1
 52 0 l 1,0,1
153 100 m 1,13,14
 132 100 132 100 116 116 c 256,15,16
 101 131 101 131 100 153 c 0,17,18
 100 175 100 175 116 190 c 256,19,20
 130.0625 204.0625 130.0625 204.0625 150.27734375 204.0625 c 0,21,22
 151.625 204.0625 151.625 204.0625 153 204 c 0,23,24
 175 204 175 204 190 190 c 256,25,26
 204.0625 175.9375 204.0625 175.9375 204.0625 155.72265625 c 0,27,28
 204.0625 132.071428571 204.0625 132.071428571 190 116 c 256,29,30
 175 101 175 101 153 100 c 1,31,-1
 153 100 l 1,13,14
252 200 m 1,32,33
 230 200 230 200 215 215 c 128,-1,34
 200 230 200 230 200 252 c 128,-1,35
 200 274 200 274 215 290 c 0,36,37
 230 305 230 305 252 305 c 128,-1,38
 274 305 274 305 290 290 c 256,39,40
 305 275 305 275 305 252 c 0,41,42
 305 230 305 230 290 215 c 128,-1,43
 275 200 275 200 252 200 c 1,44,-1
 252 200 l 1,32,33
352 300 m 1,45,46
 330 300 330 300 315 315 c 256,47,48
 300 330 300 330 300 352 c 128,-1,49
 300 374 300 374 315 390 c 0,50,51
 330 405 330 405 352 405 c 128,-1,52
 374 405 374 405 390 390 c 0,53,54
 405 375 405 375 405 352 c 0,55,56
 405 330 405 330 390 315 c 128,-1,57
 375 300 375 300 352 300 c 1,58,-1
 352 300 l 1,45,46
252 400 m 1,59,60
 230 400 230 400 215 415 c 128,-1,61
 200 430 200 430 200 452 c 128,-1,62
 200 474 200 474 215 489 c 128,-1,63
 230 504 230 504 252 505 c 0,64,65
 274 505 274 505 290 489 c 256,66,67
 305 474 305 474 305 452 c 128,-1,68
 305 430 305 430 290 415 c 256,69,70
 275 400 275 400 252 400 c 1,71,-1
 252 400 l 1,59,60
153 500 m 1,72,73
 132 500 132 500 116 515 c 256,74,75
 101 530 101 530 100 552 c 256,76,77
 100 574 100 574 116 589 c 256,78,79
 131 604 131 604 153 605 c 0,80,81
 175 605 175 605 190 589 c 256,82,83
 204.0625 574.9375 204.0625 574.9375 204.0625 554.72265625 c 0,84,85
 204.0625 530.066964286 204.0625 530.066964286 190 515 c 256,86,87
 175 500 175 500 153 500 c 1,88,-1
 153 500 l 1,72,73
52 600 m 1,89,90
 30 600 30 600 15 615 c 128,-1,91
 0 630 0 630 0 652 c 128,-1,92
 0 674 0 674 15 690 c 0,93,94
 30 705 30 705 52 705 c 0,95,96
 53.2941176471 705.058823529 53.2941176471 705.058823529 54.5674740484 705.058823529 c 0,97,98
 74.9411764706 705.058823529 74.9411764706 705.058823529 90 690 c 256,99,100
 105 675 105 675 105 652 c 0,101,102
 105 630 105 630 90 615 c 256,103,104
 74 600 74 600 52 600 c 1,105,-1
 52 600 l 1,89,90
EndSplineSet
Validated: 524293
EndChar

StartChar: question
Encoding: 63 63 31
Width: 599
VWidth: 699
Flags: W
LayerCount: 2
Fore
SplineSet
252 0 m 1,0,1
 230 0 230 0 215 15 c 128,-1,2
 200 30 200 30 200 52 c 128,-1,3
 200 74 200 74 215 90 c 0,4,5
 230 105 230 105 252 105 c 128,-1,6
 274 105 274 105 290 90 c 256,7,8
 305 74 305 74 305 52 c 128,-1,9
 305 30 305 30 290 15 c 128,-1,10
 275 0 275 0 252 0 c 1,11,-1
 252 0 l 1,0,1
252 200 m 1,12,13
 230 200 230 200 215 215 c 128,-1,14
 200 230 200 230 200 252 c 128,-1,15
 200 274 200 274 215 290 c 0,16,17
 230 305 230 305 252 305 c 128,-1,18
 274 305 274 305 290 290 c 256,19,20
 305 275 305 275 305 252 c 0,21,22
 305 230 305 230 290 215 c 128,-1,23
 275 200 275 200 252 200 c 1,24,-1
 252 200 l 1,12,13
352 300 m 1,25,26
 330 300 330 300 315 315 c 256,27,28
 300 330 300 330 300 352 c 128,-1,29
 300 374 300 374 315 390 c 0,30,31
 330 405 330 405 352 405 c 128,-1,32
 374 405 374 405 390 390 c 0,33,34
 405 375 405 375 405 352 c 0,35,36
 405 330 405 330 390 315 c 128,-1,37
 375 300 375 300 352 300 c 1,38,-1
 352 300 l 1,25,26
52 500 m 1,39,40
 30 500 30 500 15 515 c 128,-1,41
 0 530 0 530 0 552 c 256,42,43
 0 574 0 574 15 589 c 128,-1,44
 30 604 30 604 52 605 c 0,45,46
 74 605 74 605 90 589 c 256,47,48
 105 574 105 574 105 552 c 256,49,50
 105 530 105 530 90 515 c 256,51,52
 74 500 74 500 52 500 c 1,53,-1
 52 500 l 1,39,40
452 400 m 1,54,55
 430 400 430 400 415 415 c 256,56,57
 400 430 400 430 400 452 c 128,-1,58
 400 474 400 474 415 489 c 0,59,60
 424 498 424 498 436 503 c 1,61,-1
 436 503 l 1,62,63
 425 507 425 507 415 515 c 0,64,65
 400 530 400 530 400 552 c 256,66,67
 400 574 400 574 415 589 c 256,68,69
 430 604 430 604 452 605 c 0,70,71
 474 605 474 605 489 589 c 256,72,73
 504 574 504 574 505 552 c 256,74,75
 505 530 505 530 489 515 c 0,76,77
 480 506 480 506 469 503 c 1,78,-1
 469 503 l 1,79,80
 480 499 480 499 489 489 c 0,81,82
 504 474 504 474 505 452 c 0,83,84
 505 430 505 430 489 415 c 256,85,86
 474 400 474 400 452 400 c 1,87,-1
 452 400 l 1,54,55
202 636 m 1,88,-1
 202 636 l 1,89,-1
 202 636 l 1,90,-1
 202 636 l 1,91,-1
 202 636 l 1,88,-1
153 600 m 1,92,93
 132 600 132 600 116 615 c 256,94,95
 101 630 101 630 100 652 c 0,96,97
 100 674 100 674 116 690 c 256,98,99
 131 705 131 705 153 705 c 0,100,101
 154.294117647 705.058823529 154.294117647 705.058823529 155.564013841 705.058823529 c 0,102,103
 175.882352941 705.058823529 175.882352941 705.058823529 190 690 c 0,104,105
 199 681 199 681 202 669 c 1,106,-1
 202 669 l 1,107,108
 206 680 206 680 215 690 c 0,109,110
 230 705 230 705 252 705 c 0,111,112
 253.294117647 705.058823529 253.294117647 705.058823529 254.567474048 705.058823529 c 0,113,114
 274.941176471 705.058823529 274.941176471 705.058823529 290 690 c 0,115,116
 299 681 299 681 302 669 c 1,117,-1
 302 669 l 1,118,119
 306 680 306 680 315 690 c 0,120,121
 330 705 330 705 352 705 c 0,122,123
 353.294117647 705.058823529 353.294117647 705.058823529 354.567474048 705.058823529 c 0,124,125
 374.941176471 705.058823529 374.941176471 705.058823529 390 690 c 128,-1,126
 405 675 405 675 405 652 c 0,127,128
 405 630 405 630 390 615 c 128,-1,129
 375 600 375 600 352 600 c 0,130,131
 330 600 330 600 315 615 c 0,132,133
 306 624 306 624 302 636 c 1,134,135
 298 625 298 625 290 615 c 0,136,137
 275 600 275 600 252 600 c 0,138,139
 230 600 230 600 215 615 c 0,140,141
 206 624 206 624 202 636 c 1,142,143
 198 625 198 625 190 615 c 0,144,145
 175 600 175 600 153 600 c 1,146,-1
 153 600 l 1,92,93
EndSplineSet
Validated: 524293
EndChar

StartChar: at
Encoding: 64 64 32
Width: 599
VWidth: 699
Flags: W
LayerCount: 2
Fore
SplineSet
202 36 m 1,0,1
 202 36 l 1,2,-1
 202 36 l 1,3,4
 202 36 l 1,5,-1
 202 36 l 1,0,1
402 36 m 1,6,7
 402 36 l 1,8,-1
 402 36 l 1,9,10
 402 36 l 1,11,-1
 402 36 l 1,6,7
153 0 m 1,12,13
 132 0 132 0 116 15 c 0,14,15
 101 30 101 30 100 52 c 0,16,17
 100 74 100 74 116 90 c 256,18,19
 131 105 131 105 153 105 c 128,-1,20
 175 105 175 105 190 90 c 0,21,22
 199 81 199 81 202 69 c 1,23,-1
 202 69 l 1,24,25
 206 81 206 81 215 90 c 0,26,27
 230 105 230 105 252 105 c 128,-1,28
 274 105 274 105 290 90 c 0,29,30
 299 81 299 81 302 69 c 1,31,-1
 302 69 l 1,32,33
 306 81 306 81 315 90 c 0,34,35
 330 105 330 105 352 105 c 128,-1,36
 374 105 374 105 390 90 c 0,37,38
 398 81 398 81 402 69 c 1,39,-1
 402 69 l 1,40,41
 406 81 406 81 415 90 c 0,42,43
 430 105 430 105 452 105 c 128,-1,44
 474 105 474 105 489 90 c 256,45,46
 504 74 504 74 505 52 c 0,47,48
 505 30 505 30 489 15 c 0,49,50
 474 0 474 0 452 0 c 128,-1,51
 430 0 430 0 415 15 c 0,52,53
 406 24 406 24 402 36 c 1,54,55
 398 24 398 24 390 15 c 0,56,57
 375 0 375 0 352 0 c 0,58,59
 330 0 330 0 315 15 c 0,60,61
 306 24 306 24 302 36 c 1,62,63
 298 24 298 24 290 15 c 0,64,65
 275 0 275 0 252 0 c 0,66,67
 230 0 230 0 215 15 c 0,68,69
 206 24 206 24 202 36 c 1,70,71
 198 24 198 24 190 15 c 0,72,73
 175 0 175 0 153 0 c 1,74,-1
 153 0 l 1,12,13
302 236 m 1,75,-1
 302 236 l 1,76,-1
 302 236 l 1,77,-1
 302 236 l 1,78,-1
 302 236 l 1,75,-1
252 200 m 1,79,80
 230 200 230 200 215 215 c 128,-1,81
 200 230 200 230 200 252 c 128,-1,82
 200 274 200 274 215 290 c 0,83,84
 224 299 224 299 236 302 c 1,85,-1
 236 302 l 1,86,87
 224 306 224 306 215 315 c 0,88,89
 200 330 200 330 200 352 c 128,-1,90
 200 374 200 374 215 390 c 0,91,92
 230 405 230 405 252 405 c 128,-1,93
 274 405 274 405 290 390 c 0,94,95
 305 375 305 375 305 352 c 0,96,97
 305 330 305 330 290 315 c 0,98,99
 281 306 281 306 269 302 c 1,100,-1
 269 302 l 1,101,102
 280 298 280 298 290 290 c 256,103,104
 299 281 299 281 302 269 c 1,105,-1
 302 269 l 1,106,107
 306 280 306 280 315 290 c 0,108,109
 330 305 330 305 352 305 c 128,-1,110
 374 305 374 305 390 290 c 0,111,112
 405 275 405 275 405 252 c 0,113,114
 405 230 405 230 390 215 c 128,-1,115
 375 200 375 200 352 200 c 0,116,117
 330 200 330 200 315 215 c 0,118,119
 306 224 306 224 302 236 c 1,120,121
 298 224 298 224 290 215 c 0,122,123
 275 200 275 200 252 200 c 1,124,-1
 252 200 l 1,79,80
402 436 m 1,125,-1
 402 436 l 1,126,-1
 402 436 l 1,127,-1
 402 436 l 1,128,-1
 402 436 l 1,125,-1
52 100 m 1,129,130
 30 100 30 100 15 116 c 0,131,132
 0 131 0 131 0 153 c 128,-1,133
 0 175 0 175 15 190 c 0,134,135
 24 199 24 199 36 202 c 1,136,-1
 36 202 l 1,137,138
 24 206 24 206 15 215 c 0,139,140
 0 230 0 230 0 252 c 128,-1,141
 0 274 0 274 15 290 c 0,142,143
 24 299 24 299 36 302 c 1,144,-1
 36 302 l 1,145,146
 24 306 24 306 15 315 c 0,147,148
 0 330 0 330 0 352 c 128,-1,149
 0 374 0 374 15 390 c 0,150,151
 24 398 24 398 36 402 c 1,152,-1
 36 402 l 1,153,154
 24 406 24 406 15 415 c 0,155,156
 0 430 0 430 0 452 c 128,-1,157
 0 474 0 474 15 489 c 0,158,159
 24 498 24 498 36 503 c 1,160,-1
 36 503 l 1,161,162
 24 507 24 507 15 515 c 0,163,164
 0 530 0 530 0 552 c 256,165,166
 0 574 0 574 15 589 c 128,-1,167
 30 604 30 604 52 605 c 0,168,169
 74 605 74 605 90 589 c 256,170,171
 105 574 105 574 105 552 c 256,172,173
 105 530 105 530 90 515 c 0,174,175
 81 506 81 506 69 503 c 1,176,-1
 69 503 l 1,177,178
 81 499 81 499 90 489 c 0,179,180
 105 474 105 474 105 452 c 128,-1,181
 105 430 105 430 90 415 c 0,182,183
 81 406 81 406 69 402 c 1,184,-1
 69 402 l 1,185,186
 81 398 81 398 90 390 c 0,187,188
 105 375 105 375 105 352 c 0,189,190
 105 330 105 330 90 315 c 0,191,192
 81 306 81 306 69 302 c 1,193,-1
 69 302 l 1,194,195
 81 298 81 298 90 290 c 0,196,197
 105 275 105 275 105 252 c 0,198,199
 105 230 105 230 90 215 c 0,200,201
 81 206 81 206 69 202 c 1,202,-1
 69 202 l 1,203,204
 81 198 81 198 90 190 c 0,205,206
 105 175 105 175 105 153 c 0,207,208
 105 132 105 132 90 116 c 256,209,210
 74 101 74 101 52 100 c 1,211,-1
 52 100 l 1,129,130
452 300 m 1,212,213
 430 300 430 300 415 315 c 256,214,215
 400 330 400 330 400 352 c 128,-1,216
 400 374 400 374 415 390 c 0,217,218
 424 398 424 398 436 402 c 1,219,-1
 436 402 l 1,220,221
 425 406 425 406 415 415 c 256,222,223
 406 424 406 424 402 436 c 1,224,225
 398 425 398 425 390 415 c 0,226,227
 375 400 375 400 352 400 c 0,228,229
 330 400 330 400 315 415 c 256,230,231
 300 430 300 430 300 452 c 128,-1,232
 300 474 300 474 315 489 c 256,233,234
 330 504 330 504 352 505 c 0,235,236
 374 505 374 505 390 489 c 0,237,238
 398 480 398 480 402 469 c 1,239,-1
 402 469 l 1,240,241
 406 480 406 480 415 489 c 256,242,243
 424 498 424 498 436 503 c 1,244,-1
 436 503 l 1,245,246
 425 507 425 507 415 515 c 0,247,248
 400 530 400 530 400 552 c 256,249,250
 400 574 400 574 415 589 c 256,251,252
 430 604 430 604 452 605 c 0,253,254
 474 605 474 605 489 589 c 256,255,256
 504 574 504 574 505 552 c 256,257,258
 505 530 505 530 489 515 c 0,259,260
 480 506 480 506 469 503 c 1,261,-1
 469 503 l 1,262,263
 480 499 480 499 489 489 c 0,264,265
 504 474 504 474 505 452 c 0,266,267
 505 430 505 430 489 415 c 0,268,269
 480 406 480 406 469 402 c 1,270,-1
 469 402 l 1,271,272
 480 398 480 398 489 390 c 0,273,274
 504 375 504 375 505 352 c 0,275,276
 505 330 505 330 489 315 c 256,277,278
 474 300 474 300 452 300 c 1,279,-1
 452 300 l 1,212,213
202 636 m 1,280,-1
 202 636 l 1,281,-1
 202 636 l 1,282,-1
 202 636 l 1,283,-1
 202 636 l 1,280,-1
153 600 m 1,284,285
 132 600 132 600 116 615 c 256,286,287
 101 630 101 630 100 652 c 0,288,289
 100 674 100 674 116 690 c 256,290,291
 131 705 131 705 153 705 c 0,292,293
 154.294117647 705.058823529 154.294117647 705.058823529 155.564013841 705.058823529 c 0,294,295
 175.882352941 705.058823529 175.882352941 705.058823529 190 690 c 0,296,297
 199 681 199 681 202 669 c 1,298,-1
 202 669 l 1,299,300
 206 680 206 680 215 690 c 0,301,302
 230 705 230 705 252 705 c 0,303,304
 253.294117647 705.058823529 253.294117647 705.058823529 254.567474048 705.058823529 c 0,305,306
 274.941176471 705.058823529 274.941176471 705.058823529 290 690 c 0,307,308
 299 681 299 681 302 669 c 1,309,-1
 302 669 l 1,310,311
 306 680 306 680 315 690 c 0,312,313
 330 705 330 705 352 705 c 0,314,315
 353.294117647 705.058823529 353.294117647 705.058823529 354.567474048 705.058823529 c 0,316,317
 374.941176471 705.058823529 374.941176471 705.058823529 390 690 c 128,-1,318
 405 675 405 675 405 652 c 0,319,320
 405 630 405 630 390 615 c 128,-1,321
 375 600 375 600 352 600 c 0,322,323
 330 600 330 600 315 615 c 0,324,325
 306 624 306 624 302 636 c 1,326,327
 298 625 298 625 290 615 c 0,328,329
 275 600 275 600 252 600 c 0,330,331
 230 600 230 600 215 615 c 0,332,333
 206 624 206 624 202 636 c 1,334,335
 198 625 198 625 190 615 c 0,336,337
 175 600 175 600 153 600 c 1,338,-1
 153 600 l 1,284,285
EndSplineSet
Validated: 524293
EndChar

StartChar: A
Encoding: 65 65 33
Width: 599
VWidth: 699
Flags: W
LayerCount: 2
Fore
SplineSet
102 335 m 1,0,1
 102 335 l 1,2,-1
 102 335 l 1,3,4
 102 335 l 1,5,-1
 102 335 l 1,0,1
302 335 m 1,6,7
 302 335 l 1,8,-1
 302 335 l 1,9,10
 302 335 l 1,11,-1
 302 335 l 1,6,7
52 0 m 1,12,13
 30 0 30 0 15 15 c 128,-1,14
 0 30 0 30 0 52 c 128,-1,15
 0 74 0 74 15 90 c 0,16,17
 24 99 24 99 36 102 c 1,18,-1
 36 102 l 1,19,20
 24 106 24 106 15 116 c 0,21,22
 0 131 0 131 0 153 c 128,-1,23
 0 175 0 175 15 190 c 0,24,25
 24 199 24 199 36 202 c 1,26,-1
 36 202 l 1,27,28
 24 206 24 206 15 215 c 0,29,30
 0 230 0 230 0 252 c 128,-1,31
 0 274 0 274 15 290 c 0,32,33
 24 299 24 299 36 302 c 1,34,-1
 36 302 l 1,35,36
 24 306 24 306 15 315 c 0,37,38
 0 330 0 330 0 352 c 128,-1,39
 0 374 0 374 15 390 c 0,40,41
 24 398 24 398 36 402 c 1,42,-1
 36 402 l 1,43,44
 24 406 24 406 15 415 c 0,45,46
 0 430 0 430 0 452 c 128,-1,47
 0 474 0 474 15 489 c 0,48,49
 24 498 24 498 36 503 c 1,50,-1
 36 503 l 1,51,52
 24 507 24 507 15 515 c 0,53,54
 0 530 0 530 0 552 c 256,55,56
 0 574 0 574 15 589 c 128,-1,57
 30 604 30 604 52 605 c 0,58,59
 74 605 74 605 90 589 c 256,60,61
 105 574 105 574 105 552 c 256,62,63
 105 530 105 530 90 515 c 0,64,65
 81 506 81 506 69 503 c 1,66,-1
 69 503 l 1,67,68
 81 499 81 499 90 489 c 0,69,70
 105 474 105 474 105 452 c 128,-1,71
 105 430 105 430 90 415 c 0,72,73
 81 406 81 406 69 402 c 1,74,-1
 69 402 l 1,75,76
 81 398 81 398 90 390 c 0,77,78
 99 381 99 381 102 369 c 1,79,-1
 102 369 l 1,80,81
 106 381 106 381 116 390 c 0,82,83
 131 405 131 405 153 405 c 128,-1,84
 175 405 175 405 190 390 c 0,85,86
 199 381 199 381 202 369 c 1,87,-1
 202 369 l 1,88,89
 206 381 206 381 215 390 c 0,90,91
 230 405 230 405 252 405 c 128,-1,92
 274 405 274 405 290 390 c 0,93,94
 299 381 299 381 302 369 c 1,95,-1
 302 369 l 1,96,97
 306 381 306 381 315 390 c 0,98,99
 330 405 330 405 352 405 c 128,-1,100
 374 405 374 405 390 390 c 0,101,102
 398 381 398 381 402 369 c 1,103,-1
 402 369 l 1,104,105
 406 381 406 381 415 390 c 0,106,107
 424 398 424 398 436 402 c 1,108,-1
 436 402 l 1,109,110
 425 406 425 406 415 415 c 0,111,112
 400 430 400 430 400 452 c 128,-1,113
 400 474 400 474 415 489 c 0,114,115
 424 498 424 498 436 503 c 1,116,-1
 436 503 l 1,117,118
 425 507 425 507 415 515 c 0,119,120
 400 530 400 530 400 552 c 256,121,122
 400 574 400 574 415 589 c 256,123,124
 430 604 430 604 452 605 c 0,125,126
 474 605 474 605 489 589 c 256,127,128
 504 574 504 574 505 552 c 256,129,130
 505 530 505 530 489 515 c 0,131,132
 480 506 480 506 469 503 c 1,133,-1
 469 503 l 1,134,135
 480 499 480 499 489 489 c 0,136,137
 504 474 504 474 505 452 c 0,138,139
 505 430 505 430 489 415 c 0,140,141
 480 406 480 406 469 402 c 1,142,-1
 469 402 l 1,143,144
 480 398 480 398 489 390 c 0,145,146
 504 375 504 375 505 352 c 0,147,148
 505 330 505 330 489 315 c 0,149,150
 480 306 480 306 469 302 c 1,151,-1
 469 302 l 1,152,153
 480 298 480 298 489 290 c 0,154,155
 504 275 504 275 505 252 c 0,156,157
 505 230 505 230 489 215 c 0,158,159
 480 206 480 206 469 202 c 1,160,-1
 469 202 l 1,161,162
 480 198 480 198 489 190 c 0,163,164
 504 175 504 175 505 153 c 0,165,166
 505 132 505 132 489 116 c 0,167,168
 480 107 480 107 469 102 c 1,169,-1
 469 102 l 1,170,171
 480 98 480 98 489 90 c 0,172,173
 504 74 504 74 505 52 c 0,174,175
 505 30 505 30 489 15 c 0,176,177
 474 0 474 0 452 0 c 128,-1,178
 430 0 430 0 415 15 c 128,-1,179
 400 30 400 30 400 52 c 128,-1,180
 400 74 400 74 415 90 c 0,181,182
 424 99 424 99 436 102 c 1,183,-1
 436 102 l 1,184,185
 425 106 425 106 415 116 c 0,186,187
 400 131 400 131 400 153 c 128,-1,188
 400 175 400 175 415 190 c 0,189,190
 424 199 424 199 436 202 c 1,191,-1
 436 202 l 1,192,193
 425 206 425 206 415 215 c 0,194,195
 400 230 400 230 400 252 c 128,-1,196
 400 274 400 274 415 290 c 0,197,198
 424 299 424 299 436 302 c 1,199,-1
 436 302 l 1,200,201
 425 306 425 306 415 315 c 256,202,203
 406 324 406 324 402 335 c 1,204,205
 398 324 398 324 390 315 c 0,206,207
 375 300 375 300 352 300 c 0,208,209
 330 300 330 300 315 315 c 0,210,211
 306 324 306 324 302 335 c 1,212,213
 298 324 298 324 290 315 c 0,214,215
 275 300 275 300 252 300 c 0,216,217
 230 300 230 300 215 315 c 0,218,219
 206 324 206 324 202 335 c 1,220,221
 198 324 198 324 190 315 c 0,222,223
 175 300 175 300 153 300 c 0,224,225
 132 300 132 300 116 315 c 0,226,227
 107 324 107 324 102 335 c 1,228,-1
 102 335 l 1,229,230
 98 324 98 324 90 315 c 256,231,232
 81 306 81 306 69 302 c 1,233,-1
 69 302 l 1,234,235
 81 298 81 298 90 290 c 0,236,237
 105 275 105 275 105 252 c 0,238,239
 105 230 105 230 90 215 c 0,240,241
 81 206 81 206 69 202 c 1,242,-1
 69 202 l 1,243,244
 81 198 81 198 90 190 c 0,245,246
 105 175 105 175 105 153 c 0,247,248
 105 132 105 132 90 116 c 0,249,250
 81 107 81 107 69 102 c 1,251,-1
 69 102 l 1,252,253
 81 98 81 98 90 90 c 0,254,255
 105 74 105 74 105 52 c 128,-1,256
 105 30 105 30 90 15 c 0,257,258
 74 0 74 0 52 0 c 1,259,-1
 52 0 l 1,12,13
302 636 m 1,260,-1
 302 636 l 1,261,-1
 302 636 l 1,262,-1
 302 636 l 1,263,-1
 302 636 l 1,260,-1
153 600 m 1,264,265
 132 600 132 600 116 615 c 256,266,267
 101 630 101 630 100 652 c 0,268,269
 100 674 100 674 116 690 c 256,270,271
 131 705 131 705 153 705 c 0,272,273
 154.294117647 705.058823529 154.294117647 705.058823529 155.564013841 705.058823529 c 0,274,275
 175.882352941 705.058823529 175.882352941 705.058823529 190 690 c 0,276,277
 199 681 199 681 202 669 c 1,278,-1
 202 669 l 1,279,280
 206 680 206 680 215 690 c 0,281,282
 230 705 230 705 252 705 c 0,283,284
 253.294117647 705.058823529 253.294117647 705.058823529 254.567474048 705.058823529 c 0,285,286
 274.941176471 705.058823529 274.941176471 705.058823529 290 690 c 0,287,288
 299 681 299 681 302 669 c 1,289,-1
 302 669 l 1,290,291
 306 680 306 680 315 690 c 0,292,293
 330 705 330 705 352 705 c 0,294,295
 353.294117647 705.058823529 353.294117647 705.058823529 354.567474048 705.058823529 c 0,296,297
 374.941176471 705.058823529 374.941176471 705.058823529 390 690 c 128,-1,298
 405 675 405 675 405 652 c 0,299,300
 405 630 405 630 390 615 c 128,-1,301
 375 600 375 600 352 600 c 0,302,303
 330 600 330 600 315 615 c 0,304,305
 306 624 306 624 302 636 c 1,306,-1
 302 636 l 1,307,308
 298 625 298 625 290 615 c 0,309,310
 275 600 275 600 252 600 c 0,311,312
 230 600 230 600 215 615 c 0,313,314
 206 624 206 624 202 636 c 1,315,-1
 202 636 l 1,316,317
 198 625 198 625 190 615 c 0,318,319
 175 600 175 600 153 600 c 1,320,-1
 153 600 l 1,264,265
EndSplineSet
Validated: 524293
EndChar

StartChar: B
Encoding: 66 66 34
Width: 599
VWidth: 699
Flags: W
LayerCount: 2
Fore
SplineSet
102 36 m 1,0,1
 102 36 l 1,2,-1
 102 36 l 1,3,4
 102 36 l 1,5,-1
 102 36 l 1,0,1
302 36 m 1,6,7
 302 36 l 1,8,-1
 302 36 l 1,9,10
 302 36 l 1,11,-1
 302 36 l 1,6,7
452 100 m 1,12,13
 430 100 430 100 415 116 c 256,14,15
 400 131 400 131 400 153 c 128,-1,16
 400 175 400 175 415 190 c 0,17,18
 424 199 424 199 436 202 c 1,19,-1
 436 202 l 1,20,21
 425 206 425 206 415 215 c 0,22,23
 400 230 400 230 400 252 c 128,-1,24
 400 274 400 274 415 290 c 256,25,26
 430 305 430 305 452 305 c 128,-1,27
 474 305 474 305 489 290 c 256,28,29
 504 275 504 275 505 252 c 0,30,31
 505 230 505 230 489 215 c 0,32,33
 480 206 480 206 469 202 c 1,34,-1
 469 202 l 1,35,36
 480 198 480 198 489 190 c 0,37,38
 504 175 504 175 505 153 c 0,39,40
 505 132 505 132 489 116 c 256,41,42
 474 101 474 101 452 100 c 1,43,-1
 452 100 l 1,12,13
102 335 m 1,44,-1
 102 335 l 1,45,-1
 102 335 l 1,46,-1
 102 335 l 1,47,-1
 102 335 l 1,44,-1
302 335 m 1,48,-1
 302 335 l 1,49,-1
 302 335 l 1,50,-1
 302 335 l 1,51,-1
 302 335 l 1,48,-1
452 400 m 1,52,53
 430 400 430 400 415 415 c 256,54,55
 400 430 400 430 400 452 c 128,-1,56
 400 474 400 474 415 489 c 0,57,58
 424 498 424 498 436 503 c 1,59,-1
 436 503 l 1,60,61
 425 507 425 507 415 515 c 0,62,63
 400 530 400 530 400 552 c 256,64,65
 400 574 400 574 415 589 c 256,66,67
 430 604 430 604 452 605 c 0,68,69
 474 605 474 605 489 589 c 256,70,71
 504 574 504 574 505 552 c 256,72,73
 505 530 505 530 489 515 c 0,74,75
 480 506 480 506 469 503 c 1,76,-1
 469 503 l 1,77,78
 480 499 480 499 489 489 c 0,79,80
 504 474 504 474 505 452 c 0,81,82
 505 430 505 430 489 415 c 256,83,84
 474 400 474 400 452 400 c 1,85,-1
 452 400 l 1,52,53
102 636 m 1,86,-1
 102 636 l 1,87,-1
 102 636 l 1,88,-1
 102 636 l 1,89,-1
 102 636 l 1,86,-1
302 636 m 1,90,-1
 302 636 l 1,91,-1
 302 636 l 1,92,-1
 302 636 l 1,93,-1
 302 636 l 1,90,-1
52 0 m 1,94,95
 30 0 30 0 15 15 c 128,-1,96
 0 30 0 30 0 52 c 128,-1,97
 0 74 0 74 15 90 c 0,98,99
 24 99 24 99 36 102 c 1,100,-1
 36 102 l 1,101,102
 24 106 24 106 15 116 c 0,103,104
 0 131 0 131 0 153 c 128,-1,105
 0 175 0 175 15 190 c 0,106,107
 24 199 24 199 36 202 c 1,108,-1
 36 202 l 1,109,110
 24 206 24 206 15 215 c 0,111,112
 0 230 0 230 0 252 c 128,-1,113
 0 274 0 274 15 290 c 0,114,115
 24 299 24 299 36 302 c 1,116,-1
 36 302 l 1,117,118
 24 306 24 306 15 315 c 0,119,120
 0 330 0 330 0 352 c 128,-1,121
 0 374 0 374 15 390 c 0,122,123
 24 398 24 398 36 402 c 1,124,-1
 36 402 l 1,125,126
 24 406 24 406 15 415 c 0,127,128
 0 430 0 430 0 452 c 128,-1,129
 0 474 0 474 15 489 c 0,130,131
 24 498 24 498 36 503 c 1,132,-1
 36 503 l 1,133,134
 24 507 24 507 15 515 c 0,135,136
 0 530 0 530 0 552 c 256,137,138
 0 574 0 574 15 589 c 0,139,140
 24 598 24 598 36 602 c 1,141,-1
 36 602 l 1,142,143
 24 606 24 606 15 615 c 0,144,145
 0 630 0 630 0 652 c 128,-1,146
 0 674 0 674 15 690 c 0,147,148
 30 705 30 705 52 705 c 0,149,150
 53.2941176471 705.058823529 53.2941176471 705.058823529 54.5674740484 705.058823529 c 0,151,152
 74.9411764706 705.058823529 74.9411764706 705.058823529 90 690 c 0,153,154
 99 681 99 681 102 669 c 1,155,-1
 102 669 l 1,156,157
 106 680 106 680 116 690 c 0,158,159
 131 705 131 705 153 705 c 0,160,161
 154.294117647 705.058823529 154.294117647 705.058823529 155.564013841 705.058823529 c 0,162,163
 175.882352941 705.058823529 175.882352941 705.058823529 190 690 c 0,164,165
 199 681 199 681 202 669 c 1,166,-1
 202 669 l 1,167,168
 206 680 206 680 215 690 c 0,169,170
 230 705 230 705 252 705 c 0,171,172
 253.294117647 705.058823529 253.294117647 705.058823529 254.567474048 705.058823529 c 0,173,174
 274.941176471 705.058823529 274.941176471 705.058823529 290 690 c 0,175,176
 299 681 299 681 302 669 c 1,177,-1
 302 669 l 1,178,179
 306 680 306 680 315 690 c 0,180,181
 330 705 330 705 352 705 c 0,182,183
 353.294117647 705.058823529 353.294117647 705.058823529 354.567474048 705.058823529 c 0,184,185
 374.941176471 705.058823529 374.941176471 705.058823529 390 690 c 128,-1,186
 405 675 405 675 405 652 c 0,187,188
 405 630 405 630 390 615 c 128,-1,189
 375 600 375 600 352 600 c 0,190,191
 330 600 330 600 315 615 c 0,192,193
 306 624 306 624 302 636 c 1,194,195
 298 625 298 625 290 615 c 0,196,197
 275 600 275 600 252 600 c 0,198,199
 230 600 230 600 215 615 c 0,200,201
 206 624 206 624 202 636 c 1,202,203
 198 625 198 625 190 615 c 0,204,205
 175 600 175 600 153 600 c 0,206,207
 132 600 132 600 116 615 c 0,208,209
 107 624 107 624 102 636 c 1,210,-1
 102 636 l 1,211,212
 98 625 98 625 90 615 c 256,213,214
 81 606 81 606 69 602 c 1,215,-1
 69 602 l 1,216,217
 81 598 81 598 90 589 c 0,218,219
 105 574 105 574 105 552 c 256,220,221
 105 530 105 530 90 515 c 0,222,223
 81 506 81 506 69 503 c 1,224,-1
 69 503 l 1,225,226
 81 499 81 499 90 489 c 0,227,228
 105 474 105 474 105 452 c 128,-1,229
 105 430 105 430 90 415 c 0,230,231
 81 406 81 406 69 402 c 1,232,-1
 69 402 l 1,233,234
 81 398 81 398 90 390 c 0,235,236
 99 381 99 381 102 369 c 1,237,-1
 102 369 l 1,238,239
 106 381 106 381 116 390 c 0,240,241
 131 405 131 405 153 405 c 128,-1,242
 175 405 175 405 190 390 c 0,243,244
 199 381 199 381 202 369 c 1,245,-1
 202 369 l 1,246,247
 206 381 206 381 215 390 c 0,248,249
 230 405 230 405 252 405 c 128,-1,250
 274 405 274 405 290 390 c 0,251,252
 299 381 299 381 302 369 c 1,253,-1
 302 369 l 1,254,255
 306 381 306 381 315 390 c 0,256,257
 330 405 330 405 352 405 c 128,-1,258
 374 405 374 405 390 390 c 0,259,260
 405 375 405 375 405 352 c 0,261,262
 405 330 405 330 390 315 c 128,-1,263
 375 300 375 300 352 300 c 0,264,265
 330 300 330 300 315 315 c 0,266,267
 306 324 306 324 302 335 c 1,268,269
 298 324 298 324 290 315 c 0,270,271
 275 300 275 300 252 300 c 0,272,273
 230 300 230 300 215 315 c 0,274,275
 206 324 206 324 202 335 c 1,276,277
 198 324 198 324 190 315 c 0,278,279
 175 300 175 300 153 300 c 0,280,281
 132 300 132 300 116 315 c 0,282,283
 107 324 107 324 102 335 c 1,284,-1
 102 335 l 1,285,286
 98 324 98 324 90 315 c 256,287,288
 81 306 81 306 69 302 c 1,289,-1
 69 302 l 1,290,291
 81 298 81 298 90 290 c 0,292,293
 105 275 105 275 105 252 c 0,294,295
 105 230 105 230 90 215 c 0,296,297
 81 206 81 206 69 202 c 1,298,-1
 69 202 l 1,299,300
 81 198 81 198 90 190 c 0,301,302
 105 175 105 175 105 153 c 0,303,304
 105 132 105 132 90 116 c 0,305,306
 81 107 81 107 69 102 c 1,307,-1
 69 102 l 1,308,309
 81 98 81 98 90 90 c 256,310,311
 99 81 99 81 102 69 c 1,312,-1
 102 69 l 1,313,314
 106 81 106 81 116 90 c 0,315,316
 131 105 131 105 153 105 c 128,-1,317
 175 105 175 105 190 90 c 0,318,319
 199 81 199 81 202 69 c 1,320,-1
 202 69 l 1,321,322
 206 81 206 81 215 90 c 0,323,324
 230 105 230 105 252 105 c 128,-1,325
 274 105 274 105 290 90 c 0,326,327
 299 81 299 81 302 69 c 1,328,-1
 302 69 l 1,329,330
 306 81 306 81 315 90 c 0,331,332
 330 105 330 105 352 105 c 128,-1,333
 374 105 374 105 390 90 c 0,334,335
 405 74 405 74 405 52 c 128,-1,336
 405 30 405 30 390 15 c 128,-1,337
 375 0 375 0 352 0 c 0,338,339
 330 0 330 0 315 15 c 0,340,341
 306 24 306 24 302 36 c 1,342,343
 298 24 298 24 290 15 c 0,344,345
 275 0 275 0 252 0 c 0,346,347
 230 0 230 0 215 15 c 0,348,349
 206 24 206 24 202 36 c 1,350,-1
 202 36 l 1,351,352
 198 24 198 24 190 15 c 0,353,354
 175 0 175 0 153 0 c 0,355,356
 132 0 132 0 116 15 c 0,357,358
 107 24 107 24 102 36 c 1,359,-1
 102 36 l 1,360,361
 98 24 98 24 90 15 c 0,362,363
 74 0 74 0 52 0 c 1,364,-1
 52 0 l 1,94,95
EndSplineSet
Validated: 524293
EndChar

StartChar: C
Encoding: 67 67 35
Width: 599
VWidth: 699
Flags: W
LayerCount: 2
Fore
SplineSet
202 36 m 1,0,1
 202 36 l 1,2,-1
 202 36 l 1,3,4
 202 36 l 1,5,-1
 202 36 l 1,0,1
153 0 m 1,6,7
 132 0 132 0 116 15 c 0,8,9
 101 30 101 30 100 52 c 0,10,11
 100 74 100 74 116 90 c 256,12,13
 131 105 131 105 153 105 c 128,-1,14
 175 105 175 105 190 90 c 0,15,16
 199 81 199 81 202 69 c 1,17,-1
 202 69 l 1,18,19
 206 81 206 81 215 90 c 0,20,21
 230 105 230 105 252 105 c 128,-1,22
 274 105 274 105 290 90 c 0,23,24
 299 81 299 81 302 69 c 1,25,-1
 302 69 l 1,26,27
 306 81 306 81 315 90 c 0,28,29
 330 105 330 105 352 105 c 128,-1,30
 374 105 374 105 390 90 c 0,31,32
 405 74 405 74 405 52 c 128,-1,33
 405 30 405 30 390 15 c 128,-1,34
 375 0 375 0 352 0 c 0,35,36
 330 0 330 0 315 15 c 0,37,38
 306 24 306 24 302 36 c 1,39,40
 298 24 298 24 290 15 c 0,41,42
 275 0 275 0 252 0 c 0,43,44
 230 0 230 0 215 15 c 0,45,46
 206 24 206 24 202 36 c 1,47,48
 198 24 198 24 190 15 c 0,49,50
 175 0 175 0 153 0 c 1,51,-1
 153 0 l 1,6,7
452 100 m 1,52,53
 430 100 430 100 415 116 c 256,54,55
 400 131 400 131 400 153 c 128,-1,56
 400 175 400 175 415 190 c 256,57,58
 429.0625 204.0625 429.0625 204.0625 449.27734375 204.0625 c 0,59,60
 450.625 204.0625 450.625 204.0625 452 204 c 0,61,62
 474 204 474 204 489 190 c 256,63,64
 504 175 504 175 505 153 c 0,65,66
 505 132 505 132 489 116 c 256,67,68
 474 101 474 101 452 100 c 1,69,-1
 452 100 l 1,52,53
52 100 m 1,70,71
 30 100 30 100 15 116 c 0,72,73
 0 131 0 131 0 153 c 128,-1,74
 0 175 0 175 15 190 c 0,75,76
 24 199 24 199 36 202 c 1,77,-1
 36 202 l 1,78,79
 24 206 24 206 15 215 c 0,80,81
 0 230 0 230 0 252 c 128,-1,82
 0 274 0 274 15 290 c 0,83,84
 24 299 24 299 36 302 c 1,85,-1
 36 302 l 1,86,87
 24 306 24 306 15 315 c 0,88,89
 0 330 0 330 0 352 c 128,-1,90
 0 374 0 374 15 390 c 0,91,92
 24 398 24 398 36 402 c 1,93,-1
 36 402 l 1,94,95
 24 406 24 406 15 415 c 0,96,97
 0 430 0 430 0 452 c 128,-1,98
 0 474 0 474 15 489 c 0,99,100
 24 498 24 498 36 503 c 1,101,-1
 36 503 l 1,102,103
 24 507 24 507 15 515 c 0,104,105
 0 530 0 530 0 552 c 256,106,107
 0 574 0 574 15 589 c 128,-1,108
 30 604 30 604 52 605 c 0,109,110
 74 605 74 605 90 589 c 256,111,112
 105 574 105 574 105 552 c 256,113,114
 105 530 105 530 90 515 c 0,115,116
 81 506 81 506 69 503 c 1,117,-1
 69 503 l 1,118,119
 81 499 81 499 90 489 c 0,120,121
 105 474 105 474 105 452 c 128,-1,122
 105 430 105 430 90 415 c 0,123,124
 81 406 81 406 69 402 c 1,125,-1
 69 402 l 1,126,127
 81 398 81 398 90 390 c 0,128,129
 105 375 105 375 105 352 c 0,130,131
 105 330 105 330 90 315 c 0,132,133
 81 306 81 306 69 302 c 1,134,-1
 69 302 l 1,135,136
 81 298 81 298 90 290 c 0,137,138
 105 275 105 275 105 252 c 0,139,140
 105 230 105 230 90 215 c 0,141,142
 81 206 81 206 69 202 c 1,143,-1
 69 202 l 1,144,145
 81 198 81 198 90 190 c 0,146,147
 105 175 105 175 105 153 c 0,148,149
 105 132 105 132 90 116 c 256,150,151
 74 101 74 101 52 100 c 1,152,-1
 52 100 l 1,70,71
452 500 m 1,153,154
 430 500 430 500 415 515 c 256,155,156
 400 530 400 530 400 552 c 256,157,158
 400 574 400 574 415 589 c 256,159,160
 430 604 430 604 452 605 c 0,161,162
 474 605 474 605 489 589 c 256,163,164
 504 574 504 574 505 552 c 256,165,166
 505 530 505 530 489 515 c 256,167,168
 474 500 474 500 452 500 c 1,169,-1
 452 500 l 1,153,154
202 636 m 1,170,-1
 202 636 l 1,171,-1
 202 636 l 1,172,-1
 202 636 l 1,173,-1
 202 636 l 1,170,-1
153 600 m 1,174,175
 132 600 132 600 116 615 c 256,176,177
 101 630 101 630 100 652 c 0,178,179
 100 674 100 674 116 690 c 256,180,181
 131 705 131 705 153 705 c 0,182,183
 154.294117647 705.058823529 154.294117647 705.058823529 155.564013841 705.058823529 c 0,184,185
 175.882352941 705.058823529 175.882352941 705.058823529 190 690 c 0,186,187
 199 681 199 681 202 669 c 1,188,-1
 202 669 l 1,189,190
 206 680 206 680 215 690 c 0,191,192
 230 705 230 705 252 705 c 0,193,194
 253.294117647 705.058823529 253.294117647 705.058823529 254.567474048 705.058823529 c 0,195,196
 274.941176471 705.058823529 274.941176471 705.058823529 290 690 c 0,197,198
 299 681 299 681 302 669 c 1,199,-1
 302 669 l 1,200,201
 306 680 306 680 315 690 c 0,202,203
 330 705 330 705 352 705 c 0,204,205
 353.294117647 705.058823529 353.294117647 705.058823529 354.567474048 705.058823529 c 0,206,207
 374.941176471 705.058823529 374.941176471 705.058823529 390 690 c 128,-1,208
 405 675 405 675 405 652 c 0,209,210
 405 630 405 630 390 615 c 128,-1,211
 375 600 375 600 352 600 c 0,212,213
 330 600 330 600 315 615 c 0,214,215
 306 624 306 624 302 636 c 1,216,217
 298 625 298 625 290 615 c 0,218,219
 275 600 275 600 252 600 c 0,220,221
 230 600 230 600 215 615 c 0,222,223
 206 624 206 624 202 636 c 1,224,225
 198 625 198 625 190 615 c 0,226,227
 175 600 175 600 153 600 c 1,228,-1
 153 600 l 1,174,175
EndSplineSet
Validated: 524293
EndChar

StartChar: D
Encoding: 68 68 36
Width: 599
VWidth: 699
Flags: W
LayerCount: 2
Fore
SplineSet
102 36 m 1,0,1
 102 36 l 1,2,-1
 102 36 l 1,3,4
 102 36 l 1,5,-1
 102 36 l 1,0,1
352 100 m 1,6,7
 330 100 330 100 315 116 c 256,8,9
 300 131 300 131 300 153 c 128,-1,10
 300 175 300 175 315 190 c 256,11,12
 329.0625 204.0625 329.0625 204.0625 349.27734375 204.0625 c 0,13,14
 350.625 204.0625 350.625 204.0625 352 204 c 0,15,16
 374 204 374 204 390 190 c 0,17,18
 405 175 405 175 405 153 c 0,19,20
 405 132 405 132 390 116 c 0,21,22
 375 101 375 101 352 100 c 1,23,-1
 352 100 l 1,6,7
452 200 m 1,24,25
 430 200 430 200 415 215 c 128,-1,26
 400 230 400 230 400 252 c 128,-1,27
 400 274 400 274 415 290 c 0,28,29
 424 299 424 299 436 302 c 1,30,-1
 436 302 l 1,31,32
 425 306 425 306 415 315 c 0,33,34
 400 330 400 330 400 352 c 128,-1,35
 400 374 400 374 415 390 c 0,36,37
 424 398 424 398 436 402 c 1,38,-1
 436 402 l 1,39,40
 425 406 425 406 415 415 c 0,41,42
 400 430 400 430 400 452 c 128,-1,43
 400 474 400 474 415 489 c 256,44,45
 430 504 430 504 452 505 c 0,46,47
 474 505 474 505 489 489 c 256,48,49
 504 474 504 474 505 452 c 0,50,51
 505 430 505 430 489 415 c 0,52,53
 480 406 480 406 469 402 c 1,54,-1
 469 402 l 1,55,56
 480 398 480 398 489 390 c 0,57,58
 504 375 504 375 505 352 c 0,59,60
 505 330 505 330 489 315 c 0,61,62
 480 306 480 306 469 302 c 1,63,-1
 469 302 l 1,64,65
 480 298 480 298 489 290 c 0,66,67
 504 275 504 275 505 252 c 0,68,69
 505 230 505 230 489 215 c 0,70,71
 474 200 474 200 452 200 c 1,72,-1
 452 200 l 1,24,25
352 500 m 1,73,74
 330 500 330 500 315 515 c 256,75,76
 300 530 300 530 300 552 c 256,77,78
 300 574 300 574 315 589 c 256,79,80
 330 604 330 604 352 605 c 0,81,82
 374 605 374 605 390 589 c 0,83,84
 405 574 405 574 405 552 c 256,85,86
 405 530 405 530 390 515 c 128,-1,87
 375 500 375 500 352 500 c 1,88,-1
 352 500 l 1,73,74
102 636 m 1,89,-1
 102 636 l 1,90,-1
 102 636 l 1,91,-1
 102 636 l 1,92,-1
 102 636 l 1,89,-1
202 636 m 1,93,-1
 202 636 l 1,94,-1
 202 636 l 1,95,-1
 202 636 l 1,96,-1
 202 636 l 1,93,-1
52 0 m 1,97,98
 30 0 30 0 15 15 c 128,-1,99
 0 30 0 30 0 52 c 128,-1,100
 0 74 0 74 15 90 c 0,101,102
 24 99 24 99 36 102 c 1,103,-1
 36 102 l 1,104,105
 24 106 24 106 15 116 c 0,106,107
 0 131 0 131 0 153 c 128,-1,108
 0 175 0 175 15 190 c 0,109,110
 24 199 24 199 36 202 c 1,111,-1
 36 202 l 1,112,113
 24 206 24 206 15 215 c 0,114,115
 0 230 0 230 0 252 c 128,-1,116
 0 274 0 274 15 290 c 0,117,118
 24 299 24 299 36 302 c 1,119,-1
 36 302 l 1,120,121
 24 306 24 306 15 315 c 0,122,123
 0 330 0 330 0 352 c 128,-1,124
 0 374 0 374 15 390 c 0,125,126
 24 398 24 398 36 402 c 1,127,-1
 36 402 l 1,128,129
 24 406 24 406 15 415 c 0,130,131
 0 430 0 430 0 452 c 128,-1,132
 0 474 0 474 15 489 c 0,133,134
 24 498 24 498 36 503 c 1,135,-1
 36 503 l 1,136,137
 24 507 24 507 15 515 c 0,138,139
 0 530 0 530 0 552 c 256,140,141
 0 574 0 574 15 589 c 0,142,143
 24 598 24 598 36 602 c 1,144,-1
 36 602 l 1,145,146
 24 606 24 606 15 615 c 0,147,148
 0 630 0 630 0 652 c 128,-1,149
 0 674 0 674 15 690 c 0,150,151
 30 705 30 705 52 705 c 0,152,153
 53.2941176471 705.058823529 53.2941176471 705.058823529 54.5674740484 705.058823529 c 0,154,155
 74.9411764706 705.058823529 74.9411764706 705.058823529 90 690 c 0,156,157
 99 681 99 681 102 669 c 1,158,-1
 102 669 l 1,159,160
 106 680 106 680 116 690 c 0,161,162
 131 705 131 705 153 705 c 0,163,164
 154.294117647 705.058823529 154.294117647 705.058823529 155.564013841 705.058823529 c 0,165,166
 175.882352941 705.058823529 175.882352941 705.058823529 190 690 c 0,167,168
 199 681 199 681 202 669 c 1,169,-1
 202 669 l 1,170,171
 206 680 206 680 215 690 c 0,172,173
 230 705 230 705 252 705 c 0,174,175
 253.294117647 705.058823529 253.294117647 705.058823529 254.567474048 705.058823529 c 0,176,177
 274.941176471 705.058823529 274.941176471 705.058823529 290 690 c 256,178,179
 305 675 305 675 305 652 c 0,180,181
 305 630 305 630 290 615 c 256,182,183
 275 600 275 600 252 600 c 0,184,185
 230 600 230 600 215 615 c 0,186,187
 206 624 206 624 202 636 c 1,188,189
 198 625 198 625 190 615 c 0,190,191
 175 600 175 600 153 600 c 0,192,193
 132 600 132 600 116 615 c 0,194,195
 107 624 107 624 102 636 c 1,196,-1
 102 636 l 1,197,198
 98 625 98 625 90 615 c 256,199,200
 81 606 81 606 69 602 c 1,201,-1
 69 602 l 1,202,203
 81 598 81 598 90 589 c 0,204,205
 105 574 105 574 105 552 c 256,206,207
 105 530 105 530 90 515 c 0,208,209
 81 506 81 506 69 503 c 1,210,-1
 69 503 l 1,211,212
 81 499 81 499 90 489 c 0,213,214
 105 474 105 474 105 452 c 128,-1,215
 105 430 105 430 90 415 c 0,216,217
 81 406 81 406 69 402 c 1,218,-1
 69 402 l 1,219,220
 81 398 81 398 90 390 c 0,221,222
 105 375 105 375 105 352 c 0,223,224
 105 330 105 330 90 315 c 0,225,226
 81 306 81 306 69 302 c 1,227,-1
 69 302 l 1,228,229
 81 298 81 298 90 290 c 0,230,231
 105 275 105 275 105 252 c 0,232,233
 105 230 105 230 90 215 c 0,234,235
 81 206 81 206 69 202 c 1,236,-1
 69 202 l 1,237,238
 81 198 81 198 90 190 c 0,239,240
 105 175 105 175 105 153 c 0,241,242
 105 132 105 132 90 116 c 0,243,244
 81 107 81 107 69 102 c 1,245,-1
 69 102 l 1,246,247
 81 98 81 98 90 90 c 256,248,249
 99 81 99 81 102 69 c 1,250,-1
 102 69 l 1,251,252
 106 81 106 81 116 90 c 0,253,254
 131 105 131 105 153 105 c 128,-1,255
 175 105 175 105 190 90 c 0,256,257
 199 81 199 81 202 69 c 1,258,-1
 202 69 l 1,259,260
 206 81 206 81 215 90 c 0,261,262
 230 105 230 105 252 105 c 128,-1,263
 274 105 274 105 290 90 c 256,264,265
 305 74 305 74 305 52 c 128,-1,266
 305 30 305 30 290 15 c 128,-1,267
 275 0 275 0 252 0 c 0,268,269
 230 0 230 0 215 15 c 0,270,271
 206 24 206 24 202 36 c 1,272,-1
 202 36 l 1,273,274
 198 24 198 24 190 15 c 0,275,276
 175 0 175 0 153 0 c 0,277,278
 132 0 132 0 116 15 c 0,279,280
 107 24 107 24 102 36 c 1,281,-1
 102 36 l 1,282,283
 98 24 98 24 90 15 c 0,284,285
 74 0 74 0 52 0 c 1,286,-1
 52 0 l 1,97,98
EndSplineSet
Validated: 524293
EndChar

StartChar: E
Encoding: 69 69 37
Width: 599
VWidth: 699
Flags: W
LayerCount: 2
Fore
SplineSet
102 36 m 1,0,1
 102 36 l 1,2,-1
 102 36 l 1,3,4
 102 36 l 1,5,-1
 102 36 l 1,0,1
302 36 m 1,6,7
 302 36 l 1,8,-1
 302 36 l 1,9,10
 302 36 l 1,11,-1
 302 36 l 1,6,7
202 335 m 1,12,13
 202 335 l 1,14,-1
 202 335 l 1,15,16
 202 335 l 1,17,-1
 202 335 l 1,12,13
102 636 m 1,18,19
 102 636 l 1,20,-1
 102 636 l 1,21,22
 102 636 l 1,23,-1
 102 636 l 1,18,19
202 636 m 1,24,25
 202 636 l 1,26,-1
 202 636 l 1,27,28
 202 636 l 1,29,-1
 202 636 l 1,24,25
402 636 m 1,30,31
 402 636 l 1,32,-1
 402 636 l 1,33,34
 402 636 l 1,35,-1
 402 636 l 1,30,31
52 0 m 1,36,37
 30 0 30 0 15 15 c 128,-1,38
 0 30 0 30 0 52 c 128,-1,39
 0 74 0 74 15 90 c 0,40,41
 24 99 24 99 36 102 c 1,42,-1
 36 102 l 1,43,44
 24 106 24 106 15 116 c 0,45,46
 0 131 0 131 0 153 c 128,-1,47
 0 175 0 175 15 190 c 0,48,49
 24 199 24 199 36 202 c 1,50,-1
 36 202 l 1,51,52
 24 206 24 206 15 215 c 0,53,54
 0 230 0 230 0 252 c 128,-1,55
 0 274 0 274 15 290 c 0,56,57
 24 299 24 299 36 302 c 1,58,-1
 36 302 l 1,59,60
 24 306 24 306 15 315 c 0,61,62
 0 330 0 330 0 352 c 128,-1,63
 0 374 0 374 15 390 c 0,64,65
 24 398 24 398 36 402 c 1,66,-1
 36 402 l 1,67,68
 24 406 24 406 15 415 c 0,69,70
 0 430 0 430 0 452 c 128,-1,71
 0 474 0 474 15 489 c 0,72,73
 24 498 24 498 36 503 c 1,74,-1
 36 503 l 1,75,76
 24 507 24 507 15 515 c 0,77,78
 0 530 0 530 0 552 c 256,79,80
 0 574 0 574 15 589 c 0,81,82
 24 598 24 598 36 602 c 1,83,-1
 36 602 l 1,84,85
 24 606 24 606 15 615 c 0,86,87
 0 630 0 630 0 652 c 128,-1,88
 0 674 0 674 15 690 c 0,89,90
 30 705 30 705 52 705 c 0,91,92
 53.2941176471 705.058823529 53.2941176471 705.058823529 54.5674740484 705.058823529 c 0,93,94
 74.9411764706 705.058823529 74.9411764706 705.058823529 90 690 c 0,95,96
 99 681 99 681 102 669 c 1,97,-1
 102 669 l 1,98,99
 106 680 106 680 116 690 c 0,100,101
 131 705 131 705 153 705 c 0,102,103
 154.294117647 705.058823529 154.294117647 705.058823529 155.564013841 705.058823529 c 0,104,105
 175.882352941 705.058823529 175.882352941 705.058823529 190 690 c 0,106,107
 199 681 199 681 202 669 c 1,108,-1
 202 669 l 1,109,110
 206 680 206 680 215 690 c 0,111,112
 230 705 230 705 252 705 c 0,113,114
 253.294117647 705.058823529 253.294117647 705.058823529 254.567474048 705.058823529 c 0,115,116
 274.941176471 705.058823529 274.941176471 705.058823529 290 690 c 0,117,118
 299 681 299 681 302 669 c 1,119,-1
 302 669 l 1,120,121
 306 680 306 680 315 690 c 0,122,123
 330 705 330 705 352 705 c 0,124,125
 353.294117647 705.058823529 353.294117647 705.058823529 354.567474048 705.058823529 c 0,126,127
 374.941176471 705.058823529 374.941176471 705.058823529 390 690 c 0,128,129
 398 681 398 681 402 669 c 1,130,-1
 402 669 l 1,131,132
 406 680 406 680 415 690 c 0,133,134
 430 705 430 705 452 705 c 0,135,136
 453.294117647 705.058823529 453.294117647 705.058823529 454.564013841 705.058823529 c 0,137,138
 474.882352941 705.058823529 474.882352941 705.058823529 489 690 c 256,139,140
 504 675 504 675 505 652 c 0,141,142
 505 630 505 630 489 615 c 256,143,144
 474 600 474 600 452 600 c 128,-1,145
 430 600 430 600 415 615 c 0,146,147
 406 624 406 624 402 636 c 1,148,149
 398 625 398 625 390 615 c 0,150,151
 375 600 375 600 352 600 c 0,152,153
 330 600 330 600 315 615 c 0,154,155
 306 624 306 624 302 636 c 1,156,-1
 302 636 l 1,157,158
 298 625 298 625 290 615 c 0,159,160
 275 600 275 600 252 600 c 0,161,162
 230 600 230 600 215 615 c 0,163,164
 206 624 206 624 202 636 c 1,165,166
 198 625 198 625 190 615 c 0,167,168
 175 600 175 600 153 600 c 0,169,170
 132 600 132 600 116 615 c 0,171,172
 107 624 107 624 102 636 c 1,173,-1
 102 636 l 1,174,175
 98 625 98 625 90 615 c 256,176,177
 81 606 81 606 69 602 c 1,178,-1
 69 602 l 1,179,180
 81 598 81 598 90 589 c 0,181,182
 105 574 105 574 105 552 c 256,183,184
 105 530 105 530 90 515 c 0,185,186
 81 506 81 506 69 503 c 1,187,-1
 69 503 l 1,188,189
 81 499 81 499 90 489 c 0,190,191
 105 474 105 474 105 452 c 128,-1,192
 105 430 105 430 90 415 c 0,193,194
 81 406 81 406 69 402 c 1,195,-1
 69 402 l 1,196,197
 81 398 81 398 90 390 c 0,198,199
 99 381 99 381 102 369 c 1,200,-1
 102 369 l 1,201,202
 106 381 106 381 116 390 c 0,203,204
 131 405 131 405 153 405 c 128,-1,205
 175 405 175 405 190 390 c 0,206,207
 199 381 199 381 202 369 c 1,208,-1
 202 369 l 1,209,210
 206 381 206 381 215 390 c 0,211,212
 230 405 230 405 252 405 c 128,-1,213
 274 405 274 405 290 390 c 0,214,215
 299 381 299 381 302 369 c 1,216,-1
 302 369 l 1,217,218
 306 381 306 381 315 390 c 0,219,220
 330 405 330 405 352 405 c 128,-1,221
 374 405 374 405 390 390 c 0,222,223
 405 375 405 375 405 352 c 0,224,225
 405 330 405 330 390 315 c 128,-1,226
 375 300 375 300 352 300 c 0,227,228
 330 300 330 300 315 315 c 0,229,230
 306 324 306 324 302 335 c 1,231,232
 298 324 298 324 290 315 c 0,233,234
 275 300 275 300 252 300 c 0,235,236
 230 300 230 300 215 315 c 0,237,238
 206 324 206 324 202 335 c 1,239,240
 198 324 198 324 190 315 c 0,241,242
 175 300 175 300 153 300 c 0,243,244
 132 300 132 300 116 315 c 0,245,246
 107 324 107 324 102 335 c 1,247,248
 98 324 98 324 90 315 c 256,249,250
 81 306 81 306 69 302 c 1,251,-1
 69 302 l 1,252,253
 81 298 81 298 90 290 c 0,254,255
 105 275 105 275 105 252 c 0,256,257
 105 230 105 230 90 215 c 0,258,259
 81 206 81 206 69 202 c 1,260,-1
 69 202 l 1,261,262
 81 198 81 198 90 190 c 0,263,264
 105 175 105 175 105 153 c 0,265,266
 105 132 105 132 90 116 c 0,267,268
 81 107 81 107 69 102 c 1,269,-1
 69 102 l 1,270,271
 81 98 81 98 90 90 c 256,272,273
 99 81 99 81 102 69 c 1,274,-1
 102 69 l 1,275,276
 106 81 106 81 116 90 c 0,277,278
 131 105 131 105 153 105 c 128,-1,279
 175 105 175 105 190 90 c 0,280,281
 199 81 199 81 202 69 c 1,282,-1
 202 69 l 1,283,284
 206 81 206 81 215 90 c 0,285,286
 230 105 230 105 252 105 c 128,-1,287
 274 105 274 105 290 90 c 0,288,289
 299 81 299 81 302 69 c 1,290,-1
 302 69 l 1,291,292
 306 81 306 81 315 90 c 0,293,294
 330 105 330 105 352 105 c 128,-1,295
 374 105 374 105 390 90 c 0,296,297
 398 81 398 81 402 69 c 1,298,-1
 402 69 l 1,299,300
 406 81 406 81 415 90 c 0,301,302
 430 105 430 105 452 105 c 128,-1,303
 474 105 474 105 489 90 c 256,304,305
 504 74 504 74 505 52 c 0,306,307
 505 30 505 30 489 15 c 0,308,309
 474 0 474 0 452 0 c 128,-1,310
 430 0 430 0 415 15 c 0,311,312
 406 24 406 24 402 36 c 1,313,314
 398 24 398 24 390 15 c 0,315,316
 375 0 375 0 352 0 c 0,317,318
 330 0 330 0 315 15 c 0,319,320
 306 24 306 24 302 36 c 1,321,322
 298 24 298 24 290 15 c 0,323,324
 275 0 275 0 252 0 c 0,325,326
 230 0 230 0 215 15 c 0,327,328
 206 24 206 24 202 36 c 1,329,-1
 202 36 l 1,330,331
 198 24 198 24 190 15 c 0,332,333
 175 0 175 0 153 0 c 0,334,335
 132 0 132 0 116 15 c 0,336,337
 107 24 107 24 102 36 c 1,338,-1
 102 36 l 1,339,340
 98 24 98 24 90 15 c 0,341,342
 74 0 74 0 52 0 c 1,343,-1
 52 0 l 1,36,37
EndSplineSet
Validated: 524293
EndChar

StartChar: F
Encoding: 70 70 38
Width: 599
VWidth: 699
Flags: W
LayerCount: 2
Fore
SplineSet
202 335 m 1,0,1
 202 335 l 1,2,-1
 202 335 l 1,3,4
 202 335 l 1,5,-1
 202 335 l 1,0,1
102 636 m 1,6,7
 102 636 l 1,8,-1
 102 636 l 1,9,10
 102 636 l 1,11,-1
 102 636 l 1,6,7
202 636 m 1,12,13
 202 636 l 1,14,-1
 202 636 l 1,15,16
 202 636 l 1,17,-1
 202 636 l 1,12,13
402 636 m 1,18,19
 402 636 l 1,20,-1
 402 636 l 1,21,22
 402 636 l 1,23,-1
 402 636 l 1,18,19
52 0 m 1,24,25
 30 0 30 0 15 15 c 128,-1,26
 0 30 0 30 0 52 c 128,-1,27
 0 74 0 74 15 90 c 0,28,29
 24 99 24 99 36 102 c 1,30,-1
 36 102 l 1,31,32
 24 106 24 106 15 116 c 0,33,34
 0 131 0 131 0 153 c 128,-1,35
 0 175 0 175 15 190 c 0,36,37
 24 199 24 199 36 202 c 1,38,-1
 36 202 l 1,39,40
 24 206 24 206 15 215 c 0,41,42
 0 230 0 230 0 252 c 128,-1,43
 0 274 0 274 15 290 c 0,44,45
 24 299 24 299 36 302 c 1,46,-1
 36 302 l 1,47,48
 24 306 24 306 15 315 c 0,49,50
 0 330 0 330 0 352 c 128,-1,51
 0 374 0 374 15 390 c 0,52,53
 24 398 24 398 36 402 c 1,54,-1
 36 402 l 1,55,56
 24 406 24 406 15 415 c 0,57,58
 0 430 0 430 0 452 c 128,-1,59
 0 474 0 474 15 489 c 0,60,61
 24 498 24 498 36 503 c 1,62,-1
 36 503 l 1,63,64
 24 507 24 507 15 515 c 0,65,66
 0 530 0 530 0 552 c 256,67,68
 0 574 0 574 15 589 c 0,69,70
 24 598 24 598 36 602 c 1,71,-1
 36 602 l 1,72,73
 24 606 24 606 15 615 c 0,74,75
 0 630 0 630 0 652 c 128,-1,76
 0 674 0 674 15 690 c 0,77,78
 30 705 30 705 52 705 c 0,79,80
 53.2941176471 705.058823529 53.2941176471 705.058823529 54.5674740484 705.058823529 c 0,81,82
 74.9411764706 705.058823529 74.9411764706 705.058823529 90 690 c 0,83,84
 99 681 99 681 102 669 c 1,85,-1
 102 669 l 1,86,87
 106 680 106 680 116 690 c 0,88,89
 131 705 131 705 153 705 c 0,90,91
 154.294117647 705.058823529 154.294117647 705.058823529 155.564013841 705.058823529 c 0,92,93
 175.882352941 705.058823529 175.882352941 705.058823529 190 690 c 0,94,95
 199 681 199 681 202 669 c 1,96,-1
 202 669 l 1,97,98
 206 680 206 680 215 690 c 0,99,100
 230 705 230 705 252 705 c 0,101,102
 253.294117647 705.058823529 253.294117647 705.058823529 254.567474048 705.058823529 c 0,103,104
 274.941176471 705.058823529 274.941176471 705.058823529 290 690 c 0,105,106
 299 681 299 681 302 669 c 1,107,-1
 302 669 l 1,108,109
 306 680 306 680 315 690 c 0,110,111
 330 705 330 705 352 705 c 0,112,113
 353.294117647 705.058823529 353.294117647 705.058823529 354.567474048 705.058823529 c 0,114,115
 374.941176471 705.058823529 374.941176471 705.058823529 390 690 c 0,116,117
 398 681 398 681 402 669 c 1,118,-1
 402 669 l 1,119,120
 406 680 406 680 415 690 c 0,121,122
 430 705 430 705 452 705 c 0,123,124
 453.294117647 705.058823529 453.294117647 705.058823529 454.564013841 705.058823529 c 0,125,126
 474.882352941 705.058823529 474.882352941 705.058823529 489 690 c 256,127,128
 504 675 504 675 505 652 c 0,129,130
 505 630 505 630 489 615 c 256,131,132
 474 600 474 600 452 600 c 128,-1,133
 430 600 430 600 415 615 c 0,134,135
 406 624 406 624 402 636 c 1,136,137
 398 625 398 625 390 615 c 0,138,139
 375 600 375 600 352 600 c 0,140,141
 330 600 330 600 315 615 c 0,142,143
 306 624 306 624 302 636 c 1,144,-1
 302 636 l 1,145,146
 298 625 298 625 290 615 c 0,147,148
 275 600 275 600 252 600 c 0,149,150
 230 600 230 600 215 615 c 0,151,152
 206 624 206 624 202 636 c 1,153,154
 198 625 198 625 190 615 c 0,155,156
 175 600 175 600 153 600 c 0,157,158
 132 600 132 600 116 615 c 0,159,160
 107 624 107 624 102 636 c 1,161,-1
 102 636 l 1,162,163
 98 625 98 625 90 615 c 256,164,165
 81 606 81 606 69 602 c 1,166,-1
 69 602 l 1,167,168
 81 598 81 598 90 589 c 0,169,170
 105 574 105 574 105 552 c 256,171,172
 105 530 105 530 90 515 c 0,173,174
 81 506 81 506 69 503 c 1,175,-1
 69 503 l 1,176,177
 81 499 81 499 90 489 c 0,178,179
 105 474 105 474 105 452 c 128,-1,180
 105 430 105 430 90 415 c 0,181,182
 81 406 81 406 69 402 c 1,183,-1
 69 402 l 1,184,185
 81 398 81 398 90 390 c 0,186,187
 99 381 99 381 102 369 c 1,188,-1
 102 369 l 1,189,190
 106 381 106 381 116 390 c 0,191,192
 131 405 131 405 153 405 c 128,-1,193
 175 405 175 405 190 390 c 0,194,195
 199 381 199 381 202 369 c 1,196,-1
 202 369 l 1,197,198
 206 381 206 381 215 390 c 0,199,200
 230 405 230 405 252 405 c 128,-1,201
 274 405 274 405 290 390 c 0,202,203
 299 381 299 381 302 369 c 1,204,-1
 302 369 l 1,205,206
 306 381 306 381 315 390 c 0,207,208
 330 405 330 405 352 405 c 128,-1,209
 374 405 374 405 390 390 c 0,210,211
 405 375 405 375 405 352 c 0,212,213
 405 330 405 330 390 315 c 128,-1,214
 375 300 375 300 352 300 c 0,215,216
 330 300 330 300 315 315 c 0,217,218
 306 324 306 324 302 335 c 1,219,220
 298 324 298 324 290 315 c 0,221,222
 275 300 275 300 252 300 c 0,223,224
 230 300 230 300 215 315 c 0,225,226
 206 324 206 324 202 335 c 1,227,228
 198 324 198 324 190 315 c 0,229,230
 175 300 175 300 153 300 c 0,231,232
 132 300 132 300 116 315 c 0,233,234
 107 324 107 324 102 335 c 1,235,236
 98 324 98 324 90 315 c 256,237,238
 81 306 81 306 69 302 c 1,239,-1
 69 302 l 1,240,241
 81 298 81 298 90 290 c 0,242,243
 105 275 105 275 105 252 c 0,244,245
 105 230 105 230 90 215 c 0,246,247
 81 206 81 206 69 202 c 1,248,-1
 69 202 l 1,249,250
 81 198 81 198 90 190 c 0,251,252
 105 175 105 175 105 153 c 0,253,254
 105 132 105 132 90 116 c 0,255,256
 81 107 81 107 69 102 c 1,257,-1
 69 102 l 1,258,259
 81 98 81 98 90 90 c 0,260,261
 105 74 105 74 105 52 c 128,-1,262
 105 30 105 30 90 15 c 0,263,264
 74 0 74 0 52 0 c 1,265,-1
 52 0 l 1,24,25
EndSplineSet
Validated: 524293
EndChar

StartChar: G
Encoding: 71 71 39
Width: 599
VWidth: 699
Flags: W
LayerCount: 2
Fore
SplineSet
202 36 m 1,0,1
 202 36 l 1,2,-1
 202 36 l 1,3,4
 202 36 l 1,5,-1
 202 36 l 1,0,1
402 36 m 1,6,7
 402 36 l 1,8,-1
 402 36 l 1,9,10
 402 36 l 1,11,-1
 402 36 l 1,6,7
402 335 m 1,12,13
 402 335 l 1,14,-1
 402 335 l 1,15,16
 402 335 l 1,17,-1
 402 335 l 1,12,13
153 0 m 1,18,19
 132 0 132 0 116 15 c 0,20,21
 101 30 101 30 100 52 c 0,22,23
 100 74 100 74 116 90 c 256,24,25
 131 105 131 105 153 105 c 128,-1,26
 175 105 175 105 190 90 c 0,27,28
 199 81 199 81 202 69 c 1,29,-1
 202 69 l 1,30,31
 206 81 206 81 215 90 c 0,32,33
 230 105 230 105 252 105 c 128,-1,34
 274 105 274 105 290 90 c 0,35,36
 299 81 299 81 302 69 c 1,37,-1
 302 69 l 1,38,39
 306 81 306 81 315 90 c 0,40,41
 330 105 330 105 352 105 c 128,-1,42
 374 105 374 105 390 90 c 0,43,44
 398 81 398 81 402 69 c 1,45,-1
 402 69 l 1,46,47
 406 81 406 81 415 90 c 256,48,49
 424 99 424 99 436 102 c 1,50,-1
 436 102 l 1,51,52
 425 106 425 106 415 116 c 0,53,54
 400 131 400 131 400 153 c 128,-1,55
 400 175 400 175 415 190 c 0,56,57
 424 199 424 199 436 202 c 1,58,-1
 436 202 l 1,59,60
 425 206 425 206 415 215 c 0,61,62
 400 230 400 230 400 252 c 128,-1,63
 400 274 400 274 415 290 c 0,64,65
 424 299 424 299 436 302 c 1,66,-1
 436 302 l 1,67,68
 425 306 425 306 415 315 c 256,69,70
 406 324 406 324 402 335 c 1,71,72
 398 324 398 324 390 315 c 0,73,74
 375 300 375 300 352 300 c 0,75,76
 330 300 330 300 315 315 c 256,77,78
 300 330 300 330 300 352 c 128,-1,79
 300 374 300 374 315 390 c 0,80,81
 330 405 330 405 352 405 c 128,-1,82
 374 405 374 405 390 390 c 0,83,84
 398 381 398 381 402 369 c 1,85,-1
 402 369 l 1,86,87
 406 381 406 381 415 390 c 0,88,89
 430 405 430 405 452 405 c 128,-1,90
 474 405 474 405 489 390 c 128,-1,91
 504 375 504 375 505 352 c 0,92,93
 505 330 505 330 489 315 c 0,94,95
 480 306 480 306 469 302 c 1,96,-1
 469 302 l 1,97,98
 480 298 480 298 489 290 c 0,99,100
 504 275 504 275 505 252 c 0,101,102
 505 230 505 230 489 215 c 0,103,104
 480 206 480 206 469 202 c 1,105,-1
 469 202 l 1,106,107
 480 198 480 198 489 190 c 0,108,109
 504 175 504 175 505 153 c 0,110,111
 505 132 505 132 489 116 c 0,112,113
 480 107 480 107 469 102 c 1,114,-1
 469 102 l 1,115,116
 480 98 480 98 489 90 c 0,117,118
 504 74 504 74 505 52 c 0,119,120
 505 30 505 30 489 15 c 0,121,122
 474 0 474 0 452 0 c 128,-1,123
 430 0 430 0 415 15 c 0,124,125
 406 24 406 24 402 36 c 1,126,127
 398 24 398 24 390 15 c 0,128,129
 375 0 375 0 352 0 c 0,130,131
 330 0 330 0 315 15 c 0,132,133
 306 24 306 24 302 36 c 1,134,135
 298 24 298 24 290 15 c 0,136,137
 275 0 275 0 252 0 c 0,138,139
 230 0 230 0 215 15 c 0,140,141
 206 24 206 24 202 36 c 1,142,143
 198 24 198 24 190 15 c 0,144,145
 175 0 175 0 153 0 c 1,146,-1
 153 0 l 1,18,19
52 100 m 1,147,148
 30 100 30 100 15 116 c 0,149,150
 0 131 0 131 0 153 c 128,-1,151
 0 175 0 175 15 190 c 0,152,153
 24 199 24 199 36 202 c 1,154,-1
 36 202 l 1,155,156
 24 206 24 206 15 215 c 0,157,158
 0 230 0 230 0 252 c 128,-1,159
 0 274 0 274 15 290 c 0,160,161
 24 299 24 299 36 302 c 1,162,-1
 36 302 l 1,163,164
 24 306 24 306 15 315 c 0,165,166
 0 330 0 330 0 352 c 128,-1,167
 0 374 0 374 15 390 c 0,168,169
 24 398 24 398 36 402 c 1,170,-1
 36 402 l 1,171,172
 24 406 24 406 15 415 c 0,173,174
 0 430 0 430 0 452 c 128,-1,175
 0 474 0 474 15 489 c 0,176,177
 24 498 24 498 36 503 c 1,178,-1
 36 503 l 1,179,180
 24 507 24 507 15 515 c 0,181,182
 0 530 0 530 0 552 c 256,183,184
 0 574 0 574 15 589 c 128,-1,185
 30 604 30 604 52 605 c 0,186,187
 74 605 74 605 90 589 c 256,188,189
 105 574 105 574 105 552 c 256,190,191
 105 530 105 530 90 515 c 0,192,193
 81 506 81 506 69 503 c 1,194,-1
 69 503 l 1,195,196
 81 499 81 499 90 489 c 0,197,198
 105 474 105 474 105 452 c 128,-1,199
 105 430 105 430 90 415 c 0,200,201
 81 406 81 406 69 402 c 1,202,-1
 69 402 l 1,203,204
 81 398 81 398 90 390 c 0,205,206
 105 375 105 375 105 352 c 0,207,208
 105 330 105 330 90 315 c 0,209,210
 81 306 81 306 69 302 c 1,211,-1
 69 302 l 1,212,213
 81 298 81 298 90 290 c 0,214,215
 105 275 105 275 105 252 c 0,216,217
 105 230 105 230 90 215 c 0,218,219
 81 206 81 206 69 202 c 1,220,-1
 69 202 l 1,221,222
 81 198 81 198 90 190 c 0,223,224
 105 175 105 175 105 153 c 0,225,226
 105 132 105 132 90 116 c 256,227,228
 74 101 74 101 52 100 c 1,229,-1
 52 100 l 1,147,148
202 636 m 1,230,-1
 202 636 l 1,231,-1
 202 636 l 1,232,-1
 202 636 l 1,233,-1
 202 636 l 1,230,-1
302 636 m 1,234,-1
 302 636 l 1,235,-1
 302 636 l 1,236,-1
 302 636 l 1,237,-1
 302 636 l 1,234,-1
153 600 m 1,238,239
 132 600 132 600 116 615 c 256,240,241
 101 630 101 630 100 652 c 0,242,243
 100 674 100 674 116 690 c 256,244,245
 131 705 131 705 153 705 c 0,246,247
 154.294117647 705.058823529 154.294117647 705.058823529 155.564013841 705.058823529 c 0,248,249
 175.882352941 705.058823529 175.882352941 705.058823529 190 690 c 0,250,251
 199 681 199 681 202 669 c 1,252,-1
 202 669 l 1,253,254
 206 680 206 680 215 690 c 0,255,256
 230 705 230 705 252 705 c 0,257,258
 253.294117647 705.058823529 253.294117647 705.058823529 254.567474048 705.058823529 c 0,259,260
 274.941176471 705.058823529 274.941176471 705.058823529 290 690 c 0,261,262
 299 681 299 681 302 669 c 1,263,-1
 302 669 l 1,264,265
 306 680 306 680 315 690 c 0,266,267
 330 705 330 705 352 705 c 0,268,269
 353.294117647 705.058823529 353.294117647 705.058823529 354.567474048 705.058823529 c 0,270,271
 374.941176471 705.058823529 374.941176471 705.058823529 390 690 c 0,272,273
 398 681 398 681 402 669 c 1,274,-1
 402 669 l 1,275,276
 406 680 406 680 415 690 c 0,277,278
 430 705 430 705 452 705 c 0,279,280
 453.294117647 705.058823529 453.294117647 705.058823529 454.564013841 705.058823529 c 0,281,282
 474.882352941 705.058823529 474.882352941 705.058823529 489 690 c 256,283,284
 504 675 504 675 505 652 c 0,285,286
 505 630 505 630 489 615 c 256,287,288
 474 600 474 600 452 600 c 128,-1,289
 430 600 430 600 415 615 c 0,290,291
 406 624 406 624 402 636 c 1,292,293
 398 625 398 625 390 615 c 0,294,295
 375 600 375 600 352 600 c 0,296,297
 330 600 330 600 315 615 c 0,298,299
 306 624 306 624 302 636 c 1,300,301
 298 625 298 625 290 615 c 0,302,303
 275 600 275 600 252 600 c 0,304,305
 230 600 230 600 215 615 c 0,306,307
 206 624 206 624 202 636 c 1,308,-1
 202 636 l 1,309,310
 198 625 198 625 190 615 c 0,311,312
 175 600 175 600 153 600 c 1,313,-1
 153 600 l 1,238,239
EndSplineSet
Validated: 524293
EndChar

StartChar: H
Encoding: 72 72 40
Width: 599
VWidth: 699
Flags: W
LayerCount: 2
Fore
SplineSet
102 335 m 1,0,1
 102 335 l 1,2,-1
 102 335 l 1,3,4
 102 335 l 1,5,-1
 102 335 l 1,0,1
302 335 m 1,6,7
 302 335 l 1,8,-1
 302 335 l 1,9,10
 302 335 l 1,11,-1
 302 335 l 1,6,7
52 0 m 1,12,13
 30 0 30 0 15 15 c 128,-1,14
 0 30 0 30 0 52 c 128,-1,15
 0 74 0 74 15 90 c 0,16,17
 24 99 24 99 36 102 c 1,18,-1
 36 102 l 1,19,20
 24 106 24 106 15 116 c 0,21,22
 0 131 0 131 0 153 c 128,-1,23
 0 175 0 175 15 190 c 0,24,25
 24 199 24 199 36 202 c 1,26,-1
 36 202 l 1,27,28
 24 206 24 206 15 215 c 0,29,30
 0 230 0 230 0 252 c 128,-1,31
 0 274 0 274 15 290 c 0,32,33
 24 299 24 299 36 302 c 1,34,-1
 36 302 l 1,35,36
 24 306 24 306 15 315 c 0,37,38
 0 330 0 330 0 352 c 128,-1,39
 0 374 0 374 15 390 c 0,40,41
 24 398 24 398 36 402 c 1,42,-1
 36 402 l 1,43,44
 24 406 24 406 15 415 c 0,45,46
 0 430 0 430 0 452 c 128,-1,47
 0 474 0 474 15 489 c 0,48,49
 24 498 24 498 36 503 c 1,50,-1
 36 503 l 1,51,52
 24 507 24 507 15 515 c 0,53,54
 0 530 0 530 0 552 c 256,55,56
 0 574 0 574 15 589 c 0,57,58
 24 598 24 598 36 602 c 1,59,-1
 36 602 l 1,60,61
 24 606 24 606 15 615 c 0,62,63
 0 630 0 630 0 652 c 128,-1,64
 0 674 0 674 15 690 c 0,65,66
 30 705 30 705 52 705 c 0,67,68
 53.2941176471 705.058823529 53.2941176471 705.058823529 54.5674740484 705.058823529 c 0,69,70
 74.9411764706 705.058823529 74.9411764706 705.058823529 90 690 c 256,71,72
 105 675 105 675 105 652 c 0,73,74
 105 630 105 630 90 615 c 0,75,76
 81 606 81 606 69 602 c 1,77,-1
 69 602 l 1,78,79
 81 598 81 598 90 589 c 0,80,81
 105 574 105 574 105 552 c 256,82,83
 105 530 105 530 90 515 c 0,84,85
 81 506 81 506 69 503 c 1,86,-1
 69 503 l 1,87,88
 81 499 81 499 90 489 c 0,89,90
 105 474 105 474 105 452 c 128,-1,91
 105 430 105 430 90 415 c 0,92,93
 81 406 81 406 69 402 c 1,94,-1
 69 402 l 1,95,96
 81 398 81 398 90 390 c 0,97,98
 99 381 99 381 102 369 c 1,99,-1
 102 369 l 1,100,101
 106 381 106 381 116 390 c 0,102,103
 131 405 131 405 153 405 c 128,-1,104
 175 405 175 405 190 390 c 0,105,106
 199 381 199 381 202 369 c 1,107,-1
 202 369 l 1,108,109
 206 381 206 381 215 390 c 0,110,111
 230 405 230 405 252 405 c 128,-1,112
 274 405 274 405 290 390 c 0,113,114
 299 381 299 381 302 369 c 1,115,-1
 302 369 l 1,116,117
 306 381 306 381 315 390 c 0,118,119
 330 405 330 405 352 405 c 128,-1,120
 374 405 374 405 390 390 c 0,121,122
 398 381 398 381 402 369 c 1,123,-1
 402 369 l 1,124,125
 406 381 406 381 415 390 c 0,126,127
 424 398 424 398 436 402 c 1,128,-1
 436 402 l 1,129,130
 425 406 425 406 415 415 c 0,131,132
 400 430 400 430 400 452 c 128,-1,133
 400 474 400 474 415 489 c 0,134,135
 424 498 424 498 436 503 c 1,136,-1
 436 503 l 1,137,138
 425 507 425 507 415 515 c 0,139,140
 400 530 400 530 400 552 c 256,141,142
 400 574 400 574 415 589 c 0,143,144
 424 598 424 598 436 602 c 1,145,-1
 436 602 l 1,146,147
 425 606 425 606 415 615 c 0,148,149
 400 630 400 630 400 652 c 128,-1,150
 400 674 400 674 415 690 c 256,151,152
 430 705 430 705 452 705 c 0,153,154
 453.294117647 705.058823529 453.294117647 705.058823529 454.564013841 705.058823529 c 0,155,156
 474.882352941 705.058823529 474.882352941 705.058823529 489 690 c 256,157,158
 504 675 504 675 505 652 c 0,159,160
 505 630 505 630 489 615 c 0,161,162
 480 606 480 606 469 602 c 1,163,-1
 469 602 l 1,164,165
 480 598 480 598 489 589 c 0,166,167
 504 574 504 574 505 552 c 256,168,169
 505 530 505 530 489 515 c 0,170,171
 480 506 480 506 469 503 c 1,172,-1
 469 503 l 1,173,174
 480 499 480 499 489 489 c 0,175,176
 504 474 504 474 505 452 c 0,177,178
 505 430 505 430 489 415 c 0,179,180
 480 406 480 406 469 402 c 1,181,-1
 469 402 l 1,182,183
 480 398 480 398 489 390 c 0,184,185
 504 375 504 375 505 352 c 0,186,187
 505 330 505 330 489 315 c 0,188,189
 480 306 480 306 469 302 c 1,190,-1
 469 302 l 1,191,192
 480 298 480 298 489 290 c 0,193,194
 504 275 504 275 505 252 c 0,195,196
 505 230 505 230 489 215 c 0,197,198
 480 206 480 206 469 202 c 1,199,-1
 469 202 l 1,200,201
 480 198 480 198 489 190 c 0,202,203
 504 175 504 175 505 153 c 0,204,205
 505 132 505 132 489 116 c 0,206,207
 480 107 480 107 469 102 c 1,208,-1
 469 102 l 1,209,210
 480 98 480 98 489 90 c 0,211,212
 504 74 504 74 505 52 c 0,213,214
 505 30 505 30 489 15 c 0,215,216
 474 0 474 0 452 0 c 128,-1,217
 430 0 430 0 415 15 c 128,-1,218
 400 30 400 30 400 52 c 128,-1,219
 400 74 400 74 415 90 c 0,220,221
 424 99 424 99 436 102 c 1,222,-1
 436 102 l 1,223,224
 425 106 425 106 415 116 c 0,225,226
 400 131 400 131 400 153 c 128,-1,227
 400 175 400 175 415 190 c 0,228,229
 424 199 424 199 436 202 c 1,230,-1
 436 202 l 1,231,232
 425 206 425 206 415 215 c 0,233,234
 400 230 400 230 400 252 c 128,-1,235
 400 274 400 274 415 290 c 0,236,237
 424 299 424 299 436 302 c 1,238,-1
 436 302 l 1,239,240
 425 306 425 306 415 315 c 256,241,242
 406 324 406 324 402 335 c 1,243,244
 398 324 398 324 390 315 c 0,245,246
 375 300 375 300 352 300 c 0,247,248
 330 300 330 300 315 315 c 0,249,250
 306 324 306 324 302 335 c 1,251,252
 298 324 298 324 290 315 c 0,253,254
 275 300 275 300 252 300 c 0,255,256
 230 300 230 300 215 315 c 0,257,258
 206 324 206 324 202 335 c 1,259,260
 198 324 198 324 190 315 c 0,261,262
 175 300 175 300 153 300 c 0,263,264
 132 300 132 300 116 315 c 0,265,266
 107 324 107 324 102 335 c 1,267,-1
 102 335 l 1,268,269
 98 324 98 324 90 315 c 256,270,271
 81 306 81 306 69 302 c 1,272,-1
 69 302 l 1,273,274
 81 298 81 298 90 290 c 0,275,276
 105 275 105 275 105 252 c 0,277,278
 105 230 105 230 90 215 c 0,279,280
 81 206 81 206 69 202 c 1,281,-1
 69 202 l 1,282,283
 81 198 81 198 90 190 c 0,284,285
 105 175 105 175 105 153 c 0,286,287
 105 132 105 132 90 116 c 0,288,289
 81 107 81 107 69 102 c 1,290,-1
 69 102 l 1,291,292
 81 98 81 98 90 90 c 0,293,294
 105 74 105 74 105 52 c 128,-1,295
 105 30 105 30 90 15 c 0,296,297
 74 0 74 0 52 0 c 1,298,-1
 52 0 l 1,12,13
EndSplineSet
Validated: 524293
EndChar

StartChar: I
Encoding: 73 73 41
Width: 599
VWidth: 699
Flags: W
LayerCount: 2
Fore
SplineSet
202 36 m 1,0,1
 202 36 l 1,2,-1
 202 36 l 1,3,4
 202 36 l 1,5,-1
 202 36 l 1,0,1
202 636 m 1,6,7
 202 636 l 1,8,-1
 202 636 l 1,9,10
 202 636 l 1,11,-1
 202 636 l 1,6,7
153 0 m 1,12,13
 132 0 132 0 116 15 c 0,14,15
 101 30 101 30 100 52 c 0,16,17
 100 74 100 74 116 90 c 256,18,19
 131 105 131 105 153 105 c 128,-1,20
 175 105 175 105 190 90 c 0,21,22
 199 81 199 81 202 69 c 1,23,-1
 202 69 l 1,24,25
 206 81 206 81 215 90 c 128,-1,26
 224 99 224 99 236 102 c 1,27,-1
 236 102 l 1,28,29
 224 106 224 106 215 116 c 0,30,31
 200 131 200 131 200 153 c 128,-1,32
 200 175 200 175 215 190 c 0,33,34
 224 199 224 199 236 202 c 1,35,-1
 236 202 l 1,36,37
 224 206 224 206 215 215 c 0,38,39
 200 230 200 230 200 252 c 128,-1,40
 200 274 200 274 215 290 c 0,41,42
 224 299 224 299 236 302 c 1,43,-1
 236 302 l 1,44,45
 224 306 224 306 215 315 c 0,46,47
 200 330 200 330 200 352 c 128,-1,48
 200 374 200 374 215 390 c 0,49,50
 224 398 224 398 236 402 c 1,51,-1
 236 402 l 1,52,53
 224 406 224 406 215 415 c 0,54,55
 200 430 200 430 200 452 c 128,-1,56
 200 474 200 474 215 489 c 0,57,58
 224 498 224 498 236 503 c 1,59,-1
 236 503 l 1,60,61
 224 507 224 507 215 515 c 0,62,63
 200 530 200 530 200 552 c 256,64,65
 200 574 200 574 215 589 c 0,66,67
 224 598 224 598 236 602 c 1,68,-1
 236 602 l 1,69,70
 224 606 224 606 215 615 c 128,-1,71
 206 624 206 624 202 636 c 1,72,73
 198 625 198 625 190 615 c 0,74,75
 175 600 175 600 153 600 c 0,76,77
 132 600 132 600 116 615 c 256,78,79
 101 630 101 630 100 652 c 0,80,81
 100 674 100 674 116 690 c 256,82,83
 131 705 131 705 153 705 c 0,84,85
 154.294117647 705.058823529 154.294117647 705.058823529 155.564013841 705.058823529 c 0,86,87
 175.882352941 705.058823529 175.882352941 705.058823529 190 690 c 0,88,89
 199 681 199 681 202 669 c 1,90,-1
 202 669 l 1,91,92
 206 680 206 680 215 690 c 0,93,94
 230 705 230 705 252 705 c 0,95,96
 253.294117647 705.058823529 253.294117647 705.058823529 254.567474048 705.058823529 c 0,97,98
 274.941176471 705.058823529 274.941176471 705.058823529 290 690 c 0,99,100
 299 681 299 681 302 669 c 1,101,-1
 302 669 l 1,102,103
 306 680 306 680 315 690 c 0,104,105
 330 705 330 705 352 705 c 0,106,107
 353.294117647 705.058823529 353.294117647 705.058823529 354.567474048 705.058823529 c 0,108,109
 374.941176471 705.058823529 374.941176471 705.058823529 390 690 c 128,-1,110
 405 675 405 675 405 652 c 0,111,112
 405 630 405 630 390 615 c 128,-1,113
 375 600 375 600 352 600 c 0,114,115
 330 600 330 600 315 615 c 0,116,117
 306 624 306 624 302 636 c 1,118,119
 298 625 298 625 290 615 c 256,120,121
 281 606 281 606 269 602 c 1,122,-1
 269 602 l 1,123,124
 280 598 280 598 290 589 c 0,125,126
 305 574 305 574 305 552 c 256,127,128
 305 530 305 530 290 515 c 0,129,130
 281 506 281 506 269 503 c 1,131,-1
 269 503 l 1,132,133
 280 499 280 499 290 489 c 0,134,135
 305 474 305 474 305 452 c 128,-1,136
 305 430 305 430 290 415 c 0,137,138
 281 406 281 406 269 402 c 1,139,-1
 269 402 l 1,140,141
 280 398 280 398 290 390 c 0,142,143
 305 375 305 375 305 352 c 0,144,145
 305 330 305 330 290 315 c 0,146,147
 281 306 281 306 269 302 c 1,148,-1
 269 302 l 1,149,150
 280 298 280 298 290 290 c 0,151,152
 305 275 305 275 305 252 c 0,153,154
 305 230 305 230 290 215 c 0,155,156
 281 206 281 206 269 202 c 1,157,-1
 269 202 l 1,158,159
 280 198 280 198 290 190 c 0,160,161
 305 175 305 175 305 153 c 0,162,163
 305 132 305 132 290 116 c 0,164,165
 281 107 281 107 269 102 c 1,166,-1
 269 102 l 1,167,168
 280 98 280 98 290 90 c 256,169,170
 299 81 299 81 302 69 c 1,171,-1
 302 69 l 1,172,173
 306 81 306 81 315 90 c 0,174,175
 330 105 330 105 352 105 c 128,-1,176
 374 105 374 105 390 90 c 0,177,178
 405 74 405 74 405 52 c 128,-1,179
 405 30 405 30 390 15 c 128,-1,180
 375 0 375 0 352 0 c 0,181,182
 330 0 330 0 315 15 c 0,183,184
 306 24 306 24 302 36 c 1,185,186
 298 24 298 24 290 15 c 0,187,188
 275 0 275 0 252 0 c 0,189,190
 230 0 230 0 215 15 c 0,191,192
 206 24 206 24 202 36 c 1,193,194
 198 24 198 24 190 15 c 0,195,196
 175 0 175 0 153 0 c 1,197,-1
 153 0 l 1,12,13
EndSplineSet
Validated: 524293
EndChar

StartChar: J
Encoding: 74 74 42
Width: 599
VWidth: 699
Flags: W
LayerCount: 2
Fore
SplineSet
202 36 m 1,0,1
 202 36 l 1,2,-1
 202 36 l 1,3,4
 202 36 l 1,5,-1
 202 36 l 1,0,1
153 0 m 1,6,7
 132 0 132 0 116 15 c 0,8,9
 101 30 101 30 100 52 c 0,10,11
 100 74 100 74 116 90 c 256,12,13
 131 105 131 105 153 105 c 128,-1,14
 175 105 175 105 190 90 c 0,15,16
 199 81 199 81 202 69 c 1,17,-1
 202 69 l 1,18,19
 206 81 206 81 215 90 c 0,20,21
 230 105 230 105 252 105 c 128,-1,22
 274 105 274 105 290 90 c 256,23,24
 305 74 305 74 305 52 c 128,-1,25
 305 30 305 30 290 15 c 128,-1,26
 275 0 275 0 252 0 c 0,27,28
 230 0 230 0 215 15 c 0,29,30
 206 24 206 24 202 36 c 1,31,32
 198 24 198 24 190 15 c 0,33,34
 175 0 175 0 153 0 c 1,35,-1
 153 0 l 1,6,7
52 100 m 1,36,37
 30 100 30 100 15 116 c 0,38,39
 0 131 0 131 0 153 c 128,-1,40
 0 175 0 175 15 190 c 0,41,42
 29.0625 204.0625 29.0625 204.0625 49.27734375 204.0625 c 0,43,44
 50.625 204.0625 50.625 204.0625 52 204 c 0,45,46
 74 204 74 204 90 190 c 256,47,48
 105 175 105 175 105 153 c 0,49,50
 105 132 105 132 90 116 c 256,51,52
 74 101 74 101 52 100 c 1,53,-1
 52 100 l 1,36,37
302 636 m 1,54,-1
 302 636 l 1,55,-1
 302 636 l 1,56,-1
 302 636 l 1,57,-1
 302 636 l 1,54,-1
352 100 m 1,58,59
 330 100 330 100 315 116 c 256,60,61
 300 131 300 131 300 153 c 128,-1,62
 300 175 300 175 315 190 c 0,63,64
 324 199 324 199 335 202 c 1,65,-1
 335 202 l 1,66,67
 324 206 324 206 315 215 c 0,68,69
 300 230 300 230 300 252 c 128,-1,70
 300 274 300 274 315 290 c 0,71,72
 324 299 324 299 335 302 c 1,73,-1
 335 302 l 1,74,75
 324 306 324 306 315 315 c 0,76,77
 300 330 300 330 300 352 c 128,-1,78
 300 374 300 374 315 390 c 0,79,80
 324 398 324 398 335 402 c 1,81,-1
 335 402 l 1,82,83
 324 406 324 406 315 415 c 0,84,85
 300 430 300 430 300 452 c 128,-1,86
 300 474 300 474 315 489 c 0,87,88
 324 498 324 498 335 503 c 1,89,-1
 335 503 l 1,90,91
 324 507 324 507 315 515 c 0,92,93
 300 530 300 530 300 552 c 256,94,95
 300 574 300 574 315 589 c 0,96,97
 324 598 324 598 335 602 c 1,98,-1
 335 602 l 1,99,100
 324 606 324 606 315 615 c 256,101,102
 306 624 306 624 302 636 c 1,103,-1
 302 636 l 1,104,105
 298 625 298 625 290 615 c 0,106,107
 275 600 275 600 252 600 c 0,108,109
 230 600 230 600 215 615 c 128,-1,110
 200 630 200 630 200 652 c 128,-1,111
 200 674 200 674 215 690 c 0,112,113
 230 705 230 705 252 705 c 0,114,115
 253.294117647 705.058823529 253.294117647 705.058823529 254.567474048 705.058823529 c 0,116,117
 274.941176471 705.058823529 274.941176471 705.058823529 290 690 c 0,118,119
 299 681 299 681 302 669 c 1,120,-1
 302 669 l 1,121,122
 306 680 306 680 315 690 c 0,123,124
 330 705 330 705 352 705 c 0,125,126
 353.294117647 705.058823529 353.294117647 705.058823529 354.567474048 705.058823529 c 0,127,128
 374.941176471 705.058823529 374.941176471 705.058823529 390 690 c 0,129,130
 398 681 398 681 402 669 c 1,131,-1
 402 669 l 1,132,133
 406 680 406 680 415 690 c 0,134,135
 430 705 430 705 452 705 c 0,136,137
 453.294117647 705.058823529 453.294117647 705.058823529 454.564013841 705.058823529 c 0,138,139
 474.882352941 705.058823529 474.882352941 705.058823529 489 690 c 256,140,141
 504 675 504 675 505 652 c 0,142,143
 505 630 505 630 489 615 c 256,144,145
 474 600 474 600 452 600 c 128,-1,146
 430 600 430 600 415 615 c 0,147,148
 406 624 406 624 402 636 c 1,149,150
 398 625 398 625 390 615 c 0,151,152
 381 606 381 606 369 602 c 1,153,-1
 369 602 l 1,154,155
 381 598 381 598 390 589 c 0,156,157
 405 574 405 574 405 552 c 256,158,159
 405 530 405 530 390 515 c 0,160,161
 381 506 381 506 369 503 c 1,162,-1
 369 503 l 1,163,164
 381 499 381 499 390 489 c 0,165,166
 405 474 405 474 405 452 c 128,-1,167
 405 430 405 430 390 415 c 0,168,169
 381 406 381 406 369 402 c 1,170,-1
 369 402 l 1,171,172
 381 398 381 398 390 390 c 0,173,174
 405 375 405 375 405 352 c 0,175,176
 405 330 405 330 390 315 c 0,177,178
 381 306 381 306 369 302 c 1,179,-1
 369 302 l 1,180,181
 381 298 381 298 390 290 c 0,182,183
 405 275 405 275 405 252 c 0,184,185
 405 230 405 230 390 215 c 0,186,187
 381 206 381 206 369 202 c 1,188,-1
 369 202 l 1,189,190
 381 198 381 198 390 190 c 0,191,192
 405 175 405 175 405 153 c 0,193,194
 405 132 405 132 390 116 c 0,195,196
 375 101 375 101 352 100 c 1,197,-1
 352 100 l 1,58,59
EndSplineSet
Validated: 524293
EndChar

StartChar: K
Encoding: 75 75 43
Width: 599
VWidth: 699
Flags: W
LayerCount: 2
Fore
SplineSet
452 0 m 1,0,1
 430 0 430 0 415 15 c 128,-1,2
 400 30 400 30 400 52 c 128,-1,3
 400 74 400 74 415 90 c 256,4,5
 430 105 430 105 452 105 c 128,-1,6
 474 105 474 105 489 90 c 256,7,8
 504 74 504 74 505 52 c 0,9,10
 505 30 505 30 489 15 c 0,11,12
 474 0 474 0 452 0 c 1,13,-1
 452 0 l 1,0,1
352 100 m 1,14,15
 330 100 330 100 315 116 c 256,16,17
 300 131 300 131 300 153 c 128,-1,18
 300 175 300 175 315 190 c 256,19,20
 329.0625 204.0625 329.0625 204.0625 349.27734375 204.0625 c 0,21,22
 350.625 204.0625 350.625 204.0625 352 204 c 0,23,24
 374 204 374 204 390 190 c 0,25,26
 405 175 405 175 405 153 c 0,27,28
 405 132 405 132 390 116 c 0,29,30
 375 101 375 101 352 100 c 1,31,-1
 352 100 l 1,14,15
252 200 m 1,32,33
 230 200 230 200 215 215 c 128,-1,34
 200 230 200 230 200 252 c 128,-1,35
 200 274 200 274 215 290 c 0,36,37
 230 305 230 305 252 305 c 128,-1,38
 274 305 274 305 290 290 c 256,39,40
 305 275 305 275 305 252 c 0,41,42
 305 230 305 230 290 215 c 128,-1,43
 275 200 275 200 252 200 c 1,44,-1
 252 200 l 1,32,33
102 335 m 1,45,-1
 102 335 l 1,46,-1
 102 335 l 1,47,-1
 102 335 l 1,48,-1
 102 335 l 1,45,-1
252 400 m 1,49,50
 230 400 230 400 215 415 c 128,-1,51
 200 430 200 430 200 452 c 128,-1,52
 200 474 200 474 215 489 c 128,-1,53
 230 504 230 504 252 505 c 0,54,55
 274 505 274 505 290 489 c 256,56,57
 305 474 305 474 305 452 c 128,-1,58
 305 430 305 430 290 415 c 256,59,60
 275 400 275 400 252 400 c 1,61,-1
 252 400 l 1,49,50
352 500 m 1,62,63
 330 500 330 500 315 515 c 256,64,65
 300 530 300 530 300 552 c 256,66,67
 300 574 300 574 315 589 c 256,68,69
 330 604 330 604 352 605 c 0,70,71
 374 605 374 605 390 589 c 0,72,73
 405 574 405 574 405 552 c 256,74,75
 405 530 405 530 390 515 c 128,-1,76
 375 500 375 500 352 500 c 1,77,-1
 352 500 l 1,62,63
52 0 m 1,78,79
 30 0 30 0 15 15 c 128,-1,80
 0 30 0 30 0 52 c 128,-1,81
 0 74 0 74 15 90 c 0,82,83
 24 99 24 99 36 102 c 1,84,-1
 36 102 l 1,85,86
 24 106 24 106 15 116 c 0,87,88
 0 131 0 131 0 153 c 128,-1,89
 0 175 0 175 15 190 c 0,90,91
 24 199 24 199 36 202 c 1,92,-1
 36 202 l 1,93,94
 24 206 24 206 15 215 c 0,95,96
 0 230 0 230 0 252 c 128,-1,97
 0 274 0 274 15 290 c 0,98,99
 24 299 24 299 36 302 c 1,100,-1
 36 302 l 1,101,102
 24 306 24 306 15 315 c 0,103,104
 0 330 0 330 0 352 c 128,-1,105
 0 374 0 374 15 390 c 0,106,107
 24 398 24 398 36 402 c 1,108,-1
 36 402 l 1,109,110
 24 406 24 406 15 415 c 0,111,112
 0 430 0 430 0 452 c 128,-1,113
 0 474 0 474 15 489 c 0,114,115
 24 498 24 498 36 503 c 1,116,-1
 36 503 l 1,117,118
 24 507 24 507 15 515 c 0,119,120
 0 530 0 530 0 552 c 256,121,122
 0 574 0 574 15 589 c 0,123,124
 24 598 24 598 36 602 c 1,125,-1
 36 602 l 1,126,127
 24 606 24 606 15 615 c 0,128,129
 0 630 0 630 0 652 c 128,-1,130
 0 674 0 674 15 690 c 0,131,132
 30 705 30 705 52 705 c 0,133,134
 53.2941176471 705.058823529 53.2941176471 705.058823529 54.5674740484 705.058823529 c 0,135,136
 74.9411764706 705.058823529 74.9411764706 705.058823529 90 690 c 256,137,138
 105 675 105 675 105 652 c 0,139,140
 105 630 105 630 90 615 c 0,141,142
 81 606 81 606 69 602 c 1,143,-1
 69 602 l 1,144,145
 81 598 81 598 90 589 c 0,146,147
 105 574 105 574 105 552 c 256,148,149
 105 530 105 530 90 515 c 0,150,151
 81 506 81 506 69 503 c 1,152,-1
 69 503 l 1,153,154
 81 499 81 499 90 489 c 0,155,156
 105 474 105 474 105 452 c 128,-1,157
 105 430 105 430 90 415 c 0,158,159
 81 406 81 406 69 402 c 1,160,-1
 69 402 l 1,161,162
 81 398 81 398 90 390 c 0,163,164
 99 381 99 381 102 369 c 1,165,-1
 102 369 l 1,166,167
 106 381 106 381 116 390 c 0,168,169
 131 405 131 405 153 405 c 128,-1,170
 175 405 175 405 190 390 c 0,171,172
 204.0625 375.9375 204.0625 375.9375 204.0625 354.84375 c 0,173,174
 204.0625 330.066964286 204.0625 330.066964286 190 315 c 256,175,176
 175 300 175 300 153 300 c 0,177,178
 132 300 132 300 116 315 c 0,179,180
 107 324 107 324 102 335 c 1,181,-1
 102 335 l 1,182,183
 98 324 98 324 90 315 c 256,184,185
 81 306 81 306 69 302 c 1,186,-1
 69 302 l 1,187,188
 81 298 81 298 90 290 c 0,189,190
 105 275 105 275 105 252 c 0,191,192
 105 230 105 230 90 215 c 0,193,194
 81 206 81 206 69 202 c 1,195,-1
 69 202 l 1,196,197
 81 198 81 198 90 190 c 0,198,199
 105 175 105 175 105 153 c 0,200,201
 105 132 105 132 90 116 c 0,202,203
 81 107 81 107 69 102 c 1,204,-1
 69 102 l 1,205,206
 81 98 81 98 90 90 c 0,207,208
 105 74 105 74 105 52 c 128,-1,209
 105 30 105 30 90 15 c 0,210,211
 74 0 74 0 52 0 c 1,212,-1
 52 0 l 1,78,79
452 600 m 1,213,214
 430 600 430 600 415 615 c 256,215,216
 400 630 400 630 400 652 c 128,-1,217
 400 674 400 674 415 690 c 256,218,219
 430 705 430 705 452 705 c 0,220,221
 453.294117647 705.058823529 453.294117647 705.058823529 454.564013841 705.058823529 c 0,222,223
 474.882352941 705.058823529 474.882352941 705.058823529 489 690 c 256,224,225
 504 675 504 675 505 652 c 0,226,227
 505 630 505 630 489 615 c 256,228,229
 474 600 474 600 452 600 c 1,230,-1
 452 600 l 1,213,214
EndSplineSet
Validated: 524293
EndChar

StartChar: L
Encoding: 76 76 44
Width: 599
VWidth: 699
Flags: W
LayerCount: 2
Fore
SplineSet
102 36 m 1,0,1
 102 36 l 1,2,-1
 102 36 l 1,3,4
 102 36 l 1,5,-1
 102 36 l 1,0,1
302 36 m 1,6,7
 302 36 l 1,8,-1
 302 36 l 1,9,10
 302 36 l 1,11,-1
 302 36 l 1,6,7
52 0 m 1,12,13
 30 0 30 0 15 15 c 128,-1,14
 0 30 0 30 0 52 c 128,-1,15
 0 74 0 74 15 90 c 0,16,17
 24 99 24 99 36 102 c 1,18,-1
 36 102 l 1,19,20
 24 106 24 106 15 116 c 0,21,22
 0 131 0 131 0 153 c 128,-1,23
 0 175 0 175 15 190 c 0,24,25
 24 199 24 199 36 202 c 1,26,-1
 36 202 l 1,27,28
 24 206 24 206 15 215 c 0,29,30
 0 230 0 230 0 252 c 128,-1,31
 0 274 0 274 15 290 c 0,32,33
 24 299 24 299 36 302 c 1,34,-1
 36 302 l 1,35,36
 24 306 24 306 15 315 c 0,37,38
 0 330 0 330 0 352 c 128,-1,39
 0 374 0 374 15 390 c 0,40,41
 24 398 24 398 36 402 c 1,42,-1
 36 402 l 1,43,44
 24 406 24 406 15 415 c 0,45,46
 0 430 0 430 0 452 c 128,-1,47
 0 474 0 474 15 489 c 0,48,49
 24 498 24 498 36 503 c 1,50,-1
 36 503 l 1,51,52
 24 507 24 507 15 515 c 0,53,54
 0 530 0 530 0 552 c 256,55,56
 0 574 0 574 15 589 c 0,57,58
 24 598 24 598 36 602 c 1,59,-1
 36 602 l 1,60,61
 24 606 24 606 15 615 c 0,62,63
 0 630 0 630 0 652 c 128,-1,64
 0 674 0 674 15 690 c 0,65,66
 30 705 30 705 52 705 c 0,67,68
 53.2941176471 705.058823529 53.2941176471 705.058823529 54.5674740484 705.058823529 c 0,69,70
 74.9411764706 705.058823529 74.9411764706 705.058823529 90 690 c 256,71,72
 105 675 105 675 105 652 c 0,73,74
 105 630 105 630 90 615 c 0,75,76
 81 606 81 606 69 602 c 1,77,-1
 69 602 l 1,78,79
 81 598 81 598 90 589 c 0,80,81
 105 574 105 574 105 552 c 256,82,83
 105 530 105 530 90 515 c 0,84,85
 81 506 81 506 69 503 c 1,86,-1
 69 503 l 1,87,88
 81 499 81 499 90 489 c 0,89,90
 105 474 105 474 105 452 c 128,-1,91
 105 430 105 430 90 415 c 0,92,93
 81 406 81 406 69 402 c 1,94,-1
 69 402 l 1,95,96
 81 398 81 398 90 390 c 0,97,98
 105 375 105 375 105 352 c 0,99,100
 105 330 105 330 90 315 c 0,101,102
 81 306 81 306 69 302 c 1,103,-1
 69 302 l 1,104,105
 81 298 81 298 90 290 c 0,106,107
 105 275 105 275 105 252 c 0,108,109
 105 230 105 230 90 215 c 0,110,111
 81 206 81 206 69 202 c 1,112,-1
 69 202 l 1,113,114
 81 198 81 198 90 190 c 0,115,116
 105 175 105 175 105 153 c 0,117,118
 105 132 105 132 90 116 c 0,119,120
 81 107 81 107 69 102 c 1,121,-1
 69 102 l 1,122,123
 81 98 81 98 90 90 c 256,124,125
 99 81 99 81 102 69 c 1,126,-1
 102 69 l 1,127,128
 106 81 106 81 116 90 c 0,129,130
 131 105 131 105 153 105 c 128,-1,131
 175 105 175 105 190 90 c 0,132,133
 199 81 199 81 202 69 c 1,134,-1
 202 69 l 1,135,136
 206 81 206 81 215 90 c 0,137,138
 230 105 230 105 252 105 c 128,-1,139
 274 105 274 105 290 90 c 0,140,141
 299 81 299 81 302 69 c 1,142,-1
 302 69 l 1,143,144
 306 81 306 81 315 90 c 0,145,146
 330 105 330 105 352 105 c 128,-1,147
 374 105 374 105 390 90 c 0,148,149
 398 81 398 81 402 69 c 1,150,-1
 402 69 l 1,151,152
 406 81 406 81 415 90 c 0,153,154
 430 105 430 105 452 105 c 128,-1,155
 474 105 474 105 489 90 c 256,156,157
 504 74 504 74 505 52 c 0,158,159
 505 30 505 30 489 15 c 0,160,161
 474 0 474 0 452 0 c 128,-1,162
 430 0 430 0 415 15 c 0,163,164
 406 24 406 24 402 36 c 1,165,166
 398 24 398 24 390 15 c 0,167,168
 375 0 375 0 352 0 c 0,169,170
 330 0 330 0 315 15 c 0,171,172
 306 24 306 24 302 36 c 1,173,174
 298 24 298 24 290 15 c 0,175,176
 275 0 275 0 252 0 c 0,177,178
 230 0 230 0 215 15 c 0,179,180
 206 24 206 24 202 36 c 1,181,-1
 202 36 l 1,182,183
 198 24 198 24 190 15 c 0,184,185
 175 0 175 0 153 0 c 0,186,187
 132 0 132 0 116 15 c 0,188,189
 107 24 107 24 102 36 c 1,190,-1
 102 36 l 1,191,192
 98 24 98 24 90 15 c 0,193,194
 74 0 74 0 52 0 c 1,195,-1
 52 0 l 1,12,13
EndSplineSet
Validated: 524293
EndChar

